<svg id="Camada_1" data-name="Camada 1" xmlns="http://www.w3.org/2000/svg" viewBox="0 0 50 50"><defs><style>.cls-1{fill:#ee5929;}</style></defs><title>Prancheta 2</title><path class="cls-1" d="M39.24,41.48v4.35c-.46,0-.85.06-1.24.06-8.19,0-16.39,0-24.59,0-1.07,0-1.28-.33-1.37-1.35a5.5,5.5,0,0,1,1.73-4.46Q21.06,32.16,28.15,24a14.29,14.29,0,0,0,3.7-6.88c.76-4.26-1.68-8-5.76-8.63-4.61-.75-8.6,2-9.17,6.31-.08.63-.16,1.26-.25,1.94H11.35a12.14,12.14,0,0,1,2.16-7.59,11.73,11.73,0,0,1,8.88-5.06,21.58,21.58,0,0,1,6.76.34C35.6,6,38.86,11.92,36.94,18.33c-1.31,4.37-4.1,7.83-7.1,11.13-3.3,3.64-6.66,7.23-10,10.85-.28.31-.54.65-1,1.17Z"/></svg>