<svg id="Camada_1" data-name="Camada 1" xmlns="http://www.w3.org/2000/svg" viewBox="0 0 50 50"><defs><style>.cls-1{fill:#ee5929;}</style></defs><title>Prancheta 5</title><path class="cls-1" d="M16.6,5.35c.57,0,1-.06,1.36-.06,6.2,0,12.39,0,18.59,0,1.17,0,1.58.36,1.45,1.5s.25,2.65-.35,3.31-2.1.24-3.21.24c-3.88,0-7.76,0-11.64,0H21.28l-1.2,10.59c1.62-.42,3.17-.95,4.77-1.21C32.09,18.53,38.12,23.17,39,30.46a19.6,19.6,0,0,1-.46,8C37.11,43.25,34,46.2,28.94,47c-4.39.68-8.55.19-12-2.9-2.47-2.18-3.55-5-3.85-8.46,1.61,0,3.15,0,4.68,0,.22,0,.53.52.61.85,1.12,4.71,4.53,6.94,9.25,6.09a6.66,6.66,0,0,0,5.28-4.38A12.1,12.1,0,0,0,33.19,30,8.38,8.38,0,0,0,20.34,25.9c-.57.42-1.21,1.11-1.78,1.06a17.42,17.42,0,0,1-3.7-.92c-.15,0-.3-.45-.28-.67C15.24,18.74,15.92,12.11,16.6,5.35Z"/></svg>