<svg id="Camada_1" data-name="Camada 1" xmlns="http://www.w3.org/2000/svg" viewBox="0 0 50 50"><defs><style>.cls-1{fill:#ee5929;}</style></defs><title>Prancheta 4</title><path class="cls-1" d="M36.54,37.12v9.57c-1.71,0-3.33,0-4.95,0-.18,0-.47-.65-.48-1,0-2.35,0-4.71,0-7.07,0-.44,0-.87-.07-1.45H29.53c-5.32,0-10.64,0-16,0-1.08,0-1.34-.35-1.36-1.37a5.64,5.64,0,0,1,1-3.35q8.45-13,16.81-26a2.07,2.07,0,0,1,2.1-1.17c1.4.09,2.8,0,4.34,0V32.65c1.61,0,3.07.05,4.53,0,1,0,1.41.24,1.3,1.27a8.22,8.22,0,0,0,0,1.92c.13,1.1-.36,1.37-1.38,1.32C39.52,37.06,38.12,37.12,36.54,37.12Zm-5.45-23.6-.23-.09L18.61,32.56c.64,0,1.06.08,1.48.09h8.28c2.72,0,2.72,0,2.72-2.72Z"/></svg>