<svg id="Camada_1" data-name="Camada 1" xmlns="http://www.w3.org/2000/svg" viewBox="0 0 50 50"><defs><style>.cls-1{fill:#ee5929;}</style></defs><title>Prancheta 6</title><path class="cls-1" d="M33.68,9.81C29.07,9.89,24.85,11,21.9,15c-1.61,2.18-2.81,5.65-2.61,7.63l1-.75c4.24-3.39,11.29-3.23,15.29.44A13.39,13.39,0,0,1,39.7,31.8c.26,4.59-.64,8.82-4.05,12.22-4.36,4.33-14.45,5.11-19.29-2.41a17.38,17.38,0,0,1-2.81-8.91c-.19-5-.15-10.06,1.43-14.94,2.42-7.53,8-11.89,15.87-12.43,3-.2,3-.2,3,2.84q0,.6,0,1.2A2.49,2.49,0,0,1,33.68,9.81ZM26.88,24a15.06,15.06,0,0,0-2.34.41c-2.63.89-5,2.45-5.48,5.21a12.71,12.71,0,0,0,2.28,10A6.87,6.87,0,0,0,33.4,38.22a12.2,12.2,0,0,0,0-9.68A6.76,6.76,0,0,0,26.88,24Z"/></svg>