<svg id="Camada_1" data-name="Camada 1" xmlns="http://www.w3.org/2000/svg" viewBox="0 0 50 50"><defs><style>.cls-1{fill:#ee5929;}</style></defs><title>Prancheta 3</title><path class="cls-1" d="M12.82,15.47a10.1,10.1,0,0,1,3.31-8.09A13.24,13.24,0,0,1,26.27,3.93a14.66,14.66,0,0,1,6.87,1.83c5.75,3.33,7.64,13.92-.27,18.39-.24.13-.47.28-.83.5.61.3,1.14.54,1.65.82C37.47,27.52,38.9,31,38.74,35c-.33,8.23-7.1,11.54-12.77,11.5-3.81,0-7.29-.76-10.2-3.39a10.61,10.61,0,0,1-3.4-7.19c-.07-.75.18-1.11,1-1.08,1.2,0,2.4,0,3.6,0,.64,0,.89.25,1,.9A6.74,6.74,0,0,0,25,42a13.7,13.7,0,0,0,2.4-.09c4.2-.73,6.1-3.45,5.86-8.32-.18-3.5-2.86-6.07-6.74-6.37-1.56-.13-3.12-.16-4.67-.17-.74,0-1.13-.19-1.07-1a23.54,23.54,0,0,0,0-2.52c0-.75.29-.95,1-1a31.9,31.9,0,0,0,5.37-.25,7.21,7.21,0,0,0,4.1-11.61c-1.83-2.23-4.42-2.45-7-2.1-3.52.48-5.45,2.51-6,6-.08.56-.19.89-.84.89C15.93,15.45,14.46,15.47,12.82,15.47Z"/></svg>