<svg xmlns="http://www.w3.org/2000/svg" viewBox="0 0 50 50"><title>Prancheta 20</title><g id="_20" data-name="20"><path d="M40.4,21.12V14A2.18,2.18,0,0,0,36,14v4H34.17V9.34a9.09,9.09,0,0,0-13.35-8,.72.72,0,1,0,.68,1.28,7.64,7.64,0,0,1,11.18,6H30.55a.73.73,0,0,0-.73.73.73.73,0,0,0,.73.72h2.17v2.32H30.55a.73.73,0,0,0-.73.72.73.73,0,0,0,.73.73h2.17V16.1H30.55a.73.73,0,1,0,0,1.45h2.17v2.31H30.55a.73.73,0,0,0,0,1.46h2.13a7.64,7.64,0,0,1-15.2,0h2.13a.73.73,0,1,0,0-1.46H17.44V17.55h2.17a.73.73,0,1,0,0-1.45H17.44V13.79h2.17a.73.73,0,0,0,.73-.73.73.73,0,0,0-.73-.72H17.44V10h2.17a.73.73,0,0,0,.73-.72.73.73,0,0,0-.73-.73H17.48A7.61,7.61,0,0,1,19.4,4.23a.73.73,0,1,0-1.08-1A9.09,9.09,0,0,0,16,9.34V18H14.12V14a2.18,2.18,0,0,0-4.36,0v7.12A15.34,15.34,0,0,0,22.45,36.21V45H15.88a2.36,2.36,0,0,0,0,4.72h3.23a.73.73,0,0,0,.73-.73.73.73,0,0,0-.73-.72H15.88a.91.91,0,0,1,0-1.81h18.4a.91.91,0,0,1,0,1.81H22a.73.73,0,0,0-.73.72.73.73,0,0,0,.73.73H34.28a2.36,2.36,0,0,0,0-4.72H27.71V36.21A15.34,15.34,0,0,0,40.4,21.12Zm-29.19,0V14a.73.73,0,1,1,1.46,0v7.12A12.41,12.41,0,0,0,32.11,31.35a.73.73,0,1,0-.83-1.2,11,11,0,0,1-17.16-9V19.43H16v1.11a9.09,9.09,0,1,0,18.18,0V19.43H36v1.69a10.93,10.93,0,0,1-2.72,7.22.73.73,0,0,0,1.1.95,12.4,12.4,0,0,0,3.08-8.17V14a.73.73,0,0,1,.72-.73A.73.73,0,0,1,39,14v7.12a13.87,13.87,0,0,1-27.74,0ZM26.25,45H23.91V36.4c.38,0,.78,0,1.17,0s.79,0,1.17,0Z"/></g></svg>