<svg xmlns="http://www.w3.org/2000/svg" viewBox="0 0 50 50"><defs><style>.cls-1{fill:none;stroke:#000;stroke-miterlimit:10;stroke-width:1.5px;}</style></defs><title>Prancheta 5</title><g id="Camada_3" data-name="Camada 3"><g id="Grupo_927" data-name="Grupo 927"><g id="Grupo_923" data-name="Grupo 923"><path id="Caminho_232" data-name="Caminho 232" class="cls-1" d="M19.83,36.59A3.06,3.06,0,0,1,17,39.79a3.11,3.11,0,0,1-2.81-3.28A3.08,3.08,0,0,1,17,33.24h.09A3.09,3.09,0,0,1,19.83,36.59Z"/><path id="Caminho_233" data-name="Caminho 233" class="cls-1" d="M34.87,33.23a3.1,3.1,0,0,1,2.88,3.21,3.14,3.14,0,0,1-2.85,3.35h-.06a3.32,3.32,0,0,1,0-6.56Z"/></g><g id="Grupo_924" data-name="Grupo 924"><path id="Caminho_234" data-name="Caminho 234" d="M26.53,29h-9.3c-2.39,0-3.08-.78-3.09-3.47q0-5.18,0-10.37c0-2.63.7-3.45,2.93-3.46H36c2.2,0,2.93.89,2.93,3.46q0,5.19,0,10.37c0,2.58-.73,3.45-2.93,3.47Zm0-15.57c-3.1,0-6.21,0-9.3,0-1.16,0-1.62.44-1.59,1.8q.07,5.1,0,10.2c0,1.3.33,1.88,1.53,1.87q9.38-.06,18.76,0c1.22,0,1.53-.6,1.51-1.89,0-3.35-.08-6.7,0-10,0-1.57-.51-2-1.77-2C32.62,13.5,29.57,13.46,26.52,13.46Z"/><path id="Caminho_235" data-name="Caminho 235" d="M26.61,3.94c3.2,0,6.4,0,9.6,0,1.85,0,2.7,1,2.7,3s-.84,3-2.72,3q-9.67,0-19.35,0c-1.86,0-2.71-1-2.7-3s.86-3,2.72-3C20.11,3.92,23.36,3.94,26.61,3.94Zm0,1.73H17.19c-.81,0-1.53,0-1.54,1.29s.71,1.31,1.52,1.31H35.88c.78,0,1.54,0,1.54-1.29s-.71-1.31-1.52-1.31Z"/></g><g id="Grupo_926" data-name="Grupo 926"><path id="Retângulo_172" data-name="Retângulo 172" class="cls-1" d="M16,1.5H36.36c2.39,0,4.32,2.23,4.32,5V39.54c0,2.75-1.93,5-4.32,5H16c-2.39,0-4.32-2.23-4.32-5V6.48C11.65,3.73,13.58,1.5,16,1.5Z"/><g id="Grupo_925" data-name="Grupo 925"><path id="Caminho_236" data-name="Caminho 236" class="cls-1" d="M38.48,45.91a2.48,2.48,0,0,1-2,2.76h-.35a2.34,2.34,0,0,1-2.39-2.35,2.8,2.8,0,0,1,0-.41c0-1.49.75-1.38,2.39-1.38S38.48,44.42,38.48,45.91Z"/><path id="Caminho_237" data-name="Caminho 237" class="cls-1" d="M19.35,45.91a2.47,2.47,0,0,1-2,2.76H17a2.35,2.35,0,0,1-2.39-2.35,2.8,2.8,0,0,1,0-.41c0-1.49.75-1.38,2.39-1.38S19.35,44.42,19.35,45.91Z"/></g></g></g></g></svg>