<svg xmlns="http://www.w3.org/2000/svg" viewBox="0 0 50 50"><title>Prancheta 12</title><g id="_12" data-name="12"><path d="M24.75.33H13.93a.84.84,0,0,0-.83.84V7H.61a.84.84,0,0,0-.83.84V49.45a.83.83,0,0,0,.83.83H24.75a.84.84,0,0,0,.84-.83V1.17A.85.85,0,0,0,24.75.33Zm-.83,43.29H14.76V42h9.16ZM1.45,12.82H13.1v25H1.45ZM23.92,9.49H14.76V7h9.16Zm-22.47,30H13.1V42H1.45Zm13.31.83V11.16h9.16V40.29ZM23.92,2V5.33H14.76V2ZM13.1,8.66v2.5H1.45V8.66Zm-11.65,35H13.1v5H1.45Zm13.31,5V45.28h9.16v3.33Z"/><path d="M49.7,45.91l-10-38.29a.81.81,0,0,0-.39-.51A.87.87,0,0,0,38.69,7L26.2,10.35a.84.84,0,0,0-.59,1l10,38.29a.9.9,0,0,0,.39.51.82.82,0,0,0,.63.08l12.49-3.33A.84.84,0,0,0,49.7,45.91ZM28.76,16.83l10.88-2.9.39,1.5-10.88,2.9ZM40.45,17l4.83,18.52L34.4,38.46,29.57,19.94ZM45.7,37.18l.85,3.26-10.88,2.9-.84-3.26ZM38.31,8.85l.91,3.47-10.88,2.9-.91-3.47ZM37,48.43,36.1,45,47,42.05l.91,3.47Z"/><path d="M10.6,15.32H3.94a.83.83,0,0,0-.83.83v6.66a.83.83,0,0,0,.83.83H10.6a.84.84,0,0,0,.84-.83V16.15A.84.84,0,0,0,10.6,15.32ZM9.77,22h-5V17h5Z"/></g></svg>