<svg xmlns="http://www.w3.org/2000/svg" viewBox="0 0 50 50"><defs><style>.cls-1{fill:none;stroke:#000;stroke-miterlimit:10;stroke-width:1.5px;}</style></defs><title>Prancheta 2</title><g id="Camada_2" data-name="Camada 2"><g id="Grupo_932" data-name="Grupo 932"><g id="Grupo_931" data-name="Grupo 931"><g id="Grupo_930" data-name="Grupo 930"><g id="Grupo_929" data-name="Grupo 929"><g id="Grupo_928" data-name="Grupo 928"><path id="Caminho_238" data-name="Caminho 238" d="M47.51,20.16,46.44,19,42.72,9a4.37,4.37,0,0,0-4.08-2.83H12A4.34,4.34,0,0,0,7.94,9L4.26,18.91,2.73,20.32a6,6,0,0,0-2.1,4.56V39.52A4.34,4.34,0,0,0,5,43.85H7.73a4.34,4.34,0,0,0,4.35-4.33V37.4H37.91v2.12a4.36,4.36,0,0,0,4.36,4.33H45a4.34,4.34,0,0,0,4.35-4.33v-15A6,6,0,0,0,47.51,20.16ZM9.86,9.69A2.25,2.25,0,0,1,12,8.23H38.61a2.29,2.29,0,0,1,2.12,1.46L44,18.44H6.61ZM10,39.52a2.27,2.27,0,0,1-2.27,2.25H5a2.25,2.25,0,0,1-2.27-2.25V36.79A4.21,4.21,0,0,0,5,37.4h5Zm37.29,0A2.26,2.26,0,0,1,45,41.77H42.27A2.28,2.28,0,0,1,40,39.52V37.4h5a4.21,4.21,0,0,0,2.27-.61Zm-2.22-4.21H5a2.24,2.24,0,0,1-2.27-2.22h0V24.88a3.92,3.92,0,0,1,1.38-3l0,0,1.42-1.34H45l1,1.08s0,0,.06,0a4,4,0,0,1,1.23,2.85v8.63h0a2.22,2.22,0,0,1-2.23,2.18Z"/></g></g></g></g><ellipse id="Elipse_145" data-name="Elipse 145" class="cls-1" cx="10.18" cy="28.21" rx="3.65" ry="3.42"/><ellipse id="Elipse_146" data-name="Elipse 146" class="cls-1" cx="39.34" cy="28.21" rx="3.65" ry="3.42"/></g></g></svg>