<svg xmlns="http://www.w3.org/2000/svg" viewBox="0 0 50 50"><defs><style>.cls-1{fill:#fff;}</style></defs><title>Prancheta 14</title><g id="_14" data-name="14"><path class="cls-1" d="M14.42,21.38,19,15.89A.73.73,0,1,0,17.86,15L14,19.66l-.86-1.39a.73.73,0,1,0-1.24.77l1.39,2.26A.72.72,0,0,0,14.42,21.38Z"/><path class="cls-1" d="M11.85,28.71,13.24,31a.73.73,0,0,0,1.18.08L19,25.56a.72.72,0,0,0-.1-1,.73.73,0,0,0-1,.09L14,29.33l-.86-1.39a.73.73,0,1,0-1.24.77Z"/><path class="cls-1" d="M11.85,38.44l1.39,2.26a.73.73,0,0,0,1.18.09L19,35.29a.72.72,0,0,0-.1-1,.73.73,0,0,0-1,.1L14,39.06l-.86-1.38a.73.73,0,0,0-1.24.76Z"/><path class="cls-1" d="M44.24,41.35a.73.73,0,0,0-.73.73v5.33a1.14,1.14,0,0,1-1.13,1.13H8.5a1.14,1.14,0,0,1-1.13-1.13V15.31a.73.73,0,1,0-1.46,0v32.1A2.59,2.59,0,0,0,8.5,50H42.38A2.59,2.59,0,0,0,45,47.41V42.08A.73.73,0,0,0,44.24,41.35Z"/><path class="cls-1" d="M42.38,5.64H38.8v-3a2.62,2.62,0,1,0-5.23,0v3H28.06v-3a2.62,2.62,0,1,0-5.24,0v3H17.31v-3a2.62,2.62,0,1,0-5.23,0v3H8.5A2.59,2.59,0,0,0,5.91,8.23V11.9a.73.73,0,0,0,1.46,0V8.23A1.13,1.13,0,0,1,8.5,7.11h3.58V8.27a2.62,2.62,0,1,0,5.23,0V7.11h5.51V8.27a2.62,2.62,0,1,0,5.24,0V7.11h5.51V8.27a2.62,2.62,0,1,0,5.23,0V7.11h3.58a1.13,1.13,0,0,1,1.13,1.12V38.66a.73.73,0,1,0,1.46,0V8.23a2.59,2.59,0,0,0-2.59-2.59ZM15.85,8.27a1.16,1.16,0,0,1-2.31,0V2.62a1.16,1.16,0,1,1,2.31,0Zm10.74,0a1.15,1.15,0,1,1-2.3,0V2.62a1.15,1.15,0,1,1,2.3,0Zm10.75,0a1.16,1.16,0,0,1-2.31,0V2.62a1.16,1.16,0,1,1,2.31,0Z"/><path class="cls-1" d="M22.09,22H37.52a2.3,2.3,0,1,0,0-4.59H22.09a2.3,2.3,0,0,0,0,4.59Zm0-3.12H37.52a.83.83,0,0,1,0,1.66H22.09a.83.83,0,0,1,0-1.66Z"/><path class="cls-1" d="M22.09,31.68H37.52a2.3,2.3,0,1,0,0-4.59H22.09a2.3,2.3,0,0,0,0,4.59Zm0-3.13H37.52a.83.83,0,1,1,0,1.66H22.09a.83.83,0,0,1,0-1.66Z"/><path class="cls-1" d="M22.09,41.37H37.52a2.3,2.3,0,1,0,0-4.59H22.09a2.3,2.3,0,0,0,0,4.59Zm0-3.13H37.52a.83.83,0,0,1,0,1.66H22.09a.83.83,0,1,1,0-1.66Z"/></g></svg>