<svg xmlns="http://www.w3.org/2000/svg" viewBox="0 0 50 50"><defs><style>.cls-1{fill:none;stroke:#000;stroke-miterlimit:10;stroke-width:2px;}</style></defs><title>Prancheta 4</title><g id="Camada_5" data-name="Camada 5"><g id="Grupo_884" data-name="Grupo 884"><path id="Caminho_213" data-name="Caminho 213" class="cls-1" d="M1.24,23.46V22.7a2.89,2.89,0,0,0,0-.29c.05-.39.07-.78.14-1.15a10.05,10.05,0,0,1,3.55-6,9.8,9.8,0,0,1,6.39-2.34H21.79l-.12.21L18.27,19a.36.36,0,0,1-.35.2H11.53a3.84,3.84,0,0,0-.83.09,4,4,0,0,0,.81,7.86h5.76A4.46,4.46,0,0,0,18.36,27a3,3,0,0,0,1.85-1.55c1.83-3.2,3.65-6.39,5.51-9.55a5.71,5.71,0,0,1,5.19-3h7.53a10.39,10.39,0,0,1,4,.8,10.26,10.26,0,0,1,1.73,18,9.64,9.64,0,0,1-5.54,1.73h-3.3a2.43,2.43,0,0,0-.6.05,3.25,3.25,0,0,0-2.18,1.55c-.57,1-1.17,2-1.74,3a.35.35,0,0,1-.33.19H23.69l-.24,0c.06-.1.1-.18.15-.25l1.86-3.21c.95-1.63,1.87-3.27,2.86-4.87a5.43,5.43,0,0,1,4.91-2.7h5c.25,0,.49,0,.74,0a4,4,0,0,0,3.49-4.42v-.07a4,4,0,0,0-3.9-3.43H32.05a2.92,2.92,0,0,0-2,.67,5.07,5.07,0,0,0-1.13,1.39c-1.81,3.13-3.61,6.27-5.45,9.38a5.34,5.34,0,0,1-4.82,2.79c-2.39,0-4.77,0-7.15,0a9.75,9.75,0,0,1-2.15-.22A10.16,10.16,0,0,1,3,28.89a10.09,10.09,0,0,1-1.7-4.67C1.3,24,1.27,23.71,1.24,23.46Z"/></g></g></svg>