<svg id="Camada_1" data-name="Camada 1" xmlns="http://www.w3.org/2000/svg" viewBox="0 0 50 50"><defs><style>.cls-1{fill:#f0592a;}</style></defs><path class="cls-1" d="M43.5,2.93a6.61,6.61,0,0,0-9.35,0L31.81,5.28,6.92,30.16l-.06.06,0,0-.1.12s0,0,0,0l-.07.1s0,0,0,0a.49.49,0,0,0,0,.11s0,0,0,0L1.06,47.28a1.29,1.29,0,0,0,.32,1.34,1.33,1.33,0,0,0,.94.39,2,2,0,0,0,.42-.07l16.6-5.54h0a.33.33,0,0,0,.12,0l0,0,.13-.07.12-.1,0,0s0,0,.05-.06L47.08,15.84a6.63,6.63,0,0,0,0-9.35ZM18.91,40.3,9.72,31.1l23-23,9.2,9.2ZM8.42,33.55l8,8-12.07,4ZM45.21,14l-1.4,1.41-9.2-9.2L36,4.79a4,4,0,0,1,5.6,0l3.6,3.59A4,4,0,0,1,45.21,14Z"/></svg>