<svg xmlns="http://www.w3.org/2000/svg" xmlns:xlink="http://www.w3.org/1999/xlink" viewBox="0 0 50 50"><defs><style>.cls-1,.cls-3{fill:none;}.cls-2{clip-path:url(#clip-path);}.cls-3{stroke:#000;stroke-miterlimit:10;stroke-width:2px;}.cls-4{fill:#fff;}</style><clipPath id="clip-path"><rect class="cls-1" x="0.9" y="5.79" width="49.1" height="36.9"/></clipPath></defs><title>Prancheta 5</title><g id="_5" data-name="5"><g class="cls-2"><rect class="cls-3" x="11.12" y="8.18" width="37.08" height="26.36"/><circle class="cls-4" cx="13.33" cy="42.69" r="10.75"/><circle class="cls-4" cx="13.3" cy="25.12" r="5.33"/><path d="M22.11,34a12.29,12.29,0,0,0-4.72-3,7.18,7.18,0,1,0-8.13,0A12.44,12.44,0,0,0,.9,42.77H2.84a10.48,10.48,0,1,1,21,0h2A12.32,12.32,0,0,0,22.11,34Zm-8.78-3.63a5.24,5.24,0,1,1,5.24-5.24A5.25,5.25,0,0,1,13.33,30.36Z"/><rect class="cls-3" x="28.6" y="28.8" width="14.93" height="5.49"/></g></g></svg>