<svg xmlns="http://www.w3.org/2000/svg" viewBox="0 0 50 50"><title>Prancheta 9</title><g id="_9" data-name="9"><path d="M47.21,8.5H2.79A2.54,2.54,0,0,0,.25,11V39A2.54,2.54,0,0,0,2.79,41.5H47.21A2.54,2.54,0,0,0,49.75,39V11A2.54,2.54,0,0,0,47.21,8.5Zm-1,1.9L26.46,25.25a2.64,2.64,0,0,1-2.92,0L3.74,10.4ZM35.68,26.23,46.47,39.56s0,0,0,0h-43s0,0,0,0L14.32,26.23A.95.95,0,1,0,12.84,25L2.15,38.23V11.59L22.4,26.78a4.53,4.53,0,0,0,5.2,0L47.85,11.59V38.23L37.16,25a1,1,0,0,0-1.34-.15A1,1,0,0,0,35.68,26.23Z"/></g></svg>