<svg id="Camada_1" data-name="Camada 1" xmlns="http://www.w3.org/2000/svg" viewBox="0 0 50 50"><defs><style>.cls-1{fill:#ee5929;}</style></defs><title>Prancheta 1</title><path class="cls-1" d="M29.55,5.39A14.87,14.87,0,0,1,41,11.12a1.82,1.82,0,1,0,2.79-2.33,18.44,18.44,0,0,0-14.23-7c-9.95,0-17.48,8.3-19.44,18.15H7.76a1.82,1.82,0,0,0-1.82,1.82,1.8,1.8,0,0,0,1.82,1.79H9.64c0,.61-.06,1.23-.06,1.84a27.88,27.88,0,0,0,.53,5.44H7.76a1.82,1.82,0,0,0,0,3.64H11.1C14,42.67,21,49,29.55,49a18.47,18.47,0,0,0,14.23-7A1.82,1.82,0,1,0,41,39.6a14.9,14.9,0,0,1-11.44,5.73c-6.65,0-12-4.77-14.56-10.89H29.55a1.82,1.82,0,0,0,0-3.64H13.82a24.38,24.38,0,0,1-.61-5.44c0-.61,0-1.22.07-1.82H29.55a1.82,1.82,0,0,0,0-3.63H13.83C15.65,12,21.71,5.39,29.55,5.39Z"/></svg>