<svg id="Camada_1" data-name="Camada 1" xmlns="http://www.w3.org/2000/svg" viewBox="0 0 50 50"><title>Prancheta 3</title><path d="M48.34,31a.7.7,0,0,0,.7-.7v-15a3.51,3.51,0,0,0-3.51-3.51H45V2.24a.7.7,0,0,0-.7-.7H21.35a.7.7,0,0,0-.7.7v9.6H18v-.31A2.59,2.59,0,0,0,15.4,9H9.48A2.59,2.59,0,0,0,6.9,11.53v.31H4.68a3.51,3.51,0,0,0-3.51,3.51v20a.7.7,0,0,0,.7.71.71.71,0,0,0,.71-.71v-20a2.11,2.11,0,0,1,2.1-2.11H6.9V45.12H4.68A2.11,2.11,0,0,1,2.58,43v-4.8a.7.7,0,0,0-.71-.7.7.7,0,0,0-.7.7V43a3.51,3.51,0,0,0,3.51,3.51H6.9v.31a2.59,2.59,0,0,0,2.58,2.58H15.4A2.59,2.59,0,0,0,18,46.83v-.31H45.53A3.51,3.51,0,0,0,49,43V33.15a.7.7,0,0,0-.7-.7.7.7,0,0,0-.71.7V43a2.11,2.11,0,0,1-2.1,2.11H18V25.38a.71.71,0,1,0-1.41,0V46.83A1.17,1.17,0,0,1,15.4,48H9.48a1.17,1.17,0,0,1-1.17-1.17V11.53a1.17,1.17,0,0,1,1.17-1.17H15.4a1.17,1.17,0,0,1,1.17,1.17v11a.71.71,0,0,0,1.41,0V13.24H45.53a2.11,2.11,0,0,1,2.1,2.11v15a.7.7,0,0,0,.71.7ZM22.05,2.94H43.56v8.9H22.05Z"/><path d="M41.53,21.9V17.76a1.64,1.64,0,0,0-1.64-1.64H25.13a1.65,1.65,0,0,0-1.64,1.64V21.9a1.65,1.65,0,0,0,1.64,1.64H39.89A1.64,1.64,0,0,0,41.53,21.9Zm-1.4,0a.23.23,0,0,1-.24.23H25.13a.23.23,0,0,1-.23-.23V17.76a.23.23,0,0,1,.23-.23H39.89a.23.23,0,0,1,.24.23Z"/><path d="M27.63,27.11H24.9a.7.7,0,0,0,0,1.4h2.73a.7.7,0,1,0,0-1.4Z"/><path d="M33.88,27.11H31.15a.7.7,0,0,0-.7.7.7.7,0,0,0,.7.71h2.73a.7.7,0,0,0,.7-.71A.7.7,0,0,0,33.88,27.11Z"/><path d="M40.12,27.11H37.39a.7.7,0,0,0,0,1.4h2.73a.7.7,0,1,0,0-1.4Z"/><path d="M27.63,31H24.9a.71.71,0,0,0-.7.71.7.7,0,0,0,.7.7h2.73a.7.7,0,0,0,.71-.7A.71.71,0,0,0,27.63,31Z"/><path d="M33.88,31.05H31.15a.7.7,0,0,0,0,1.4h2.73a.7.7,0,0,0,0-1.4Z"/><path d="M40.12,31H37.39a.7.7,0,0,0-.7.71.7.7,0,0,0,.7.7h2.73a.7.7,0,0,0,.7-.7A.7.7,0,0,0,40.12,31Z"/><path d="M27.63,35H24.9a.71.71,0,0,0,0,1.41h2.73a.71.71,0,1,0,0-1.41Z"/><path d="M33.88,35H31.15a.7.7,0,1,0,0,1.4h2.73a.7.7,0,0,0,0-1.4Z"/><path d="M40.12,35H37.39a.71.71,0,0,0,0,1.41h2.73a.71.71,0,0,0,0-1.41Z"/><path d="M27.63,38.92H24.9a.71.71,0,0,0,0,1.41h2.73a.71.71,0,1,0,0-1.41Z"/><path d="M33.88,38.93H31.15a.7.7,0,0,0,0,1.4h2.73a.7.7,0,1,0,0-1.4Z"/><path d="M40.12,38.92H37.39a.71.71,0,0,0,0,1.41h2.73a.71.71,0,0,0,0-1.41Z"/></svg>