<svg xmlns="http://www.w3.org/2000/svg" viewBox="0 0 50 50"><title>Prancheta 16</title><g id="_16" data-name="16"><path d="M.3,13.27a1,1,0,0,0,.94.61,1,1,0,0,0,.58-1.73,1,1,0,0,0-1.14-.07A1,1,0,0,0,.3,13.27Z"/><path d="M40.53,20.76c.1-.25.19-.49.27-.74a13.84,13.84,0,0,0,.67-5.11,11.91,11.91,0,0,0-3.87-8,11.77,11.77,0,0,0-7.89-3.35,13.85,13.85,0,0,0-8.84,3.65.3.3,0,0,1-.4,0c-1.6-1.37-4.87-3.66-8.8-3.66a12.18,12.18,0,0,0-9,4.58,1,1,0,0,0,.14,1.38,1,1,0,0,0,1.37-.14,10.18,10.18,0,0,1,7.53-3.86c3.31,0,6.14,2,7.54,3.18a2.25,2.25,0,0,0,2.95,0,11.88,11.88,0,0,1,7.55-3.16A10.42,10.42,0,0,1,39.52,15a12,12,0,0,1-.58,4.41c-.11.34-.23.67-.37,1-.39,0-.79-.05-1.19-.05A12.69,12.69,0,0,0,24.75,33.08c0,.33,0,.66,0,1-1,.79-1.75,1.43-2.41,2a2.64,2.64,0,0,1-3.42,0c-.88-.75-2-1.69-3.25-2.68-4.41-3.59-10.44-8.51-11.89-11A13.68,13.68,0,0,1,2,17.78c0-.18-.06-.36-.08-.54A1,1,0,0,0,0,17.49l.09.63a15.67,15.67,0,0,0,2,5.27C3.77,26.16,9.7,31,14.47,34.88c1.21,1,2.36,1.92,3.23,2.66a4.59,4.59,0,0,0,5.94,0c.44-.37.94-.79,1.52-1.26A12.64,12.64,0,1,0,40.53,20.76ZM37.38,43.84A10.77,10.77,0,1,1,48.05,33.08,10.73,10.73,0,0,1,37.38,43.84Z"/><path d="M42.05,29.72H40.71V28.36a2.17,2.17,0,0,0-2.16-2.18H36.2A2.17,2.17,0,0,0,34,28.36v1.36H32.7a2.17,2.17,0,0,0-2.16,2.17v2.37a2.17,2.17,0,0,0,2.16,2.17H34v1.36A2.17,2.17,0,0,0,36.2,40h2.35a2.17,2.17,0,0,0,2.16-2.18V36.43h1.34a2.17,2.17,0,0,0,2.17-2.17V31.89A2.17,2.17,0,0,0,42.05,29.72Zm.21,4.54a.21.21,0,0,1-.21.22H39.74a1,1,0,0,0-1,1v2.34a.22.22,0,0,1-.21.22H36.2a.22.22,0,0,1-.21-.22V35.45a1,1,0,0,0-1-1H32.7a.21.21,0,0,1-.21-.22V31.89a.21.21,0,0,1,.21-.22H35a1,1,0,0,0,1-1V28.36a.22.22,0,0,1,.21-.22h2.35a.22.22,0,0,1,.21.22V30.7a1,1,0,0,0,1,1h2.31a.21.21,0,0,1,.21.22Z"/></g></svg>