<svg xmlns="http://www.w3.org/2000/svg" viewBox="0 0 50 50"><title>Prancheta 8</title><g id="_8" data-name="8"><path d="M49.22,20.37,25.76,3.19a1.26,1.26,0,0,0-1.52,0L.78,20.37A1.27,1.27,0,0,0,.5,22.16a1.28,1.28,0,0,0,1.8.28L25,5.82,47.7,22.44a1.28,1.28,0,0,0,.76.25,1.28,1.28,0,0,0,.76-2.32Z"/><path d="M43,22.73A1.29,1.29,0,0,0,41.72,24V44.49H31.43V33.32a6.43,6.43,0,1,0-12.86,0V44.49H8.28V24a1.29,1.29,0,1,0-2.57,0V45.78A1.28,1.28,0,0,0,7,47.06H19.85a1.29,1.29,0,0,0,1.29-1.18V33.32a3.86,3.86,0,0,1,7.72,0V45.88a1.29,1.29,0,0,0,1.28,1.18H43a1.28,1.28,0,0,0,1.28-1.28V24A1.28,1.28,0,0,0,43,22.73Z"/></g></svg>