<svg xmlns="http://www.w3.org/2000/svg" viewBox="0 0 50 50"><defs><style>.cls-1{fill:none;stroke:#000;stroke-miterlimit:10;stroke-width:2px;}</style></defs><title>Prancheta 3</title><g id="Camada_4" data-name="Camada 4"><g id="Grupo_876" data-name="Grupo 876"><g id="_0Wp4Qj.tif" data-name=" 0Wp4Qj.tif"><g id="Grupo_875" data-name="Grupo 875"><path id="Caminho_206" data-name="Caminho 206" d="M24.84,28c2.22-4.56,4.32-8.81,6.33-13.09.8-1.68,1.69-3.07,3.85-2.66s2.06,2.24,2.06,3.86c0,6.22,0,12.43,0,18.65,0,1.52,0,3.15-2.12,3.08s-2-1.71-2-3.22a114.14,114.14,0,0,0-.53-13.46c-1.31,2.67-2.5,5.4-4,8-1,1.69-2.18,4.25-3.59,4.47-2.61.41-2.67-2.85-3.7-4.59-1.47-2.5-2.6-5.2-4.44-7.76v6.24c0,2.42,0,4.84,0,7.26,0,1.58-.1,3.09-2.17,3.09s-2-1.51-2-2.95V32.07c0-5.18,0-10.36,0-15.54,0-1.65-.45-3.66,1.93-4.22s3.2,1,4,2.73C20.51,19.26,22.59,23.42,24.84,28Z"/></g></g><circle id="Elipse_144" data-name="Elipse 144" class="cls-1" cx="24.82" cy="25.04" r="23.54"/></g></g></svg>