<svg xmlns="http://www.w3.org/2000/svg" viewBox="0 0 50 50"><title>Prancheta 17</title><g id="_17" data-name="17"><path d="M41.66,27.83l-7.47-11.7a3.32,3.32,0,0,0-.31-6l2.26-7.9a1,1,0,0,0-.25-1,3.84,3.84,0,0,0-5.45,0,1.89,1.89,0,0,1-1.35.55,1.86,1.86,0,0,1-1.35-.56h0a3.87,3.87,0,0,0-5.45,0l0,0a1.91,1.91,0,0,1-2.69,0h0a3.84,3.84,0,0,0-5.45,0,1,1,0,0,0-.25,1l2.26,7.9a3.32,3.32,0,0,0-.31,6L8.34,27.83A14.49,14.49,0,0,0,20.56,50.1h8.88A14.49,14.49,0,0,0,41.66,27.83ZM18.18,2.62h0a3.86,3.86,0,0,0,5.45,0l0,0a1.92,1.92,0,0,1,2.7,0h0a3.87,3.87,0,0,0,5.46,0,1.9,1.9,0,0,1,2.26-.33L31.92,9.86H18.09L15.92,2.29a1.92,1.92,0,0,1,2.26.33Zm22.25,39a12.35,12.35,0,0,1-11,6.51H20.56A12.54,12.54,0,0,1,10,28.88l7.9-12.37h2.72a1,1,0,0,0,0-2H17.35a1.37,1.37,0,1,1,0-2.73h15.3a1.37,1.37,0,1,1,0,2.73H29.39a1,1,0,0,0,0,2h2.72L40,28.88a12.35,12.35,0,0,1,.42,12.76Z"/><path d="M26.72,32,26,31.73V27.3a4.05,4.05,0,0,1,1.12.52,1,1,0,0,0,1.36-.19,1,1,0,0,0-.19-1.37,6,6,0,0,0-2.29-1v-1a1,1,0,0,0-2,0v1l-.5.13a3.92,3.92,0,0,0-2.68,3.06A3.43,3.43,0,0,0,22,31.87,9,9,0,0,0,24,33v5.67a3.93,3.93,0,0,1-2.14-.79,1,1,0,0,0-1.07,1.64A5.79,5.79,0,0,0,24,40.66v1a1,1,0,1,0,2,0V40.56a4.72,4.72,0,0,0,3.59-3.84A4.13,4.13,0,0,0,26.72,32Zm-3.55-1.66a1.53,1.53,0,0,1-.41-1.5A2,2,0,0,1,24,27.3v3.57A6.58,6.58,0,0,1,23.17,30.34Zm4.47,6.06A2.79,2.79,0,0,1,26,38.51V33.8l.09,0A2.21,2.21,0,0,1,27.64,36.4Z"/><path d="M25,16.51a1,1,0,1,0-.69-.29,1,1,0,0,0,.69.29Z"/></g></svg>