<svg id="Camada_1" data-name="Camada 1" xmlns="http://www.w3.org/2000/svg" viewBox="0 0 50 50"><defs><style>.cls-1{fill:none;stroke:#000;stroke-miterlimit:10;stroke-width:1.5px;}</style></defs><title>Prancheta 4</title><path d="M25.21.72c-9.38,0-17,8-17,17.78,0,9.55,15.72,29.56,16.39,30.41a.79.79,0,0,0,.6.29.77.77,0,0,0,.59-.29c.67-.85,16.39-20.86,16.39-30.41C42.19,8.68,34.59.72,25.21.72Zm0,46.39C22.3,43.31,9.77,26.47,9.77,18.5c0-8.92,6.91-16.15,15.44-16.16S40.64,9.58,40.65,18.5C40.65,26.47,28.11,43.31,25.21,47.11Z"/><circle class="cls-1" cx="25.27" cy="17.81" r="7.92"/></svg>