<svg xmlns="http://www.w3.org/2000/svg" viewBox="0 0 50 50"><title>Prancheta 18</title><g id="_18" data-name="18"><path d="M16.79.1c-1.91,0-3.72,1.36-5.09,3.81a16.38,16.38,0,0,0-1.93,7.74,7.46,7.46,0,0,0,3.76,6.57,2.34,2.34,0,0,1,1.23,2.15l-.2,4.15a.74.74,0,1,0,1.47.07l.19-4.15a3.78,3.78,0,0,0-2-3.5,6,6,0,0,1-3-5.29,14.78,14.78,0,0,1,1.75-7c1.08-1.94,2.46-3.06,3.8-3.06s2.72,1.12,3.8,3.06a14.78,14.78,0,0,1,1.75,7,6,6,0,0,1-3,5.29,3.78,3.78,0,0,0-2,3.5l1.22,26.32a1.78,1.78,0,0,1-1.79,1.87,1.78,1.78,0,0,1-1.3-.55A1.8,1.8,0,0,1,15,46.76l.89-19.23a.73.73,0,0,0-.7-.77.72.72,0,0,0-.76.7l-.9,19.23a3.26,3.26,0,1,0,6.52,0L18.82,20.37a2.34,2.34,0,0,1,1.23-2.15,7.46,7.46,0,0,0,3.76-6.57,16.38,16.38,0,0,0-1.93-7.74C20.51,1.46,18.7.1,16.79.1Z"/><path d="M36.74,18.25A6.72,6.72,0,0,0,40.22,12L39.7,1.92a1.93,1.93,0,0,0-3.85.15l.2,8.73a.34.34,0,0,1-.1.27.37.37,0,0,1-.26.11.36.36,0,0,1-.37-.36l-.09-9a1.75,1.75,0,0,0-3.49,0l-.09,9a.37.37,0,0,1-.74,0L31.11,2A1.87,1.87,0,0,0,30.58.67,1.85,1.85,0,0,0,29.24.1a1.87,1.87,0,0,0-1.87,1.78L26.84,12a6.68,6.68,0,0,0,3.48,6.24,2.3,2.3,0,0,1,1.17,2.14L30.77,36a.74.74,0,0,0,1.47.07L33,20.47A3.79,3.79,0,0,0,31,17,5.22,5.22,0,0,1,28.3,12.1L28.83,2a.41.41,0,0,1,.41-.38.44.44,0,0,1,.29.12.41.41,0,0,1,.11.29l-.2,8.79A1.84,1.84,0,0,0,30,12.1a1.82,1.82,0,0,0,1.31.55,1.85,1.85,0,0,0,1.84-1.82l.09-9a.27.27,0,0,1,.27-.27.28.28,0,0,1,.28.27l.09,9a1.84,1.84,0,1,0,3.67-.06L37.32,2a.46.46,0,0,1,.13-.32.45.45,0,0,1,.78.29l.53,10.1A5.21,5.21,0,0,1,36,17a3.79,3.79,0,0,0-1.94,3.5l1.22,26.3a1.81,1.81,0,0,1-.5,1.33,1.77,1.77,0,0,1-1.32.54,1.75,1.75,0,0,1-1.25-.56,1.89,1.89,0,0,1-.51-1.37L32.1,39a.74.74,0,1,0-1.47-.07l-.36,7.72a3.37,3.37,0,0,0,.9,2.44,3.22,3.22,0,0,0,2.3,1h.06a3.27,3.27,0,0,0,3.26-3.41l-1.22-26.3a2.3,2.3,0,0,1,1.17-2.14Z"/></g></svg>