<svg xmlns="http://www.w3.org/2000/svg" viewBox="0 0 50 50"><defs><style>.cls-1{fill:#fff;}</style></defs><title>Prancheta 10</title><g id="_10" data-name="10"><path d="M48.87,41.23H46.42a2.69,2.69,0,0,0,.3-1.23V20.06a.74.74,0,0,0-.74-.74.74.74,0,0,0-.73.74V40A1.23,1.23,0,0,1,44,41.23H5.79A1.22,1.22,0,0,1,4.57,40V14.52a1.22,1.22,0,0,1,1.22-1.23H25.3a1.62,1.62,0,0,0-.09,1.47H6.77A.74.74,0,0,0,6,15.5V31a.74.74,0,0,0,.73.74A.74.74,0,0,0,7.51,31V16.23H19.58c-.09.4-.21.9-.26,1.27a.18.18,0,0,1-.11.14L18,18.35a.25.25,0,0,1-.19,0,15,15,0,0,0-1.44-.46,1.68,1.68,0,0,0-1.91.78l-.67,1.15a1.7,1.7,0,0,0,.28,2.05c.32.31.77.73,1.12,1a.21.21,0,0,1,.08.17v1.41a.19.19,0,0,1-.08.16c-.35.28-.8.71-1.12,1a1.71,1.71,0,0,0-.28,2.05l.67,1.15a1.67,1.67,0,0,0,1.91.78,12.66,12.66,0,0,0,1.44-.46.21.21,0,0,1,.19,0l1.22.71a.21.21,0,0,1,.11.14,13.66,13.66,0,0,0,.31,1.47,1.69,1.69,0,0,0,1.64,1.27H22.6a1.7,1.7,0,0,0,1.64-1.27A14.19,14.19,0,0,0,24.55,30a.21.21,0,0,1,.11-.14l1.23-.71a.22.22,0,0,1,.18,0,12.66,12.66,0,0,0,1.44.46,1.67,1.67,0,0,0,1.91-.78l.67-1.15a1.68,1.68,0,0,0-.28-2.05c-.32-.31-.77-.73-1.12-1a.19.19,0,0,1-.08-.16V23.07a.21.21,0,0,1,.08-.17c.35-.28.8-.71,1.12-1a1.7,1.7,0,0,0,.28-2.05l-.67-1.15a1.68,1.68,0,0,0-1.91-.78,15,15,0,0,0-1.44.46.19.19,0,0,1-.18,0l-1.23-.71a.18.18,0,0,1-.11-.14,12.46,12.46,0,0,0-.26-1.27h1.76a1.67,1.67,0,0,0,1.84.66,15,15,0,0,0,1.44-.46.19.19,0,0,1,.18,0l1.23.7a.21.21,0,0,1,.11.15,12,12,0,0,0,.31,1.47A1.69,1.69,0,0,0,32.8,20h1.33a1.71,1.71,0,0,0,1.64-1.27c.1-.43.25-1,.31-1.47a.21.21,0,0,1,.11-.15l1.22-.7a.25.25,0,0,1,.19,0,15,15,0,0,0,1.44.46,1.67,1.67,0,0,0,1.83-.66h1.44V38.29H7.51V34.2a.74.74,0,0,0-.74-.73A.73.73,0,0,0,6,34.2V39a.74.74,0,0,0,.73.74H43a.73.73,0,0,0,.52-.22.71.71,0,0,0,.22-.52V15.5a.75.75,0,0,0-.74-.74H41.72a1.76,1.76,0,0,0-.09-1.47H44a1.23,1.23,0,0,1,1.23,1.23v2.42a.73.73,0,0,0,.73.73.74.74,0,0,0,.74-.73V14.52a2.7,2.7,0,0,0-2.7-2.7H40.15a.24.24,0,0,1,0-.08V10.33a.18.18,0,0,1,.08-.16c.35-.28.8-.71,1.11-1a1.7,1.7,0,0,0,.29-2L40.94,6A1.67,1.67,0,0,0,39,5.18a12.06,12.06,0,0,0-1.44.46.21.21,0,0,1-.19,0l-1.22-.71a.21.21,0,0,1-.11-.15c-.06-.44-.21-1-.31-1.47A1.7,1.7,0,0,0,34.12,2H32.79a1.7,1.7,0,0,0-1.64,1.26,14.76,14.76,0,0,0-.31,1.47.21.21,0,0,1-.11.15l-1.22.71a.23.23,0,0,1-.18,0,12.06,12.06,0,0,0-1.44-.46A1.68,1.68,0,0,0,26,6l-.66,1.15a1.68,1.68,0,0,0,.28,2.05c.32.31.77.73,1.12,1a.18.18,0,0,1,.08.16v1.41a.19.19,0,0,1,0,.08h-21a2.69,2.69,0,0,0-2.69,2.7V40a2.69,2.69,0,0,0,.29,1.23H.94A1.14,1.14,0,0,0-.19,42.36v2A3.28,3.28,0,0,0,3.1,47.6H37.44a.74.74,0,1,0,0-1.47H3.1a1.82,1.82,0,0,1-1.82-1.81V42.7H19.66v.44a1.9,1.9,0,0,0,1.91,1.91h6.67a1.9,1.9,0,0,0,1.91-1.91V42.7H48.53v1.62a1.81,1.81,0,0,1-1.81,1.81H40.61a.74.74,0,1,0,0,1.47h6.11A3.28,3.28,0,0,0,50,44.32v-2a1.14,1.14,0,0,0-1.13-1.13ZM26.61,8.1a.23.23,0,0,1,0-.27l.67-1.14a.2.2,0,0,1,.24-.1c.55.15,1,.3,1.29.41a1.63,1.63,0,0,0,1.47-.11l1.23-.7A1.7,1.7,0,0,0,32.3,5c0-.29.14-.75.28-1.31a.22.22,0,0,1,.21-.17h1.33a.21.21,0,0,1,.21.17c.14.55.24,1,.28,1.31a1.69,1.69,0,0,0,.82,1.23l1.23.7A1.66,1.66,0,0,0,38.13,7a12.43,12.43,0,0,1,1.28-.41.21.21,0,0,1,.25.1l.67,1.14a.26.26,0,0,1,0,.27c-.42.4-.77.71-1,.9a1.64,1.64,0,0,0-.65,1.32v1.41a1.66,1.66,0,0,0,.65,1.33c.23.18.58.5,1,.9a.25.25,0,0,1,0,.26l-.67,1.15a.21.21,0,0,1-.25.1c-.55-.16-1-.31-1.28-.41a1.66,1.66,0,0,0-1.47.1l-1.23.71a1.67,1.67,0,0,0-.82,1.23h0c0,.29-.15.75-.28,1.31a.22.22,0,0,1-.21.17H32.79a.21.21,0,0,1-.21-.17,11,11,0,0,1-.28-1.31,1.68,1.68,0,0,0-.83-1.23l-1.22-.71a1.81,1.81,0,0,0-.84-.22,1.68,1.68,0,0,0-.63.12c-.28.1-.74.25-1.29.41a.2.2,0,0,1-.24-.1l-.13-.23h0l-.52-.91a.21.21,0,0,1,0-.26c.41-.4.77-.72,1-.9a1.7,1.7,0,0,0,.65-1.33V10.32A1.65,1.65,0,0,0,27.63,9a11.72,11.72,0,0,1-1-.9Zm2.07,35a.44.44,0,0,1-.44.44H21.57a.44.44,0,0,1-.44-.44V42.7h7.55Z"/><path d="M33.46,15a4,4,0,1,0-4-4A4,4,0,0,0,33.46,15Zm-1.14-1.75h2.29a2.48,2.48,0,0,1-2.29,0ZM33.46,8.5A2.54,2.54,0,0,1,36,11a2.62,2.62,0,0,1-.13.79H31a2.52,2.52,0,0,1-.13-.79A2.55,2.55,0,0,1,33.46,8.5Z"/><path d="M17.92,23.77a4,4,0,1,0,4-4,4,4,0,0,0-4,4Zm6.55,0a2.54,2.54,0,1,1-2.53-2.53,2.53,2.53,0,0,1,2.53,2.53Z"/><path class="cls-1" d="M33.45,13.58A2.55,2.55,0,1,0,30.9,11,2.55,2.55,0,0,0,33.45,13.58Zm-.72-1.11h1.46a1.64,1.64,0,0,1-.73.18,1.58,1.58,0,0,1-.73-.18Zm.72-3.05A1.62,1.62,0,0,1,35.07,11a1.69,1.69,0,0,1-.08.5H31.92a2.08,2.08,0,0,1-.07-.5,1.6,1.6,0,0,1,1.6-1.61Z"/><rect class="cls-1" x="32.18" y="12.27" width="2.27" height="0.46"/><rect class="cls-1" x="10.01" y="17.15" width="20.73" height="16.87"/><rect class="cls-1" x="19.04" y="16.23" width="5.74" height="1.25"/></g></svg>