<svg id="Camada_1" data-name="Camada 1" xmlns="http://www.w3.org/2000/svg" viewBox="0 0 50 50"><title>Prancheta 5</title><path d="M25,.73C14.71.73.65,8.5.65,25.08.65,41.24,14.18,49.44,25,49.44c18.58,0,24.36-16.27,24.36-24.36C49.36,13.15,40.23.73,25,.73ZM19.36,3c-2.55,2.17-4.66,5.75-6,10.2A22.74,22.74,0,0,1,8.52,9.38,22.73,22.73,0,0,1,19.36,3ZM7.47,10.55a24.35,24.35,0,0,0,5.44,4.23,40.74,40.74,0,0,0-1.24,9.52H2.24A22.65,22.65,0,0,1,7.47,10.55Zm0,29.07A22.61,22.61,0,0,1,2.24,25.87h9.43a40.58,40.58,0,0,0,1.24,9.51A24.85,24.85,0,0,0,7.47,39.62Zm1,1.18A22.79,22.79,0,0,1,13.34,37c1.36,4.44,3.47,8,6,10.21A23,23,0,0,1,8.52,40.8Zm15.7,7c-4.09-.52-7.61-5.08-9.51-11.62a23,23,0,0,1,9.51-2.45V47.81Zm0-15.63a24.43,24.43,0,0,0-9.91,2.46,41.35,41.35,0,0,1-1.08-8.77h11v6.31Zm0-7.88h-11a41.52,41.52,0,0,1,1.08-8.78A24.53,24.53,0,0,0,24.22,18Zm0-7.88A22.64,22.64,0,0,1,14.71,14c1.9-6.55,5.42-11.1,9.51-11.62Zm18.31-5.87A22.66,22.66,0,0,1,47.77,24.3H38.35a41.75,41.75,0,0,0-1.24-9.52A24.53,24.53,0,0,0,42.53,10.55Zm-1-1.18a22.55,22.55,0,0,1-4.83,3.84c-1.36-4.44-3.47-8-6-10.2A22.94,22.94,0,0,1,41.49,9.37Zm-15.7-7c4.08.52,7.6,5.08,9.5,11.62a22.71,22.71,0,0,1-9.5,2.44Zm0,15.63a24.45,24.45,0,0,0,9.91-2.47,41.52,41.52,0,0,1,1.08,8.78h-11Zm0,7.88h11a41.35,41.35,0,0,1-1.08,8.77,24.27,24.27,0,0,0-9.91-2.46Zm0,21.94V33.74a22.72,22.72,0,0,1,9.5,2.45C33.39,42.74,29.87,47.29,25.79,47.81Zm4.86-.66c2.54-2.17,4.65-5.76,6-10.2a22.55,22.55,0,0,1,4.83,3.84A22.86,22.86,0,0,1,30.65,47.15Zm11.88-7.53a24.28,24.28,0,0,0-5.42-4.24,41.74,41.74,0,0,0,1.24-9.51h9.42A22.68,22.68,0,0,1,42.53,39.62Z"/></svg>