<svg xmlns="http://www.w3.org/2000/svg" viewBox="0 0 50 50"><title>Prancheta 15</title><g id="_15" data-name="15"><path d="M4.62,15.17A1.51,1.51,0,0,1,4.7,15c.27-2.54.26-2.6,2.76-3.23,3.24-.82,6.49-1.6,9.76-2.28A8.82,8.82,0,0,1,25,11.17c3.15-2.71,6.74-2.06,10.33-1.28,2.06.45,2.06.47,3.14-1.39.8-1.38,1.56-2.75,2.38-4.11a2.37,2.37,0,0,1,3.55-1c.35.18.7.39,1,.61a2.32,2.32,0,0,1,.91,3.34c-.84,1.51-1.71,3-2.66,4.65,2.06.26,1.36,1.89,1.65,3.14.6.07,1.21.17,1.82.18.77,0,1.08.39,1.12,1.16.17,3.49.37,7,.54,10.48.31,5.92.63,11.87.93,17.8.07,1.54-.1,1.69-1.6,1.52l-17.71-2c-.52-.06-.89,0-1.19.54a3,3,0,0,1-2.73,1.61c-1,0-2,0-3,0a3,3,0,0,1-2.83-1.63.91.91,0,0,0-1.11-.52l-18,2.08c-1.17.13-1.45-.09-1.39-1.3.42-8.33.87-16.63,1.31-25,.06-1.17.15-2.34.17-3.53,0-.8.34-1.21,1.15-1.22A13.11,13.11,0,0,0,4.62,15.17ZM24.09,39.92a2.08,2.08,0,0,0,.08-.45c0-8.75,0-17.52,0-26.27a1.57,1.57,0,0,0-.59-1,6.22,6.22,0,0,0-5.17-1.25c-3.77.8-7.53,1.73-11.3,2.59-.57.13-.7.44-.74,1-.28,5.08-.58,10.13-.86,15.2-.16,3.27-.29,6.56-.44,9.83,0,.62-.08,1.23-.11,1.94L6,41.18c2.2-.52,4.39-1.11,6.6-1.52C16.44,39,20.27,37.62,24.09,39.92Zm1.7-.06a2.37,2.37,0,0,0,.46-.14,8.78,8.78,0,0,1,6-.93c2,.33,4,.67,5.93,1.07,2.23.47,4.46,1,6.8,1.57-.06-1-.09-1.92-.15-2.85-.43-8-.84-16-1.28-24a3.28,3.28,0,0,0-.37-1c-.28.22-.67.39-.84.67-1.75,3-3.46,6-5.2,9a14.29,14.29,0,0,1-2,3.1,50.73,50.73,0,0,1-4.72,3.91c-.26.2-.85.37-1,.24A1.33,1.33,0,0,1,29,29.44c.2-1.64.45-3.25.8-4.85a10.09,10.09,0,0,1,1-2.75c1.68-3,3.44-6,5.19-9,.17-.28.31-.58.54-1-2.34-.46-4.54-1.2-6.84-.92a12.37,12.37,0,0,0-2.94,1,1.59,1.59,0,0,0-1,1.71c0,8.41,0,16.85,0,25.27ZM45.43,17c0,.45,0,.82,0,1.17Q46,30,46.67,41.72c.08,1.51-.2,1.75-1.71,1.41-4.1-.91-8.21-1.83-12.34-2.67-2.6-.54-5-.22-7,1.8a.76.76,0,0,1-1.22,0,7.11,7.11,0,0,0-6.88-1.82c-4.18.84-8.34,1.79-12.52,2.7-1.49.33-1.77.09-1.68-1.43Q3.93,29.81,4.53,18c0-.34,0-.65,0-1.06L3.26,17c-.48,9.25-1,18.41-1.44,27.71l3.43-.38c5-.57,10.09-1.17,15.13-1.76.83-.09,1.45,0,1.58,1a1.37,1.37,0,0,0,1.52,1.21h3a1.31,1.31,0,0,0,1.47-1.13c.15-1.06.73-1.21,1.64-1.1q6,.72,12,1.41L48,44.7c0-.43,0-.73,0-1-.45-8.62-.91-17.24-1.32-25.86C46.69,16.82,46.23,16.84,45.43,17Zm-5-8.62q-4,6.86-7.77,13.47c.91.52,1.75,1,2.62,1.49,2.55-4.43,5.15-8.9,7.75-13.44ZM41.23,7c.91.52,1.73,1,2.52,1.47,1.75-2.21,1.71-2.71-.2-3.6-.06,0-.11-.1-.17-.08-.33.08-.8.06-1,.28A12.7,12.7,0,0,0,41.23,7ZM30.9,27.88c1.06-.86,2-1.54,2.78-2.32a1,1,0,0,0,.1-.95,3.84,3.84,0,0,0-1.42-.8.91.91,0,0,0-.8.37C31.29,25.31,31.14,26.49,30.9,27.88Z"/></g></svg>