<svg id="Camada_1" data-name="Camada 1" xmlns="http://www.w3.org/2000/svg" viewBox="0 0 50 50"><defs><style>.cls-1{fill:none;stroke:#000;stroke-miterlimit:10;stroke-width:1.5px;}</style></defs><title>Prancheta 1</title><g id="Grupo_949" data-name="Grupo 949"><g id="Grupo_948" data-name="Grupo 948"><g id="Grupo_936" data-name="Grupo 936"><g id="Grupo_935" data-name="Grupo 935"><g id="Grupo_934" data-name="Grupo 934"><g id="Grupo_933" data-name="Grupo 933"><path id="Caminho_239" data-name="Caminho 239" d="M47.57,23.45,46.5,22.32,42.75,12.23a4.38,4.38,0,0,0-4.09-2.85H11.91a4.38,4.38,0,0,0-4.09,2.85l-3.7,10L2.59,23.62A6,6,0,0,0,.47,28.19V42.9a4.38,4.38,0,0,0,4.38,4.36H7.61A4.37,4.37,0,0,0,12,42.9V40.77h26V42.9a4.38,4.38,0,0,0,4.38,4.36h2.76a4.38,4.38,0,0,0,4.37-4.36V27.81A6.08,6.08,0,0,0,47.57,23.45ZM9.75,12.94a2.26,2.26,0,0,1,2.12-1.47H38.64a2.28,2.28,0,0,1,2.12,1.47L44,21.73H6.48Zm.14,30a2.27,2.27,0,0,1-2.28,2.26H4.85A2.26,2.26,0,0,1,2.57,42.9V40.16a4.13,4.13,0,0,0,2.28.61h5Zm37.46,0a2.27,2.27,0,0,1-2.28,2.26H42.3A2.28,2.28,0,0,1,40,42.9V40.77h5a4.18,4.18,0,0,0,2.28-.61Zm-2.23-4.22H4.85a2.26,2.26,0,0,1-2.28-2.23h0V28.19A3.93,3.93,0,0,1,4,25.2l0,0,1.42-1.34H45.06l1,1.08s0,0,0,.06a3.91,3.91,0,0,1,1.24,2.85v8.68h0a2.23,2.23,0,0,1-2.24,2.19Z"/></g></g></g></g><g id="Grupo_947" data-name="Grupo 947"><g id="Grupo_938" data-name="Grupo 938"><g id="Grupo_937" data-name="Grupo 937"><path id="Caminho_240" data-name="Caminho 240" d="M34.31,9.76h0V5.45a2.72,2.72,0,0,0-2.72-2.71H18.8a2.72,2.72,0,0,0-2.72,2.71V9.76s.11.92.13,1a.24.24,0,0,1,0,.08c0,.13.38.22.38.22a2.51,2.51,0,0,0,.67.08H33.35a1.09,1.09,0,0,0,.57-.2,1.19,1.19,0,0,0,.4-.92C34.31,9.83,34.31,9.76,34.31,9.76Zm-1.5-.15H17.57V5.45a1.22,1.22,0,0,1,1.22-1.22h12.8a1.22,1.22,0,0,1,1.23,1.22h0Z"/></g></g><g id="Grupo_940" data-name="Grupo 940"><g id="Grupo_939" data-name="Grupo 939"><path id="Caminho_241" data-name="Caminho 241" d="M30.13,5.72V8a.74.74,0,0,0,1.48.13.37.37,0,0,0,0-.11V5.7A.73.73,0,0,0,30.87,5h-.11A.76.76,0,0,0,30.13,5.72Z"/></g></g><g id="Grupo_942" data-name="Grupo 942"><g id="Grupo_941" data-name="Grupo 941"><path id="Caminho_242" data-name="Caminho 242" d="M21.32,5H19.4a.29.29,0,0,0-.23.1A.78.78,0,0,0,19,6.18a.75.75,0,0,0,.59.29h.1V8.31a.34.34,0,0,0,.1.23.78.78,0,0,0,1.1.13.77.77,0,0,0,.29-.59V6.47h.33a.31.31,0,0,0,.24-.1.78.78,0,0,0,.12-1.1A.75.75,0,0,0,21.32,5Z"/></g></g><g id="Grupo_944" data-name="Grupo 944"><g id="Grupo_943" data-name="Grupo 943"><path id="Caminho_243" data-name="Caminho 243" d="M28.61,6.91l.61-.73a.74.74,0,0,0-.09-1h0a.76.76,0,0,0-1.06.1h0l-.43.53-.44-.53a.75.75,0,1,0-1.15,1h0l.61.73-.61.74a.75.75,0,0,0,.09,1,.79.79,0,0,0,.48.18.78.78,0,0,0,.58-.27l.44-.52.44.52a.74.74,0,0,0,.57.27.75.75,0,0,0,.48-.18.74.74,0,0,0,.09-1h0Z"/></g></g><g id="Grupo_946" data-name="Grupo 946"><g id="Grupo_945" data-name="Grupo 945"><path id="Caminho_244" data-name="Caminho 244" d="M25.45,7.83,24.39,5.4A.75.75,0,0,0,23,5.4L22,7.83a.75.75,0,0,0,.39,1h0a.74.74,0,0,0,1-.38h0l.38-.86.37.86a.75.75,0,0,0,.68.44.73.73,0,0,0,.3-.06A.75.75,0,0,0,25.45,7.83Z"/></g></g></g></g><ellipse id="Elipse_147" data-name="Elipse 147" class="cls-1" cx="10.07" cy="31.54" rx="3.66" ry="3.43"/><ellipse id="Elipse_148" data-name="Elipse 148" class="cls-1" cx="39.37" cy="31.54" rx="3.66" ry="3.43"/></g></svg>