<svg id="Camada_1" data-name="Camada 1" xmlns="http://www.w3.org/2000/svg" viewBox="0 0 50 50"><title>Prancheta 2</title><path d="M47.83,38.22l-9.72-6.48a2.83,2.83,0,0,0-3.8.62L31.48,36a1.2,1.2,0,0,1-1.55.32L29.39,36c-1.79-1-4-2.19-8.49-6.67s-5.69-6.7-6.66-8.48l-.3-.54a1.21,1.21,0,0,1,.32-1.56L17.9,16a2.85,2.85,0,0,0,.62-3.8L12,2.43a2.81,2.81,0,0,0-3.8-.86L4.16,4a5.75,5.75,0,0,0-2.61,3.4C.08,12.74,1.18,22,14.75,35.51,25.54,46.3,33.57,49.2,39.09,49.2a14.06,14.06,0,0,0,3.76-.49,5.71,5.71,0,0,0,3.39-2.62L48.69,42A2.83,2.83,0,0,0,47.83,38.22Zm-.52,3-2.44,4.06a4.14,4.14,0,0,1-2.44,1.9c-4.93,1.35-13.53.23-26.55-12.79S1.74,12.75,3.09,7.83A4.13,4.13,0,0,1,5,5.38L9.05,2.94a1.23,1.23,0,0,1,1.65.38L14.23,8.6,17.18,13a1.22,1.22,0,0,1-.27,1.65l-3.63,2.83a2.81,2.81,0,0,0-.75,3.6l.29.52c1,1.88,2.3,4.21,6.94,8.85s7,5.92,8.85,6.94l.53.29a2.81,2.81,0,0,0,3.6-.74l2.83-3.64a1.24,1.24,0,0,1,1.65-.27l9.72,6.49A1.23,1.23,0,0,1,47.31,41.21Z"/></svg>