<svg xmlns="http://www.w3.org/2000/svg" viewBox="0 0 50 50"><defs><style>.cls-1{fill:#fff;}.cls-2{fill:none;stroke:#000;stroke-miterlimit:10;stroke-width:2px;}</style></defs><title>Prancheta 19</title><g id="_19" data-name="19"><path class="cls-1" d="M21.57,27.79V11.66c0-1.07.37-1.55,1.5-1.53,2.49.06,5,0,7.45,0a3.61,3.61,0,0,0,3.77-3.58A3.69,3.69,0,0,0,30.7,2.77h-.16c-2.44,0-4.89,0-7.33,0H5.85c-2.6,0-4.47,1.5-4.34,3.75s1.08,3.73,4.23,3.86c2.2.08,4.4,0,6.6,0,1.83,0,1.83,0,1.83,1.79,0,10.46,0,20.93,0,31.39a5.26,5.26,0,0,0,.8,2.72,3.36,3.36,0,0,0,4.09,1.2,3.81,3.81,0,0,0,2.46-3.58Q21.58,35.86,21.57,27.79Zm11.65.45v1.5c0,4.68.09,9.37,0,14.05a3.84,3.84,0,0,0,3.64,4,3.65,3.65,0,0,0,3.79-4c0-4.44,0-8.88,0-13.32,0-2.38-.19-2.1,2.17-2.2a15.08,15.08,0,0,0,4.15-.6,3.53,3.53,0,0,0,2-4.17,3.78,3.78,0,0,0-3.28-2.83H28.29a3.92,3.92,0,0,0-3.35,3.18,4,4,0,0,0,4,4.45C30.33,28.26,31.67,28.24,33.22,28.24Z"/><path class="cls-2" d="M21.57,27.79V43.92A3.83,3.83,0,0,1,19.1,47.5,3.36,3.36,0,0,1,15,46.3a5.31,5.31,0,0,1-.79-2.71c-.06-10.47,0-20.93,0-31.4,0-1.78,0-1.78-1.83-1.78-2.2,0-4.4.07-6.6,0-3.15-.13-4.11-1.61-4.24-3.86S3.26,2.77,5.87,2.77q8.67,0,17.35,0c2.45,0,4.89,0,7.34,0A3.69,3.69,0,0,1,34.3,6.4v.17a3.62,3.62,0,0,1-3.77,3.58c-2.49,0-5,0-7.45,0-1.13,0-1.51.46-1.51,1.53C21.58,17,21.57,22.42,21.57,27.79Z"/><path class="cls-2" d="M33.22,28.24c-1.55,0-2.89,0-4.23,0a4,4,0,0,1-4.06-4.45,3.93,3.93,0,0,1,3.35-3.18q8.67,0,17.36,0a3.74,3.74,0,0,1,3.27,2.83A3.49,3.49,0,0,1,47,27.59a15.28,15.28,0,0,1-4.16.61c-2.36.09-2.16-.19-2.17,2.2,0,4.44,0,8.88,0,13.32a3.65,3.65,0,0,1-3.79,4,3.87,3.87,0,0,1-3.64-3.95c.1-4.69,0-9.37,0-14.06Z"/></g></svg>