<svg id="Camada_1" data-name="Camada 1" xmlns="http://www.w3.org/2000/svg" viewBox="0 0 495 454"><defs><style>.cls-1{fill:#fff;}</style></defs><path class="cls-1" d="M418.4,278a10,10,0,0,0-11.49,9.88v88.65a30,30,0,0,1-30,30H96.86a30,30,0,0,1-29.95-30v-260a30,30,0,0,1,30-30H185.4A10.19,10.19,0,0,0,195.59,78,10,10,0,0,0,185.7,66.5H96.83a50,50,0,0,0-49.92,49.92V376.59A50,50,0,0,0,96.83,426.5H376.91a50,50,0,0,0,50-49.93V288.2A10.2,10.2,0,0,0,418.4,278Z"/><path class="cls-1" d="M423.23,40.66a45,45,0,0,0-63.56,0L181.5,218.83a9.93,9.93,0,0,0-2.57,4.4L155.5,307.82a10,10,0,0,0,12.29,12.29l84.59-23.43a9.93,9.93,0,0,0,4.4-2.57L435,115.94a45,45,0,0,0,0-63.56Zm-220,184.67L349.08,79.5l47,47L250.28,272.35Zm-9.4,18.85,37.57,37.57-52,14.4Zm227-142.37-10.59,10.6-47-47,10.6-10.59a25,25,0,0,1,35.3,0L420.82,66.5A25,25,0,0,1,420.82,101.81Z"/></svg>