<svg xmlns="http://www.w3.org/2000/svg" viewBox="0 0 50 50"><title>Prancheta 6</title><g id="_6" data-name="6"><path d="M35.2-.09H13.63A3.67,3.67,0,0,0,10,3.58V46.42a3.67,3.67,0,0,0,3.67,3.67H35.2a3.67,3.67,0,0,0,3.68-3.67V3.58A3.67,3.67,0,0,0,35.2-.09ZM37.4,39.8H16.57a.74.74,0,0,0,0,1.47H37.4v5.15a2.2,2.2,0,0,1-2.2,2.2H13.63a2.21,2.21,0,0,1-2.2-2.2V41.27h2.2a.74.74,0,1,0,0-1.47h-2.2V7.26h26Zm0-34h-26V3.58a2.21,2.21,0,0,1,2.2-2.2H35.2a2.2,2.2,0,0,1,2.2,2.2Z"/><path d="M27.36,2.85H24.42a.74.74,0,1,0,0,1.47h2.94a.74.74,0,0,0,0-1.47Z"/><path d="M24.42,42.74A2.21,2.21,0,1,0,26.62,45,2.21,2.21,0,0,0,24.42,42.74Zm0,2.94a.74.74,0,1,1,.73-.73A.74.74,0,0,1,24.42,45.68Z"/><circle cx="21.48" cy="3.58" r="0.74"/></g></svg>