<svg xmlns="http://www.w3.org/2000/svg" viewBox="0 0 50 50"><defs><style>.cls-1{fill:#fff;}</style></defs><title>Prancheta 3</title><g id="_3" data-name="3"><path d="M13,38.11a.86.86,0,0,0,.46-.14c.38-.25.75-.51,1.12-.78s.72-.56,1.06-.85.69-.6,1-.91.64-.64.95-1,.61-.67.89-1,.57-.7.83-1.07.52-.75.76-1.13.48-.77.7-1.17.43-.8.62-1.22.38-.83.56-1.27l.12-.32a.83.83,0,0,0-.5-1.05.84.84,0,0,0-1.07.47l-.11.3c-.16.4-.34.78-.51,1.16s-.38.76-.59,1.13-.42.72-.64,1.08-.47.71-.71,1-.5.67-.77,1-.55.64-.83,1-.59.61-.88.89-.62.57-.94.84-.65.54-1,.79-.68.49-1,.73a.83.83,0,0,0-.34.93.87.87,0,0,0,.82.59Z"/><path d="M33.48,18.17c0-.19-.09-.37-.15-.56s-.13-.35-.19-.53-.16-.34-.25-.5a4.71,4.71,0,0,0-.29-.48l-.33-.44a5.14,5.14,0,0,0-.38-.42c-.14-.14-.28-.25-.42-.38a4.29,4.29,0,0,0-.45-.33c-.16-.1-.31-.2-.48-.29A4.74,4.74,0,0,0,30,14c-.17-.08-.36-.14-.53-.2l-.56-.14c-.2,0-.39-.07-.59-.09a5.92,5.92,0,0,0-1.19,0,5.21,5.21,0,0,0-.57.09L26,13.8c-.19.06-.36.13-.54.2s-.34.15-.5.24a3.82,3.82,0,0,0-.48.29,5.22,5.22,0,0,0-.45.33,5,5,0,0,0-.42.38,2.93,2.93,0,0,0-.37.42,4.59,4.59,0,0,0-.33.44,4.8,4.8,0,0,0-.3.48c-.08.16-.17.33-.24.5s-.14.35-.2.53-.1.37-.14.56a4.71,4.71,0,0,0-.09.58,5.68,5.68,0,0,0,0,.59c0,.46,0,.9,0,1.34s-.07.88-.13,1.32-.12.89-.2,1.31a.82.82,0,0,0,.65,1h.17a.84.84,0,0,0,.82-.67c.09-.46.17-.95.22-1.42s.11-.94.14-1.43.05-1,.05-1.44a3.84,3.84,0,0,1,.09-.83l.09-.39c0-.13.09-.26.14-.38a2.42,2.42,0,0,1,.18-.36c.07-.11.13-.23.21-.34l.25-.32a3.58,3.58,0,0,1,.26-.29l.3-.27a5.22,5.22,0,0,1,.67-.45,4.2,4.2,0,0,1,1.14-.41l.42-.07a4,4,0,0,1,.85,0,3.34,3.34,0,0,1,.42.07l.4.09.38.14a4.74,4.74,0,0,1,.7.38,3.81,3.81,0,0,1,.32.24l.3.26.27.29a3.81,3.81,0,0,1,.24.32c.08.12.15.23.21.34a4,4,0,0,1,.17.36,2.92,2.92,0,0,1,.14.38,2.34,2.34,0,0,1,.1.4l0,.14a.83.83,0,0,0,1.64-.27Z"/><path d="M28.12,34.07a.82.82,0,0,0,.32,1.12.83.83,0,0,0,1.13-.31c.27-.47.4-.74.65-1.21s.47-1,.68-1.47.42-1,.62-1.49.37-1,.53-1.53.33-1,.46-1.57.28-1.06.38-1.6.22-1.09.31-1.63.15-1.09.21-1.66c0-.28.06-.55.08-.83a.82.82,0,0,0-.76-.89.83.83,0,0,0-.9.75c0,.27,0,.54-.07.8-.06.52-.13,1.05-.2,1.57s-.18,1-.29,1.54-.22,1-.36,1.51-.28,1-.44,1.5-.33,1-.51,1.45-.38.95-.58,1.42-.42.93-.66,1.38S28.37,33.62,28.12,34.07Z"/><path d="M23,42.84a.83.83,0,0,0,.58-.23c.38-.37.76-.75,1.12-1.13s.72-.77,1.08-1.18.68-.82,1-1.23.65-.86,1-1.28a.83.83,0,0,0-1.37-.95c-.29.41-.59.81-.91,1.22s-.63.78-1,1.17-.67.76-1,1.13-.7.72-1.06,1.07A.81.81,0,0,0,23,42.84Z"/><path d="M19.27,41.73a.81.81,0,0,0,.54-.19c.4-.33.79-.67,1.16-1s.62-.57,1-.94A25.78,25.78,0,0,0,24,37.21l.15-.19c.3-.38.65-.82.9-1.19s.59-.86.86-1.3.54-.89.79-1.35.49-.92.72-1.39.44-.95.64-1.44.39-1,.57-1.47l.06-.17a.82.82,0,0,0-.94-1.09.87.87,0,0,0-.64.55l-.06.16c-.16.46-.34.93-.52,1.39s-.39.91-.6,1.36-.44.88-.67,1.32-.49.85-.74,1.27-.53.82-.81,1.22-.58.77-.85,1.11l-.16.2a28.94,28.94,0,0,1-1.93,2.22c-.34.35-.56.55-.92.88s-.73.66-1.1,1a.81.81,0,0,0-.25.92.8.8,0,0,0,.77.54Z"/><path d="M28.42,22.44c-.06.52-.13,1-.21,1.52-.06.32-.13.68-.2,1a.83.83,0,0,0,.65,1l.16,0a.83.83,0,0,0,.81-.66c.07-.33.15-.72.21-1.05.08-.54.16-1.07.23-1.61s.11-1.09.14-1.64.05-1.11.05-1.66c0-.09,0-.16,0-.25a1.5,1.5,0,0,0,0-.24l-.06-.26a2,2,0,0,0-.09-.22,2.55,2.55,0,0,0-.23-.43l-.15-.18-.16-.17-.17-.17-.2-.15-.2-.12L28.73,17A.78.78,0,0,0,28.5,17a1.05,1.05,0,0,0-.24-.06l-.26,0a2.17,2.17,0,0,0-.51,0A2.56,2.56,0,0,0,27,17a.9.9,0,0,0-.23.08l-.22.11-.21.12-.19.15a1.33,1.33,0,0,0-.17.16,1.45,1.45,0,0,0-.17.18,2.7,2.7,0,0,0-.27.39,1.51,1.51,0,0,0-.11.22l-.08.23a2,2,0,0,0-.07.26,1.72,1.72,0,0,0,0,.24,2,2,0,0,0,0,.25.83.83,0,0,0,1.66,0v-.09L27,19l0-.07.09-.11.13-.11.15-.09.15,0h.09c.06,0,0,0,.25,0l.16,0,.15.08.47-.69-.35.79.06.06.09.12,0,.08.05.15v.08s0,.06,0,.09c0,.52,0,1.05-.05,1.57S28.47,21.92,28.42,22.44Z"/><path d="M25,23.32c-.09.48-.29,1.31-.39,1.76s-.24.91-.39,1.36-.29.89-.45,1.32-.35.88-.53,1.29l-.09.2a.78.78,0,0,0,.08.82.84.84,0,0,0,.76.35.85.85,0,0,0,.68-.47l.1-.22c.21-.45.39-.91.57-1.38s.34-.94.49-1.43.28-1,.41-1.45.31-1.3.42-1.86a.85.85,0,0,0-1.11-.95.84.84,0,0,0-.55.66Z"/><path d="M16,40.12a.8.8,0,0,0,.49-.16c.4-.29.78-.59,1.17-.91s.75-.64,1.11-1,.71-.68,1.05-1,.67-.72,1-1.08.63-.76.93-1.15.58-.78.86-1.2l.38-.58a.83.83,0,0,0,.07-.86.79.79,0,0,0-.73-.46.81.81,0,0,0-.74.45c-.12.18-.23.36-.36.54-.26.38-.53.75-.81,1.12s-.57.73-.87,1.08-.62.69-.93,1-.64.65-1,1-.69.62-1,.91-.72.58-1.09.85a.83.83,0,0,0-.29.92.81.81,0,0,0,.8.55Z"/><path d="M10.53,35.76a1,1,0,0,0,.43-.11q.52-.32,1-.66c.33-.24.67-.47,1-.72l.93-.78.52-.48a.81.81,0,0,0,0-1.17.84.84,0,0,0-1.18,0c-.15.15-.32.3-.48.44s-.55.49-.85.71-.58.45-.88.66-.62.41-.94.6a.81.81,0,0,0-.37.93.83.83,0,0,0,.8.6Z"/><path d="M19.43,18.51a.82.82,0,0,0-.83.82c0,.4,0,.79,0,1.17s-.07.78-.11,1.16-.12.75-.2,1.13-.17.75-.26,1.11-.22.72-.34,1.07-.25.71-.4,1.05-.3.68-.46,1-.35.66-.53,1-.38.63-.59.94-.29.43-.45.64a.81.81,0,0,0-.08.82.82.82,0,0,0,.67.49.88.88,0,0,0,.76-.33l.5-.7c.22-.34.44-.68.64-1s.4-.71.58-1.07.35-.73.51-1.11.3-.76.44-1.15.25-.78.37-1.18.2-.8.29-1.21a10.33,10.33,0,0,0,.2-1.24c.06-.42.1-.84.13-1.27s0-.85,0-1.29A.83.83,0,0,0,19.43,18.51Z"/><path d="M20.69,13.54c-.19.23-.36.46-.53.7s-.32.49-.46.75-.24.46-.35.7a.84.84,0,0,0,.44,1.09.77.77,0,0,0,.32.07.83.83,0,0,0,.77-.51,4.87,4.87,0,0,1,.28-.56c.12-.21.24-.42.37-.61s.28-.39.43-.57a4.88,4.88,0,0,1,.49-.53c.16-.17.35-.33.53-.49l.58-.43a5.54,5.54,0,0,1,.62-.36,3.87,3.87,0,0,1,.65-.31,7.1,7.1,0,0,1,1.4-.44l.75-.12a7.82,7.82,0,0,1,1.53,0c.25,0,.5.07.74.12s.48.11.72.18l.27.09a.85.85,0,0,0,.84-.13.83.83,0,0,0-.29-1.43l-.32-.11a9.06,9.06,0,0,0-1.78-.36,11.8,11.8,0,0,0-1.88,0c-.3,0-.6.08-.91.14s-.58.14-.88.22-.56.2-.83.31-.54.25-.81.38-.5.29-.76.46-.48.34-.7.52-.44.38-.65.59S20.88,13.31,20.69,13.54Z"/><path d="M35.11,22.55c0,.53-.12,1.06-.19,1.58,0,.25-.05.46-.07.67a4.29,4.29,0,0,1-.08.71.82.82,0,0,0,.26.8.83.83,0,0,0,.83.15.82.82,0,0,0,.54-.64,6.88,6.88,0,0,0,.1-.9c0-.17,0-.36.06-.57.08-.54.15-1.09.2-1.66s.1-1.11.12-1.67,0-1.13,0-1.7c0-.31,0-.62,0-.93a8.46,8.46,0,0,0-.14-.9c-.06-.29-.14-.58-.23-.87a6.66,6.66,0,0,0-.31-.85c-.12-.27-.24-.53-.38-.79a6.26,6.26,0,0,0-.46-.75c-.16-.24-.34-.47-.52-.7s-.35-.39-.53-.58a.83.83,0,1,0-1.19,1.16c.14.16.29.31.43.48s.29.38.43.57.26.41.37.61.22.43.31.65a5.69,5.69,0,0,1,.25.69,5.71,5.71,0,0,1,.19.71c0,.24.09.49.12.73a6.62,6.62,0,0,1,0,.77c0,.54,0,1.09,0,1.62S35.16,22,35.11,22.55Z"/><path d="M27.19,43.3a.85.85,0,0,0,.63-.27c.35-.39.7-.79,1-1.2s.66-.82,1-1.25.62-.85.92-1.29c.17-.24.33-.48.49-.73s.27-.4.38-.6c.29-.44.55-.91.81-1.37s.51-.94.76-1.42.46-1,.68-1.44.43-1,.62-1.5.38-1,.56-1.51.3-.91.44-1.38a.83.83,0,0,0-1.6-.46c-.13.44-.28.88-.42,1.31s-.34,1-.53,1.44-.38.95-.59,1.42-.43.93-.66,1.37-.47.91-.71,1.35-.51.88-.77,1.31c-.12.19-.25.39-.36.58s-.31.47-.46.7c-.29.42-.58.83-.89,1.23s-.62.81-.94,1.19-.65.78-1,1.15a.81.81,0,0,0-.14.89.79.79,0,0,0,.74.48Z"/><path d="M8.44,33.13a.83.83,0,0,0,.41-.1c.3-.17.59-.35.89-.54s.56-.38.85-.59.54-.41.81-.64.51-.45.76-.68.49-.49.71-.74.45-.52.67-.79.41-.54.61-.82.38-.57.56-.86.34-.59.49-.91.31-.62.45-.94a9.56,9.56,0,0,0,.38-1c.12-.33.23-.66.33-1s.17-.68.25-1,.14-.7.19-1.06.08-.71.1-1.07,0-.73,0-1.1A10,10,0,0,1,17,18.2a9.53,9.53,0,0,1,.17-1.07,7.77,7.77,0,0,1,.26-1c.11-.34.22-.67.36-1a10.22,10.22,0,0,1,.46-.94,10,10,0,0,1,.55-.88,8.13,8.13,0,0,1,.54-.69l.17-.2A.83.83,0,0,0,19,11a.83.83,0,0,0-.78.3l-.16.2c-.22.26-.46.56-.65.82a11.71,11.71,0,0,0-.62,1,9,9,0,0,0-.53,1.08,12.19,12.19,0,0,0-.42,1.15,9.42,9.42,0,0,0-.3,1.19A10.46,10.46,0,0,0,15.35,18c0,.41-.07.84-.07,1.27s0,.66,0,1-.06.64-.09,1-.1.63-.17.94-.14.62-.22.92-.18.6-.29.89-.22.58-.34.87-.25.56-.4.83-.29.54-.45.8a7.94,7.94,0,0,1-.5.78c-.17.25-.36.49-.54.74s-.39.47-.6.69-.42.45-.63.66-.45.42-.69.62-.47.39-.72.58l-.76.52c-.25.16-.52.33-.79.47a.83.83,0,0,0-.4.93.79.79,0,0,0,.79.64Z"/><path d="M37.74,15.14a8.38,8.38,0,0,1,.37,1c.08.29.16.58.23.87a.83.83,0,0,0,.56.63.83.83,0,0,0,1.06-1c-.08-.33-.17-.67-.27-1s-.27-.77-.42-1.15-.34-.72-.53-1.08-.4-.69-.63-1a9.61,9.61,0,0,0-.72-1,9.59,9.59,0,0,0-.81-.88,11.58,11.58,0,0,0-.89-.81c-.31-.25-.62-.49-.95-.72s-.68-.42-1-.62S33,8,32.62,7.87s-.76-.3-1.15-.42a11.69,11.69,0,0,0-1.2-.3C29.86,7.07,29.44,7,29,7a12.17,12.17,0,0,0-2.56,0c-.42,0-.83.11-1.24.18s-.8.19-1.2.3-.78.27-1.15.42-.74.33-1.1.52a.83.83,0,1,0,.8,1.46c.31-.17.63-.32,1-.46s.66-.26,1-.36.69-.19,1-.26.71-.12,1.08-.16a10.21,10.21,0,0,1,2.21,0c.36,0,.72.09,1.07.16s.7.16,1,.26.66.23,1,.36a10.22,10.22,0,0,1,.94.46,8.77,8.77,0,0,1,.89.54c.28.2.57.4.83.62s.53.46.77.7a7.36,7.36,0,0,1,.7.77c.23.27.43.54.63.82s.37.58.54.88A8.59,8.59,0,0,1,37.74,15.14Z"/><path d="M31.78,43a.83.83,0,0,0,.66-.32c.31-.41.61-.82.9-1.24s.58-.84.85-1.27.54-.86.8-1.3.51-.89.75-1.34.47-.91.7-1.37.44-.93.64-1.4.4-.95.59-1.43.36-1,.52-1.45.33-1,.48-1.5.28-1,.42-1.51.25-1,.35-1.53.21-1,.3-1.55.16-1.05.23-1.57.12-1.06.17-1.6.07-1,.09-1.56a.82.82,0,0,0-.8-.86h0a.83.83,0,0,0-.83.8c0,.51,0,1-.09,1.49s-.1,1-.16,1.53-.14,1-.22,1.52-.18,1-.29,1.49-.21,1-.34,1.46-.25,1-.4,1.45-.29.95-.45,1.42-.33.93-.51,1.4-.36.92-.56,1.36-.4.91-.62,1.34-.44.88-.66,1.31-.47.86-.71,1.28-.5.84-.76,1.25-.54.82-.82,1.22-.56.8-.85,1.19A.8.8,0,0,0,31.78,43Z"/><path d="M41.84,38.28a.83.83,0,0,0,1.1-.41l.47-1.07c.15-.36.29-.72.44-1.09s.28-.72.41-1.09.26-.74.38-1.11.24-.74.35-1.12.22-.76.32-1.14.2-.76.3-1.14.19-.77.27-1.15.16-.78.23-1.18.15-.78.2-1.17.13-.79.18-1.19.11-.8.15-1.2.08-.81.11-1.21l0-.3a.83.83,0,0,0-1.66-.13l0,.3c0,.39-.06.77-.1,1.16s-.09.78-.14,1.16-.11.76-.17,1.14-.12.76-.2,1.13-.15.76-.22,1.13-.17.74-.27,1.11-.18.74-.28,1.11-.21.72-.31,1.09-.23.73-.35,1.08-.24.72-.37,1.07-.26.7-.4,1-.27.7-.42,1-.29.69-.45,1A.84.84,0,0,0,41.84,38.28Z"/><path d="M46.82,17.38a18.11,18.11,0,0,0-.76-3.71c0-.14-.09-.27-.13-.4a.83.83,0,0,0-1.58.52l.12.37a17.07,17.07,0,0,1,.43,1.67,16.38,16.38,0,0,1,.26,1.73c.06.59.09,1.18.1,1.77a.83.83,0,0,0,1.66,0A18.19,18.19,0,0,0,46.82,17.38Z"/><path d="M38.89,5.93c.43.36.85.74,1.24,1.13a16.64,16.64,0,0,1,1.13,1.23,13.33,13.33,0,0,1,1,1.34,16.13,16.13,0,0,1,.88,1.43.84.84,0,0,0,1.45,0,.83.83,0,0,0,0-.82c-.3-.54-.62-1.07-1-1.58s-.71-1-1.1-1.46-.81-.92-1.24-1.35S40.42,5.05,40,4.66s-1-.75-1.47-1.09a.8.8,0,0,0-.84-.07.81.81,0,0,0-.47.7.8.8,0,0,0,.38.74A12.49,12.49,0,0,1,38.89,5.93Z"/><path d="M23.25,2.54c.32-.09.65-.17,1-.23A17.44,17.44,0,0,1,26,2a19.46,19.46,0,0,1,3.58,0,16.59,16.59,0,0,1,1.74.27c.56.11,1.12.26,1.68.42s.94.31,1.4.5a.83.83,0,0,0,1.08-.46A.81.81,0,0,0,35,1.7c-.51-.21-1-.39-1.53-.55A17.06,17.06,0,0,0,31.62.69,17.06,17.06,0,0,0,29.72.4a18.25,18.25,0,0,0-3.91,0A18,18,0,0,0,23.9.69c-.36.07-.72.15-1.08.25a.83.83,0,0,0-.6,1,.86.86,0,0,0,1,.59Z"/><path d="M9.11,21.76a.83.83,0,0,0,.63-.12.84.84,0,0,0,.35-.53c0-.19.07-.38.1-.58a5.9,5.9,0,0,0,.06-.59c0-.19,0-.4,0-.6a17.18,17.18,0,0,1,.36-3.5,16.37,16.37,0,0,1,.43-1.67,15.28,15.28,0,0,1,.58-1.6c.23-.52.47-1,.74-1.52s.57-1,.88-1.43a16.76,16.76,0,0,1,1-1.34,14.71,14.71,0,0,1,1.13-1.23c.39-.39.81-.77,1.24-1.13a14.72,14.72,0,0,1,1.35-1c.47-.31.94-.6,1.44-.87.33-.18.67-.35,1-.5a.8.8,0,0,0,.49-.68.84.84,0,0,0-.35-.77A.86.86,0,0,0,19.73,2c-.38.18-.75.36-1.11.56-.54.29-1.07.61-1.58.95a15.92,15.92,0,0,0-1.46,1.1c-.47.39-.93.81-1.36,1.23s-.84.89-1.23,1.35-.76,1-1.1,1.47a14.62,14.62,0,0,0-1,1.57c-.29.54-.57,1.09-.81,1.66a18.39,18.39,0,0,0-.65,1.75c-.18.6-.34,1.21-.46,1.82s-.23,1.25-.3,1.89a18,18,0,0,0-.09,1.94c0,.16,0,.33,0,.49s0,.32,0,.49-.05.32-.08.47a.8.8,0,0,0,.13.62A.81.81,0,0,0,9.11,21.76Z"/><path d="M7.39,23.38l-.26.38a2.54,2.54,0,0,1-.29.36c-.1.12-.21.23-.31.34l-.34.33-.35.3a3.58,3.58,0,0,1-.37.28l-.39.26a.82.82,0,0,0-.35.92A.83.83,0,0,0,6,27c.17-.1.32-.21.48-.32l.45-.34L7.32,26l.41-.4c.13-.13.25-.27.38-.41s.23-.3.35-.44.22-.31.33-.47a.8.8,0,0,0,.08-.85A.82.82,0,0,0,8.15,23,.85.85,0,0,0,7.39,23.38Z"/><path d="M8.56,29.29c.21-.17.43-.33.63-.51s.41-.36.61-.54.38-.38.56-.58a.81.81,0,0,0,.18-.81.84.84,0,0,0-1.41-.31c-.15.18-.32.34-.49.51s-.34.32-.52.47a6,6,0,0,1-.56.44l-.58.4c-.2.12-.41.25-.61.35a.83.83,0,0,0,.81,1.45c.24-.14.48-.27.7-.42A8,8,0,0,0,8.56,29.29Z"/><path d="M36.34,41.4a.83.83,0,0,0,1.14-.28c.24-.39.48-.79.71-1.2s.45-.81.67-1.23.43-.83.62-1.25.38-.81.57-1.23a.83.83,0,0,0-.1-.83.83.83,0,0,0-1.43.17c-.19.42-.36.77-.55,1.18s-.4.81-.61,1.2-.42.8-.64,1.19L36,40.27a.82.82,0,0,0-.1.63A.91.91,0,0,0,36.34,41.4Z"/><path d="M40.53,33.54a.83.83,0,0,0,.79-.56l.26-.79c.15-.44.28-.9.42-1.36s.25-.92.37-1.38.23-.93.32-1.4.2-.94.28-1.41.15-.95.22-1.44.13-1,.18-1.44.09-1,.12-1.46.06-1,.08-1.48,0-1,0-1.49a14.48,14.48,0,0,0-.09-1.61c-.06-.52-.13-1-.24-1.56s-.24-1-.39-1.5a13.37,13.37,0,0,0-.54-1.45,17.68,17.68,0,0,0-.87-1.7.83.83,0,0,0-1.13-.33A.81.81,0,0,0,40,12.3c.37.67.66,1.26.8,1.56a15.54,15.54,0,0,1,.83,2.64,13.13,13.13,0,0,1,.21,1.4,13.56,13.56,0,0,1,.07,1.43c0,.47,0,1,0,1.43s0,.95-.08,1.42-.07.94-.11,1.41-.11.93-.17,1.38-.14.92-.21,1.38-.17.91-.27,1.36-.19.9-.31,1.34-.22.89-.35,1.33-.25.87-.4,1.31c-.08.25-.17.5-.25.76a.81.81,0,0,0,.51,1A1,1,0,0,0,40.53,33.54Z"/><path d="M33.93,4.85c-.48-.21-1-.38-1.46-.54a15.43,15.43,0,0,0-3.08-.62.84.84,0,0,0-.76.34.82.82,0,0,0-.09.83.84.84,0,0,0,.67.48q.7.07,1.41.21A12.15,12.15,0,0,1,32,5.9a11.9,11.9,0,0,1,1.3.48A11.71,11.71,0,0,1,34.51,7c.4.22.79.46,1.16.71a12.45,12.45,0,0,1,1.1.81c.28.23,1,.9,1.51,1.44a.83.83,0,0,0,1.18-1.18c-.19-.19-1.18-1.17-1.63-1.54a13.21,13.21,0,0,0-1.22-.9c-.41-.28-.86-.54-1.31-.79A11.53,11.53,0,0,0,33.93,4.85Z"/><path d="M18.91,6.3c-.42.28-.83.58-1.22.9s-.77.66-1.12,1-.7.73-1,1.11a13.32,13.32,0,0,0-.91,1.22.83.83,0,0,0,.22,1.15A.84.84,0,0,0,16,11.48c.26-.38.53-.74.81-1.09s.6-.68.92-1,.66-.62,1-.91a12.3,12.3,0,0,1,1.09-.81c.37-.25.77-.49,1.16-.71a10.84,10.84,0,0,1,1.24-.59c.42-.18.86-.34,1.3-.48s.9-.25,1.36-.35a.82.82,0,0,0,.65-1,.84.84,0,0,0-1-.65c-.51.1-1,.23-1.52.38a14.83,14.83,0,0,0-1.45.54,11.78,11.78,0,0,0-1.39.66C19.77,5.76,19.33,6,18.91,6.3Z"/><path d="M11.28,25a.83.83,0,0,0,1.09-.43l.15-.32c.14-.29.29-.63.36-.8a6.77,6.77,0,0,0,.25-.8c.07-.26.15-.54.2-.81s.11-.55.15-.83.06-.57.08-.86,0-.58,0-.86a13.55,13.55,0,0,1,.08-1.43,12.39,12.39,0,0,1,.22-1.4c.09-.48.34-1.46.47-1.88a.83.83,0,0,0-.18-.81.85.85,0,0,0-.79-.25.86.86,0,0,0-.62.56c-.15.5-.41,1.53-.51,2.05s-.19,1-.25,1.56-.09,1.07-.09,1.61c0,.25,0,.5,0,.76s0,.49-.08.73-.08.49-.13.72-.11.47-.18.71-.13.45-.21.68-.19.42-.3.67l-.17.35a.84.84,0,0,0,0,.64A.94.94,0,0,0,11.28,25Z"/><ellipse class="cls-1" cx="17.66" cy="49.91" rx="12.34" ry="12.25"/><ellipse class="cls-1" cx="17.63" cy="29.88" rx="6.12" ry="6.08"/><path d="M27.74,40a14.06,14.06,0,0,0-5.42-3.37,8.24,8.24,0,1,0-9.33,0A14.15,14.15,0,0,0,3.41,50H5.64a12,12,0,0,1,24.05,0h2.23A14,14,0,0,0,27.74,40ZM17.66,35.85a6,6,0,1,1,6-6A6,6,0,0,1,17.66,35.85Z"/></g></svg>