<svg xmlns="http://www.w3.org/2000/svg" viewBox="0 0 50 50"><defs><style>.cls-1{fill:none;stroke:#000;stroke-width:2px;}</style></defs><title>Prancheta 21</title><g id="_21" data-name="21"><g id="Grupo_983" data-name="Grupo 983"><path id="Caminho_254" data-name="Caminho 254" class="cls-1" d="M18.74,41.78c-4.53,0-9.06,0-13.6,0-2.7,0-4.07-1.47-4.09-4.63Q.95,25,1.05,12.76c0-3.08,1.11-4.39,3.76-4.62C7,8,9.28,8,11.52,8H30.57a17.44,17.44,0,0,1,2.7.21,3.44,3.44,0,0,1,3,3.68q.07,13,0,26.05a3.55,3.55,0,0,1-3.74,3.81C27.92,41.8,23.33,41.78,18.74,41.78Z"/><path id="Caminho_255" data-name="Caminho 255" class="cls-1" d="M48.88,37.74c-3.36-2.12-6.38-4.2-9.54-6a4.29,4.29,0,0,1-2.4-4.73c.19-2.38-.53-5.24.39-7s3.35-2.58,5.15-3.75c2-1.33,4.1-2.59,6.4-4.05Z"/></g></g></svg>