<svg xmlns="http://www.w3.org/2000/svg" viewBox="0 0 50 50"><title>Prancheta 2</title><g id="_2" data-name="2"><path d="M16.84,18.55a.31.31,0,0,1,0-.08c0-.3.46-.52.81-.52s.36.06.41.23l1.13,4.14,1.12-4.14c.05-.17.21-.23.41-.23.35,0,.8.22.8.52a.25.25,0,0,1,0,.08L20,23.47a.82.82,0,0,1-.82.42c-.37,0-.74-.14-.83-.42Z"/><path d="M22.78,18.33a.42.42,0,0,1,.47-.38h1.67a1.69,1.69,0,0,1,1.9,1.85v0a1.74,1.74,0,0,1-2,1.87H24v1.75c0,.25-.32.38-.63.38s-.63-.13-.63-.38V18.33Zm1.26.72v1.7h.79c.46,0,.73-.26.73-.81v-.09c0-.55-.27-.8-.73-.8Z"/><path d="M31,23.5l-1.53-2.79v2.75c0,.25-.31.38-.63.38s-.63-.13-.63-.38V18.34c0-.27.32-.39.63-.39s.62,0,.93.63L31,21.07V18.33c0-.27.32-.38.63-.38s.63.11.63.38v5.13c0,.25-.31.38-.63.38A.69.69,0,0,1,31,23.5Z"/><path d="M34.39,26.86a2,2,0,0,0,2-2.05v-7.9a2,2,0,0,0-2-2.05H21.68a.73.73,0,0,0-.73.73.72.72,0,0,0,.73.72H34.39a.59.59,0,0,1,.59.6v7.9a.58.58,0,0,1-.59.59H15.61a.58.58,0,0,1-.59-.59v-7.9a.59.59,0,0,1,.59-.6h3.16a.72.72,0,0,0,.73-.72.73.73,0,0,0-.73-.73H15.61a2,2,0,0,0-2,2.05v7.9a2,2,0,0,0,2,2.05Z"/><path d="M46.64,21.59,45.82,1.88A1.62,1.62,0,0,0,45,.51a1.57,1.57,0,0,0-1.57,0l-1.56.85a14.75,14.75,0,0,1-13.8.15L26.37.58a3,3,0,0,0-2.74,0l-1.95,1A14.75,14.75,0,0,1,8,1.28L6.54.49A1.57,1.57,0,0,0,5,.52a1.6,1.6,0,0,0-.79,1.37l-.82,19.7a26.22,26.22,0,0,0,.06,3.07,25.78,25.78,0,0,0,6.77,15.48.73.73,0,0,0,1.07-1,24.27,24.27,0,0,1-6.4-14.6,25.52,25.52,0,0,1-.05-2.9L5.63,1.93v0a.17.17,0,0,1,.08-.14.14.14,0,0,1,.13,0l1.44.79a16.12,16.12,0,0,0,7.8,2,16.22,16.22,0,0,0,7.25-1.71l2-1a1.61,1.61,0,0,1,1.42,0l1.74.9A16.17,16.17,0,0,0,42.6,2.6l1.56-.84a.12.12,0,0,1,.13,0,.14.14,0,0,1,.08.14v0l.82,19.72A27.26,27.26,0,0,1,45.1,25a24.17,24.17,0,0,1-3.53,10.42,24.75,24.75,0,0,1-7.73,7.78l-7.36,4.64a2.74,2.74,0,0,1-3,0l-7.36-4.64a24.4,24.4,0,0,1-2.85-2.11.73.73,0,1,0-1,1.11,26.55,26.55,0,0,0,3,2.23l7.35,4.64a4.25,4.25,0,0,0,4.52,0l7.36-4.64a26.37,26.37,0,0,0,8.18-8.24,25.73,25.73,0,0,0,3.74-11,28.54,28.54,0,0,0,.1-3.58Z"/><path d="M17.3,41.43l7.31,4.62a.75.75,0,0,0,.78,0l7.32-4.62a22.44,22.44,0,0,0,7-7.1A22.07,22.07,0,0,0,43,24.83a22.89,22.89,0,0,0,.08-3.1l-.64-15.6a.74.74,0,0,0-.33-.58.74.74,0,0,0-.66-.07A18.26,18.26,0,0,1,34.86,6.7a18.45,18.45,0,0,1-8.39-2l-1.16-.6a.76.76,0,0,0-.66,0l-1.37.68a18.41,18.41,0,0,1-8.2,1.94,18.14,18.14,0,0,1-6.51-1.2.73.73,0,0,0-.66.08.73.73,0,0,0-.33.57l-.64,15.6a21.44,21.44,0,0,0,0,2.66,22.23,22.23,0,0,0,10.31,17ZM8.39,21.79,9,7.17a19.73,19.73,0,0,0,6.09,1A19.89,19.89,0,0,0,23.93,6l1-.52L25.8,6a19.89,19.89,0,0,0,9.06,2.2,19.73,19.73,0,0,0,6.15-1l.6,14.62a20,20,0,0,1-.08,2.9,20.45,20.45,0,0,1-3,8.87,20.92,20.92,0,0,1-6.6,6.64L25,44.58l-6.93-4.37A20.65,20.65,0,0,1,8.39,21.79Z"/></g></svg>