<svg id="_1" data-name="1" xmlns="http://www.w3.org/2000/svg" viewBox="0 0 50 50"><title>Prancheta 1</title><path d="M49.52,16a34.63,34.63,0,0,0-49-.07L.47,16a.79.79,0,0,0,1.12,1.11A33.06,33.06,0,0,1,48.34,17l.06.06a.79.79,0,0,0,1.12,0A.78.78,0,0,0,49.52,16Z"/><path d="M45.06,20.41a28.35,28.35,0,0,0-40.13,0,.8.8,0,0,0,0,1.12.79.79,0,0,0,1.09,0,26.77,26.77,0,0,1,37.87,0l0,0a.79.79,0,0,0,1.11-1.12Z"/><path d="M40.6,24.88a22,22,0,0,0-31.21,0,.78.78,0,0,0,0,1.11.79.79,0,0,0,1.12,0,20.45,20.45,0,0,1,28.93,0l0,0a.79.79,0,0,0,1.12,0A.78.78,0,0,0,40.6,24.88Z"/><path d="M36.14,29.33a15.75,15.75,0,0,0-22.29,0A.79.79,0,0,0,15,30.45a14.18,14.18,0,0,1,20,0l0,0a.79.79,0,0,0,1.11-1.12Z"/><path d="M31.71,33.8h0a9.48,9.48,0,0,0-13.39,0,.79.79,0,0,0,0,1.11.8.8,0,0,0,1.12,0l0,0a7.88,7.88,0,0,1,11.15,0,.79.79,0,0,0,1.12,0A.8.8,0,0,0,31.71,33.8Z"/><circle cx="25" cy="40.01" r="2.24"/></svg>