<svg id="Camada_1" data-name="Camada 1" xmlns="http://www.w3.org/2000/svg" viewBox="0 0 50 50"><defs><style>.cls-1{fill:#f0592a;}</style></defs><path class="cls-1" d="M39.87,9.92A21.41,21.41,0,1,0,9.59,40.21,21.41,21.41,0,0,0,39.87,9.92ZM24.73,43.83A18.77,18.77,0,1,1,43.49,25.06,18.79,18.79,0,0,1,24.73,43.83Z"/><path class="cls-1" d="M20.79,16l8.59,8.62a.57.57,0,0,1,0,.82l-8.59,8.62a.57.57,0,0,0,0,.82L21.84,36a.58.58,0,0,0,.82,0L33.12,25.47a.57.57,0,0,0,0-.82L22.66,14.16a.58.58,0,0,0-.82,0l-1.05,1.05A.57.57,0,0,0,20.79,16Z"/></svg>