<svg id="Camada_1" data-name="Camada 1" xmlns="http://www.w3.org/2000/svg" viewBox="0 0 50 50"><defs><style>.cls-1{fill:#f0592a;}</style></defs><path class="cls-1" d="M40.16,9.94A21.41,21.41,0,0,0,9.88,40.23,21.41,21.41,0,1,0,40.16,9.94ZM25,43.85A18.77,18.77,0,1,1,43.79,25.08,18.78,18.78,0,0,1,25,43.85Z"/><path class="cls-1" d="M27.05,14.22,16.67,24.64a.62.62,0,0,0,0,.89L27.05,36a.64.64,0,0,0,.9,0l1-1a.63.63,0,0,0,0-.9l-8.51-8.55a.62.62,0,0,1,0-.89l8.51-8.55a.63.63,0,0,0,0-.9l-1-1A.64.64,0,0,0,27.05,14.22Z"/></svg>