<svg id="Camada_1" data-name="Camada 1" xmlns="http://www.w3.org/2000/svg" viewBox="0 0 205 146"><defs><style>.cls-1{font-size:86.41px;}.cls-1,.cls-2{fill:#fcfcfc;font-family:Roboto-Regular, Roboto;}.cls-2{font-size:105.72px;}.cls-3{fill:#fff;}</style></defs><text class="cls-1" transform="translate(115.5 101.28) scale(1 1.01)">EI</text><text class="cls-2" transform="translate(50.96 108.24) scale(1 1.01)">G</text><path class="cls-3" d="M116.65,116.73a2,2,0,0,0,2.8.15,50.68,50.68,0,0,0,4.12-3.74,2,2,0,0,0-2.79-2.8c-1.21,1.22-2.53,2.39-3.85,3.49a.69.69,0,0,0-.13.11A2,2,0,0,0,116.65,116.73Z"/><path class="cls-3" d="M86.34,13.28c1.72.17,3.45.43,5.15.76h.39l0,.05a2,2,0,0,0,.37-4c-1.82-.35-3.67-.62-5.51-.8a2,2,0,0,0-.38,4Z"/><path class="cls-3" d="M69.65,11.54a2,2,0,0,0,2.13,1.83h.3c1.71-.26,3.44-.44,5.18-.58a2,2,0,1,0-.24-4c-1.85.11-3.71.3-5.53.58A2,2,0,0,0,69.65,11.54Z"/><path class="cls-3" d="M112.94,22.93c1.42,1,2.82,2,4.14,3.14A2,2,0,1,0,119.62,23c-1.43-1.17-2.92-2.31-4.44-3.36a2,2,0,0,0-2.24,3.27Z"/><path class="cls-3" d="M105.91,18.66h0Z"/><path class="cls-3" d="M100.27,16.35c1.62.59,3.23,1.27,4.79,2a2,2,0,0,0,.83.19,2,2,0,0,0,.82-3.77,48.71,48.71,0,0,0-5.12-2.16,1.31,1.31,0,0,0-.28-.09,2,2,0,1,0-1,3.82Z"/><path class="cls-3" d="M76.77,130.52c1.25.11,2.57.11,3.89.11h1.68a2,2,0,0,0-.11-4,50.4,50.4,0,0,1-5.21-.12,2,2,0,0,0-.25,4Z"/><path class="cls-3" d="M21.61,85.05c.46,1.76,1,3.54,1.63,5.29h0A2,2,0,0,0,27,89a50.66,50.66,0,0,1-1.52-5,2,2,0,1,0-3.85,1Z"/><path class="cls-3" d="M22.15,62.26h.33a2,2,0,0,0,1.93-1.62c.29-1.71.65-3.43,1.09-5.09a2,2,0,0,0-3.84-1c-.46,1.79-.84,3.62-1.15,5.45A2,2,0,0,0,22.15,62.26Z"/><path class="cls-3" d="M16.88,37.46l1-1,6.36,1.92a1.92,1.92,0,0,0,1.95-.52S36.29,27.12,36.37,27l0,0a1.91,1.91,0,0,0-.76-2.6L18.85,15.11l2-2L42,19.44a1.89,1.89,0,0,0,2-.53l7.93-8.38A2.76,2.76,0,0,1,55,9.74h.07a4.16,4.16,0,0,1,2.15,2.14,2.74,2.74,0,0,1-.75,3.17l-8.3,7.81a1.92,1.92,0,0,0-.62,2.05L54,46,51.91,48s-9.38-16.9-9.52-17l0-.06a1.92,1.92,0,0,0-2.71,0L29.21,40.72a1.92,1.92,0,0,0-.62,2l1.91,6.33-1,1L26.25,44.2l-.85-1.72a1.9,1.9,0,0,0-.87-.88l-1.7-.85Z"/><path class="cls-3" d="M27.23,99.28c.9,1.62,1.87,3.21,2.9,4.75a2,2,0,1,0,3.25-2.29c-1-1.43-1.89-2.92-2.72-4.44A2,2,0,0,0,28,96.52l-.09,0A2,2,0,0,0,27.23,99.28Z"/><path class="cls-3" d="M19.75,69.47v.27c0,1.85.08,3.71.25,5.55a2,2,0,0,0,2,1.83h.19A2,2,0,0,0,24,75c-.16-1.73-.24-3.47-.24-5.2v-.31a2,2,0,0,0-4,0Z"/><path class="cls-3" d="M89.46,127.85a2,2,0,0,0,2.16,1.79H92c1.83-.38,3.65-.82,5.42-1.32a1.55,1.55,0,0,0,.23-.06,2,2,0,0,0-1.31-3.74,41.12,41.12,0,0,1-5.08,1.16A2,2,0,0,0,89.46,127.85Z"/><path class="cls-3" d="M61.79,127.77c1.76.57,3.57,1.07,5.36,1.48a2,2,0,1,0,.88-3.87,40.18,40.18,0,0,1-5-1.32V124a2,2,0,0,0-1.23,3.77Z"/><path class="cls-3" d="M103.9,124.15a2,2,0,0,0,2.64.95c1.68-.83,3.33-1.7,4.93-2.64a2,2,0,1,0-2-3.42c-1.49.84-3,1.69-4.61,2.47A2,2,0,0,0,103.9,124.15Z"/><path class="cls-3" d="M36.22,111.54c1.25,1.35,2.65,2.66,4,3.89a2,2,0,0,0,2.64-3,47.27,47.27,0,0,1-3.73-3.64h0a2,2,0,0,0-2.9,2.71Z"/><path class="cls-3" d="M48,121.36c1.56,1,3.18,1.93,4.82,2.78a2,2,0,0,0,1.81-3.53c-1.53-.85-3-1.72-4.5-2.64v0a1.56,1.56,0,0,0-.43-.21,2,2,0,0,0-2.32.73A2,2,0,0,0,48,121.36Z"/></svg>