<svg id="Camada_1" data-name="Camada 1" xmlns="http://www.w3.org/2000/svg" viewBox="0 0 1920 1080"><defs><style>.cls-1{opacity:0.2;}</style></defs><g id="_7G0twR" data-name="7G0twR" class="cls-1"><path d="M941.93,339.88c-2.78-10.48-6.9-1.87-9.6-.27-11.07,6.54-16.05,4.42-18.36-7.75-2.88-15.24-1.19-26.64,13.59-37.15,16.1-11.44,26.7-29.23,24.55-50.68-1-9.65,7.86-6.23,10.74-8.3,14.7-10.57,30.57-29.31,49.84-18,17.91,10.47,38.67,13.55,55.41,26,7,5.18,6.6,11.08,6.05,17.89-5.35,6.09-12.07,7.77-19.8,6.17a23.6,23.6,0,0,1-10.61-5.87c2.13,3.52,6.32,4.94,7.26,8.86,7.16,4.72,13.31,2.62,18.48-3.19,1.64-1.85,2.93-4.11,4.71-5.92,10.39-1.68,16.71-5.84,11.5-17.8-1.25-2.85-4.1-7.54,2.73-7.62,3.9,0,7.41,1.84,7.19,6.41-.15,3.22-4.08,7.07,1.71,8.83,5.19,1.57,6-3.49,7.53-6.27,9.65-17.31,28.45-13.59,43.15-17.6,12.9-3.52,7.5-5.86,2.31-10.69-.51-2.79-.1-4.56,3.33-3,2.63.09,5.38-.3,7.87.33,15.68,4,25.24,5.19,15.4-16.8-3.93-8.79,1.86-21.93,3.35-34.06,9.75,6.62,18.7,12.37,17.68,25.2a29.1,29.1,0,0,1,7.29,7.1,24.26,24.26,0,0,1,3.52,11.74c2,5.32,6.52,9,9.14,13.9.34.56,0,1.4.75,1.78a28.65,28.65,0,0,1-.69-4.31c.15-1.26,1.08-2.24,1.36-3.47-7,2.76-7.08-4-9.87-7.06-1-4-1.33-8.18-3.4-11.87a22.42,22.42,0,0,1-4.92-11c.89-2,1.79-4,2.69-6,4.08-1.92,5.54,1.55,7.57,3.62,2.73,1.38.62-.56.56-1.1a2.85,2.85,0,0,1,1.27-2.75c1-7.55,4.83-11.26,12.78-9.12,1.43-.09,2.47,1.61,4,.88a9.87,9.87,0,0,1-3.81-4.54c-.11-5.14-7.19-10.18-.21-15.41,1.79-2.67,4.86-1.7,7.28-2.57,1.11-3,11.3-2.64,3-9.49-4-3.25-4.15-7.73,1.69-12.41,9.53-7.64,17.45-17.29,26-26.09,6.89-2.91,10.83-7.38,9.72-15.59-.83-6.16-1.17-12.68,5.93-16.19,5.62-.71,9.37,2.39,13.89,5.26,4.33,2.77,9.82,5.08,16,4,23-3.87,34.18,8,30.15,31.64-1.76,2.26-1.48,4.93-1.4,7.51,0,1.42-.49,3,.49,4.27-.32-1.62-.1-3,1.37-4.06,9.28,1.74,18.34,1.32,27.25-2.18,3.82-1.5,7.65-2.79,12-.41,9.46,5.16,19,11.24,21.26-7.44.79-6.41,20.75-4.39,27.7,3.43,3.57,4,7.23,8,9.47,13.63,1.45,3.67,7.72,8.37,15.31,9-4.33-17.92,12.37-11.51,19.51-16.64,4.84-3.48,14.6-1.38,5.9-12.46-5-6.37,1.77-10.23,8.89-11.72,18.23-3.8,36-3.45,52,6.83,7.06,4.55,11.38,1.71,16.87-1.48,10.86-6.31,20.91-6.83,28.77,5a10.6,10.6,0,0,0,3.07,3.48c5.82,3.28,30.2-7.26,33.58-14.38.64-1.61,2.63-3,3.45-2.2,10.54,10.6,5.81-3.48,8.61-5.24,25.51-10.87,50.71.16,76,1.57,6.73.38,11.34,5.66,19.6-.88,6.39-5.06,18.44.83,17.11,11.17-1.26,9.76,4.11,15.48,7.21,23.22-1.25,1-2.3,2.43-3.52,2.58-27,3.44-27.21,3.41-27.85,28.59-.15,5.92,7.4,5.77,10.56,9.7,6.15,7.68,22.06,12.19,1.19,23.39-10.58,5.67-11.46,21.68-12.15,34.49-22-1.69-33.48,11.15-28.86,30.28,1.59,6.54,7.7,5.76,10.27,10.65,8.3,15.84,7.27,32.36,3.22,48.21-2.16,8.42,4.31,21.86-4.75,24-8.3,2-9.5-12.69-15.39-18.9-26.08-27.5-12.08-58.78-7.33-88.83a27.8,27.8,0,0,0-2.38-17.57c-1.82,3.7-3.83,6.47-4.57,9.55-2,8.11-4.21,10.67-10.29,2.39-5.52-7.52-13-3.77-14.25,2.16-1.52,7.16-5.43,15.42-1.44,22.68,2.25,4.11,3.43,6.34-1.37,8.18-3.44,1.31-5.53,5-11.07,2.06-13.92-7.44-43.35,7.71-47,22.7-2.71,11.18-6.41,22.11-9.67,33.16-2.57,6.69,5.52,3.05,6.31,6.5,6.26,10.47,18.74-3.11,25.22,6.51,4.21,1.32,6.17,4.62,7.52,8.47,3.63,7.35-1.92,15.36,1.64,22.74,7.86,17.34,2,55.07-10.53,68.33-2.29,2.42-4.73,4.59-8.15,3.16a6.93,6.93,0,0,0-9.86,5c-2.53,12.67-14,24.63.21,38.65,11.29,11.12,9.28,20.94-1.1,23.34-2.79.64-7.14,2.64-7.77-1.93-1.37-10-10-16.79-12.46-24.42-5.77-18.16-12.75-7.73-20.57-3.83-4.47-3.32-.17-9-3.72-13.23-8.22,3.08-16.06,13.24-15.28,17.24,2.84,14.48,18.34.95,25.68,8.16,1.34,4.88-2.83,5.12-5,7-6.28,5.39-8.91,9.46-1.45,17.69,25,27.55,13.09,57.86-6.77,76-9.22,8.42-23.59,8.09-33.46,16.28-3.62,2.13-4.69-1.83-7-2.91-17.68,3.44-21.9,11.68-12,23.37,23.31,27.41,23.31,27.41-.41,51.61-1,2.71-1.9,5.51-5.64,3l.32.59c-5.48-9.77-16.67-12.74-24-21.28-8.64,10.17,4.08,19.09.17,28.18-1.12,2.13-2.48,3.84-5.28,2.85-7.47-5.35-10.94-12.31-9.1-21.66s-1.79-17.57-4.6-26c-2.12-6.34-3.83-12.16-12.94-7.27-6.35,3.42-7.85-1.27-8.22-6.95-.83-12.76-11.84-19.61-19.21-27.49-4.41-4.71-16.13-.9-22.24,4.65-10.79,9.81-20.26,21.05-30.74,31.22-3.92,3.8-4.38,7.8-4.49,12.7-.15,6.23-.39,12.7-2.21,18.57-2,6.39-5.64,13.71-12.92,14.17-6.44.42-5.72-7.65-8-12-10.07-19-20.56-37.82-23.48-59.64-.19-1.38-1.22-2.64-1.85-4-15.52,7.65-17.87-8-24.33-14.71-8.86-9.21-17.89-12.24-30.43-9.9-12,2.23-23.83-1.44-35.28-5.4-15.49.63-29.66-2.2-40.68-17.46,1.26,7.18,5,10.06,7.94,13.37,7.6,8.42,15.42,14.69,25.85,3.54,1.91-2,4.83-1.71,7.15.27-1.72,7.45,1.28,11.43,8.51,14,9.66,3.49,12.29,8.73,5.45,18.88-18,26.78-46.51,35.68-74.29,46.18-2.25,3.71-7.37-.78-9.49,3.32,0,8.71,5,10.71,12.55,9.28,6.72-1.27,13.43-2.58,20.18-3.65,3.41-.54,7.06-4.44,10.19-.86s1.7,8.17-.23,11.88c-8.42,16.23-15,33.3-31.71,44.26-10.35,6.78-18.39,17.21-27,26.41-10.39,11-8.39,24.36-4,36.71,8.73,24.79,6.33,33.34-15.33,48.31-8.92,6.16-19.39,11.93-12.66,26.31,1.27,2.7,0,9.58-1.77,10.22-13.91,5.19-13.85,19.46-20.08,29.46-15.36,24.68-37.87,35.08-66.21,35.45-7.91.1-10.55-3.17-12.73-10.43-8.22-27.35-15.84-55.07-26.82-81.34-5.37-12.83-5-23.36.12-34.46,8-17.4,6.28-40.82-7.66-54.16-9.84-9.41-12.06-18.9-8.33-31.1,3.66-12,1.44-19.18-13.36-15.49-3.29.82-7.05.11-8.48-2.81-7.16-14.61-17.46-7.56-28.29-5.73-22.25,3.78-45.77,13.43-65.7-6.73-10.54-10.66-17.33-24.57-29.15-34.18a2.47,2.47,0,0,1-.53-1.46c-2.63-16.83,2.61-33.37,1.71-50.58-.75-14.37,13-30.16,28.34-39.41,3.48-2.09,8.2-5.28,8.73-8.55,1.95-12.22,7.46-20.64,17.9-27.89,6.53-4.54,8.81-14.69-3.09-17.75-10.21-2.62-10.12-10.05-9.4-16.86,2.85-27,3.17-27,30.82-27.88,11.23-.37,15.5-9.12,9.6-19.37-3.46-6-9.68-9.08-16.05-12.84,10.2-9.33,26-5.09,31.45-18.41l-.23.23c12.26-6,15.69-23.57,32.53-24.27,3.5-.14,1.24-6.13.3-9.6-1.82-6.78-2.87-13.52,5.22-17.41,8.61,1.35,7.82,7.45,6.94,13.61-2.28,10.75,5.12,6.93,10.12,6.67,9,0,17.65-2.73,26.34-4.46,12.66-2.51,14.52-15.56,16.43-24.4,2-9.09,5.84-12.3,13-14.66a21.92,21.92,0,0,1,11.42-1.26c-4.65-.85-9.12.05-13.57,1.41-17.3-.88-20.33-4.66-22.32-27.72.71-4.29,4.19-6.91,6.4-10.31,1.91-2.94,4.94-5.29,4.78-12.4-6.2,6.61-5.55,14.84-10.87,19-8.26,8.26-10.71,16.17-4.33,27.93,7.53,13.89-8.21,39-24.26,41.68a12.31,12.31,0,0,1-5.71-3.79C944.32,354.77,941.16,348,941.93,339.88Z"/><path d="M276.87,571.7c-12.95-15.63-18.83-34.59-25.09-53.37-1.32-4-1.42-9.34-4.14-11.65-30.8-26.2-26.27-57.79-14.5-90.56,6-16.62,11.53-33-3.35-48.19-1.95-2-3.14-5,.09-8.17,5.1-5.05,2.49-11,1.58-17.23-2.09-14.36-7.83-27.31-14.16-39.83-3.89-7.69-2.16-15.38-4-22.87-5.25-21.67-26-27.88-40.66-40.07-.14-.12-2,1.82-3,2.8-1.25,5.22-6.5,3.88-9.7,5.91-5.19-1.19-9.79,10-15.37.73,1.24-3.69.13-5-3.66-3.64-9.1.13-5.74,9.47-9.83,13.3,1.12,2.71-.71,3.55-2.69,4.33-5.28,1.46-10.62,2.7-15.74,4.73-9.91,6.61-19.52,13.84-31.78,15.71-3.64,1.32-7.78,4.39-9-2.58,11.71-4.76,23-10.3,32.51-18.79,5.6-5,8.74-10.49-1.91-14.07-5.14-1.72-11.71-3.39-7.38-11.6,1-1.93,1.53-4.6-1.11-5.19-17.55-3.92-8.19-16.85-5.5-23.36,3.67-8.9,10.76-18.57,22.61-18.89,4.66-.13,8.47-2.73,13.54-2,5.83.83,7.67-5.46,7.42-10.07-.38-7-5.65.17-8.21-2-4.31-3.72-15.44.94-13.9-8.59.95-5.9-4.05-16.49,6.61-17.93,6.74-.91,16.28-11.84,21.16,3.42,1.05,3.27,5.55,1.86,8.64,1.49,13.63-1.53-6.43-6.81,1-9-5.44-7.31-1.5-16.37-4.56-24.34-1.62-4.23,3-9.86,6.31-9.32,17.55,2.84,27.91-12.35,43.13-16.11,20.31-5,24.54-5,37.46,12.15,5.27,7,13.66,12.62,21.8,16.26,7.48,3.34,14.85,7.54,18.38,13.67,10.35,18,26,12.3,39.45,9,7.63-1.9,15.34,6.54,21.79-1.57.14-.18,1.7.35,2.17.9,5.7,6.78,31.91,28.44,38.33,31.57,4.63,1,9.31,1.94,8.92,8.31.05,2.73-2.88,4.1-3.11,6.72,7.81.65,14.87,3.44,22,6.62,2.09.94,2.93-3.36,2.57-6.06,1.39-5.84,5.67-6.47,10.6-6,4.06.95,6.49,3.91,8.77,7.06,7.27,11.79,17.33,11.4,28.4,6.49,3.71-.29,6.13,2.42,9.08,3.85,6.51.69,6.88-3.76,7-8.38-.17-2.87-1.12-5.57-1.68-8.36-1-5.7.17-10.79,4.29-15,5.62-3.48,8.86-11.22,17.27-9.76,3.61,1.76,6.29,5.07,5.63,8.64-2.51,13.7,1.67,26.05,6.52,38.35-.1,1.49-1.23,2.81-.93,4.44a20.1,20.1,0,0,0,2.28-2.05c6.73-6.13,10.22-10.86,3.85-21.24-7.3-11.9-6.65-28.16,13.46-45,17.09-6.32,33.25-.3,49,4.93,9.23,3.07,5.73,12.68,5.65,20-1.27,13.16,12.14,16.39,17.47,25.2,3.06,5.07,8.53,11,5.6,15.19-10.74,15.31,2,22.32,10,29.64,9.41,8.57,2.49,12-2.74,17.16-6.29,6.22-10.82,7.11-13.82-2.75-.7-2.29-2.49-5.34-5.69-3.76-3.72,1.84-2.36,5.29-1.33,8.28a10.17,10.17,0,0,0,1.58,2.69c6.19,7.9,8.38,16.7-.21,23.41-10.76,8.4-22.52,5.31-28.07-5.93-5.21-10.59-9.13-18.44-22.68-15.29-3.12.73-6.27-2.16-5-6,1.48-4.43,4.85-5.57,9.89-5.56,14.64,0,27-17.09,22.57-30.38-8.25-1.34-7.41-9.6-11-14.47-2.45-7.71-10.24-2.49-14.45-5.95-1.86-2-3.92-3.34-6.76-2,6.64,9.92-4.15,16.1-5.53,24.42-2,12.27-10.34,16.92-22.61,11.73-6.25,3.45-6.32,10.92-10.26,15.88-2.13,3.16-4.53,5.92-8.87,5.52-20.11,5.37-34.57,18.73-46.46,34.71-8.61,11.57-3,27.22,9.83,34,11.86,6.25,18.83,19.71,33.56,22.42,3.55.66.39,6.68-.17,10-.88,5.23-2.63,10.28.91,15.1,1.78,2.42,3,5.87,7.08,5.09,3.84-.74,5.18-3.81,4.82-7.05-1.47-12.89,2.4-22.22,15.46-27,4.16-1.51,7.14-7.34,5.33-10.47-8.65-14.92,4.46-26.21,5.77-39.4,1.34-13.45,17.48-18.68,26.12-8.12,5.6,6.84,18,12.58,11.35,26-2,4,1,8.52,4.71,10.83,4.67,2.93,7.91-1.14,10.73-4s5-6.53,9.16-12.06c3.25,11.25,8,20.42,8,29.6,0,10.95,5.14,16.13,12.5,22.73,6.51,5.83,15.79,13.72,7.64,25.26-3.54,3.07-8.68.08-12.2,3.23-11.61,14.83-27.37,4.36-41,6.72-2.7,2.42-3.49,7.59-8.85,6.46,4.79,1.35,10.77-1.47,14.67,3.6-5.56,17.5-4.66,18.6,15.15,17.75,1.63-.07,3-.42,3.65,1.35,1,2.78.53,6.11-2.48,6.35-11.66.94-19.41,18.52-35,6.75-3.91-3-20.29,1.95-20.22,10.21.09,12.17-7.93,12-14.15,14.77-11.64,5.11-20.05,16.92-20.94,25.61-1.81,17.61-14.93,22.34-25.21,29.47-10.78,7.48-13,15.44-9.74,26.76a28.06,28.06,0,0,1,1.3,6.16c.3,5.42,3.63,13.19-4,14.67-6,1.16-7.2-6.66-8.9-11.35-7.41-20.45-18.39-24.53-38.79-13.47-4.63,2.51-8.12-.12-12.05-.81-16.34-2.9-27.3,5-31.25,21.42-2.59,10.75-6.87,21.21-2.47,32.31,3,7.55,7.42,15.52,16.13,15.3,7.61-.18,17.44-.27,20-11.36,1.48-6.46,7.46-6.8,12.4-8,6.59-1.61,10.93-.62,7.22,7.79-1.25,2.84-1.19,6.38-2.81,8.91-8.11,12.68-6.45,18.38,10.12,17.28,10.92-.72,15.29,6.05,11.58,16.55-4.79,13.6-.05,21.3,13.74,24,3.43-.81,4.42.61,3.48,3.81-.38,3.47-1.7,6.92-5.73,4.77-10.6-5.66-23.33-8.17-28.89-21.34-2.65-6.27-8.62-10.45-15.81-11.84-8.93-1.73-16.9-5.12-23.41-11.85-2-2.07-5.84-4.5-8-3.89-19.35,5.36-32.7-7.84-47.8-15.13-6.63-3.2-10.29-8.23-10-17.43.46-17.68-18.5-25.61-23.75-41-.79-2.32-3.16-4.12-4.79-6.16-5.16-3.18-6.94-8.5-9.61-15.64,2.35,7.74,5.65,13,6.43,19.18l7.14,21.12C281.44,571.16,280.06,572.34,276.87,571.7Z"/><path d="M445,667.06l-3.48-3.81c.37-.37.84-1.14,1.09-1.07,18.08,5,29.18-9.92,43.63-15.25,2.35-.87,5.44-2.84,7.1-2,23.53,11.27,54.51,2.85,72.92,27.64a16.1,16.1,0,0,0,13.59,6.87c19.83-.43,29.46,12,34,28.8,1.38,5.11,3.87,7.95,7.28,8.57,14.8,2.7,26.78,13.71,42.67,13.37,13.56-.29,22.71,10.31,32.26,17.51,6.56,5,5.08,15.67-1.66,22.7-10.8,11.28-18.12,23.36-17.4,40.14.37,8.5-2.75,17.41-7.15,25.55-3.21,6-6.56,9.4-13.48,11.48-15,4.51-27.5,9.85-29.7,30.58-1.8,16.95-17,30.46-26.77,45.19-4.14,3.59-16.58-4.82-13.43,9.3,3,4.77,1.86,11.84-1.51,12.73-13.82,3.67-22.35,14-32.57,22.33-1.67,1.36-4,3.3-2.75,4,11.25,5.61.45,10.54.05,15.8-.7,9.32-17.13,19.32,1.1,28.33,2.49,1.23-1.24,5.44-2.6,8.18-11.55,23.28-8.12,34.78,14.27,48.41-15.12,10.81-36.72,3.42-46.86-11.69-11.12-16.55-10.46-35.57-16.5-53-.45-1.3,1.88-3.55,2.92-5.35,5-7.65,10.25-15.34-3.44-19.73-.62-49.79,6.25-99.38,3.83-149.25-.44-9.22-4.2-15.81-11.69-18.69-17.29-6.65-24.88-21.42-33-36-5.08-9.07-8.85-18.59-16.88-26.2-7.66-7.26-1.75-36.26,10.08-47.66,12.57-12.12,9.54-23.8,2.94-36.67C451.21,663,448.23,665,445,667.06Z"/><path d="M817.76,56.36q-.91,5.18-1.82,10.36a12,12,0,0,0,2.73.1c9.25-1.84,19.74-13.88,27.4-.76,6.22,10.67-10,11.57-13.06,19.3-2,5.17-6.08,9.55-9.22,14.28a40.38,40.38,0,0,1-5.36,10.27c-1.57,9.49-7,18.87-.31,28.6.82,1.2,0,5-1.17,5.8-3,2.07-8.73-8.27-10.12,1.58-.49,3.48,4.08,7.42,4.38,11.3.82,10.72-2,20.83-9.8,28.56a23.69,23.69,0,0,0-7.28,18.66c1.29,18.71-4.87,29.7-23.61,35.89-14.27,4.72-30.07,5.95-38.92,20.75a5.92,5.92,0,0,1-4,2.38c-27.16,2.69-31.67,26.82-41.65,45.05-4.79,8.77-4.85,11.23-16,4.84-25.61-14.7-20.22-39.39-24-60.95-2.13-12.06,7.08-19.85,16.93-25.69,2.11-4.48.34-5.22-3.67-3.8-4.55,1.07-8.78.85-9.82-4.7-1.07-5.77,1.85-11.28,6.7-12.79,12-3.75,7.52-5.25-.4-7.21-7.55-1.87-3.12-7-2-10,4.95-12.88,2.53-25.61,1.41-38.72-1.36-15.87-10.14-21.06-23.94-20-10.55.82-15-3.7-15.91-13.41-2.38-4.16-.56-6.84,3.11-8.86a16.55,16.55,0,0,1,2.66-.58c.91-.12,2.45-.06,2.59-.51.46-1.4-1.12-.35-1.56-.91a4.55,4.55,0,0,1-2.34-2.17C613,91.5,615.05,84.8,629.64,83.7c5.05-.38,9.91-2.6,15.27-2.72,6.53-.15,12.77-6,9.23-10.64-7.5-9.83.89-11.22,5.41-15.2,2.7-2.93,4.48-7,9.15-7.55,5.11-.28,6.46-4.21,7.83-8.11a7.42,7.42,0,0,1,4.64-3.88c6.7-.37,13.52,1,20.09-1.4,10-2.61,14.73,2.41,16.24,12.25,5.4-.66,6.7-23.24,15.07-3.16,1.15,1.15,2.3,2.32,3.44,0,3.59-10.85,6.22-19.78,22-21.22,13.25-1.21,25.72-9.64,39.53-1.51,3,1.79,7.25,1.89,7.38,6.73-7.42,3.7-15.4.55-22.49,1.89,7.43.58,15.5-1.44,23.35,1.13,4.46,3.1,8.9,6.22,13.38,9.29,6.13,4.2,3.27,7.43-1.07,10.54a22.26,22.26,0,0,1-3.76,2.09c-4.57,1.71-9.06.29-14.37-.67,3.54,1.23,5.09,4.76,8.66,3.83C811.76,54.78,815.09,52.63,817.76,56.36Z"/><path d="M1636.82,939.43c-5,1.12-5.73-1.79-6.56-5.95-3-15.11-14.74-18.78-27.4-17.08a100.2,100.2,0,0,0-32.71,9.71c-12.1,6.15-27,6.12-40.2,10.86-4.14,1.47-11.65-3.54-9.66-7.64,9.36-19.25-1.28-38.2.76-57.23,2.8-26.23,2.4-27.21,27.66-34.15,13.26-3.65,25.07-7.62,28.35-22.94,10.37-8.77,17.42-23.27,35.08-19.34,3.78.84,6-3.51,8.4-6.31,8.62-10.1,28.84-12.21,39.55-4.54,4.76,3.41,2.94,7.44,1.62,11.25-3.79,10.95,4.42,15.07,11.55,16.92,9.36,2.42,7.8-7.33,9.85-12.51,1.14-2.89.77-6.26,1.64-9.28,1.42-4.92,2.32-11.66,9-10.64,6.17.93,7.22,6.78,6,12.55,9,28.67,25.42,53.31,41.29,78.46,6,9.47,1.21,22-1,33-3.82,18.85-19,31.19-27.15,47.51-4.57,9.14-7.26,17.36-19.48,21.64-22.51,7.89-39.31.82-43.69-22.49-.25-1.33-1.78-2.41-2.72-3.61C1642.85,945.91,1640,942.42,1636.82,939.43Z"/><path d="M1699.83,793.11c-1.77-3.7-3.55-7.39-5.82-12.13-8.14,7.93-5.43,18.2-8.64,26.44-2.1,5.39-1.49,17.63-10.7,11.74-7.23-4.62-26.3-5.09-17-23.27,1.16-2.26,2.14-4.6,3.45-7.42-6.83-1.58-12.76-2.89-18.67-4.34a19.25,19.25,0,0,0-7.33-.66c-12,1.4-14.14,20.13-21.22,18.06-12.74-3.72-19.44-1.56-25.93,8.65a10.42,10.42,0,0,1-10.92,4.83l-5.08-3.26c12.36-7.82-1.28-21.47,6.74-30.18,4.17-4.52,4.4-8.08-1.72-10.8a1.92,1.92,0,0,1-1.14-2.52c-2.68-2.8-5.49.65-8.2-.14a30.32,30.32,0,0,1-6-.17c-4.47-.35-8.94-.83-13.35.48a12.52,12.52,0,0,0-2.89,2.39c-.58,16.83-9.15,8.35-16.38,4.93,3.34-2.93,9-3.07,10.05-8.37-9.16-6.09-18.43-10.78-30.24-10a27.37,27.37,0,0,1-21.19-8.45c3.29-14.58-10.34-22-14.25-33.56.17-3.94,3.31-7.47,1.55-11.68-.49-13.6-12-21.2-17.46-32.07-3.81-10.33-11.57-20.32-1.6-31.93,11.38,5.67,22.09,12.91,26.93,26.44-3.31-2-6.15-5.39-10,.09-4.81,6.94,3.23,4.31,3.63,5.63,1.94,6.45,2.53,13.31,3.7,20.64,10.69-5.29,20.67-7.86,23.42,8.7.24,1.45,3.16,2.46,4.84,3.67,3.3,8,1.54,18.44,10.58,23.71,6.49,3.79,15.42,7.71,20.75,3.16,8.09-6.88,14.59-16.92,13.26-28.69-1-8.72.27-15.6,7.88-20.55,7.17,7,8.6,17.16,13.6,25.36.42,2.41-.71,4.26-2.12,6-4.41,4.38-4.73,10.34-6.2,15.89-2.23,8.38,3.78,5.48,8,7.19,10.26,4.15,4-3.45,4.12-5.32a10.16,10.16,0,0,1,4.37-7.9c2.34-2,4.86-3.86,3.63-7.54-2.87-3.36-9.76-1.9-9.94-8.33,2.21-1.31,8.18,1.39,6.62-3-2.67-7.49.72-7.08,5.39-5.68,5.93,1.79,11.48,4.31,18,2.34,19.89-5.95,30.13,9.71,42.92,19.6-2.46,2.59-8.37-.14-8.77,4.69-.36,4.5,3.33,7.46,7.24,9.24,7.52,3.41,18.8,3.85,21.67,11,5.47,13.69,17,18.39,27.74,24.92-6.61,4.67-2.35,6.54,2,8.88C1706.87,783.87,1708.88,788.38,1699.83,793.11Z"/><path d="M681.28,37,679,39.05c-2.09,3.67-6.44,4.82-9,8a12.22,12.22,0,0,1-5.7,1.23c-4.44-.89-7.21,2.63-10.76,4.09a2.78,2.78,0,0,1-2.57.76,41.89,41.89,0,0,1-11.73,2.44c-8.11.51.89,4.91-1.79,6.35-20.14,3.14-24,26.91-42.08,33.38-3.44,1.23-11.8,4.22-9.66,13.38,1.45,6.22-5.35,8-9.59,6.94-12.21-3.08-25.91-.84-36.51-9.78-2.57-9.95,10.43-7.63,11.51-14.7,1-2.64,1.76-5.39,3.81-7.48,1.31-2,4.21.83,5.17-1.74.09-.23-1.56-.84-2.58-.9-1.95,0-3.85.2-5.77.13a12.47,12.47,0,0,1-5.8-1.72A13.6,13.6,0,0,1,543.14,74c1-20.77,6.07-39.54,23.2-53.64,4.47-3.69,5.89-2,8.47.79,3.87,4.07,1.93,9.61,3.6,14.22a11.6,11.6,0,0,0,6.1,6c-1.28-2.29-4.12-2.78-5.18-5.07-4.71-6.43,2-12,1.31-18.13.34-3.51,2-6.38,5.64-6.4C606.5,11.67,624.59,1.35,644.62.08,666-1.28,687.91,15.27,687.76,33.76,686.32,36.27,684,37,681.28,37Z"/><path d="M555.46,84.53l-.18,8.75c-5.11,3.25-10.48,5.75-16.67,5.88-5.66.25-7.28-8-13.6-6.39-8.31,4.81.13,8.78,1,12.71,1.61,6.93-7.33,14.84,1.18,20.43,10.36,6.81,22.37,8.41,34.65,7.76a11.35,11.35,0,0,1,6.09,1.09c5.77,11.36,14.07,22.5,3.13,35.34-4.1-19.35-6.63-19.93-29.19-20.78-8-.3-15.53-9.21-24.44-1.63-2.67,1.28-3.89-.5-5.06-2.39-5-13.56-14.47-7.14-22.95-5.22a9,9,0,0,1-4.16-1.25c-3.18-3.7-7.92-8.08-11.22-2.72-3.51,5.7-14.58,7.78-9.38,18.67,2.68,5.59,9.3,10.5,5.8,18.23-3.06,4.89-5.44,9.93-3.35,15.91-5.33,3.77-11.49,1.71-17.26,2.5a8.79,8.79,0,0,1-7.29-4.69c-8.74-31.94-8.46-35.25,4.81-55.74-3.94-1-8.18,1.58-11.9-1.06.24-18.12-15.61-15-25.72-19.44a3.19,3.19,0,0,1,.14-3.93c6.51.13,13.5.91,12.63-9.15,7.36.9,13.45,5.33,21.89,4.42,22.63-2.45,22.72-1.64,12.9-23.81q1.59-6.3,3.19-12.6c4.73-5,11.3-7.63,15.92-12.72l-.18.21c3.35-9.28-6.08-5.52-8.8-8.61,6.78-11.6,17.22-6.13,24.7-3.06,5.72,2.35,8.82,3,12.93-1,5.13,8.34-2.84,22.45,11.75,26.58,3.76.56,6.08,2.86,7.57,6.19a22.18,22.18,0,0,1,.8,4c1.82,5.13,6.07,4.69,10.22,4.49,7.88,2.89,7.45-2.67,7.69-7.56l3.21,2.86a61.69,61.69,0,0,1,3.46,8.06c.13-2.44.43-4.8,2.45-6.52l6.32-.17C560.37,81.7,557.15,82.74,555.46,84.53Z"/><path d="M409.93,106.56c.14,1.06.29,2.11.43,3.17a25.92,25.92,0,0,1,4.26,8c3.52,10,10,14.66,20.8,11.55,1.55-.24,3.09-.58,4.65-.71,5-.42,9.88-9.54,14.62-1.81,3.94,6.41-5.33,7.41-7.4,11.58-5.47,11-12.8,21.93-4.21,34.66,2.57,3.8,2.74,7.76,1.3,11.94-3.64,2.31-6,6-9.31,8.68a15.05,15.05,0,0,1-8.44,1.33,14.85,14.85,0,0,1-4.08-1.2c-4.52-1.19-4.28-10.91-11.89-6.62-4.86-.87-8.45,1.83-12.15,4.25-6.36,1.2-12.67,2.07-17.9-3.12-.45-5.51-1.6-10.74-5.82-14.76-3.92-4.53-3.08-9,.26-13.34,3.52-3.84,7.74-1,12.12-1.3-4.62-.54-8.91-.87-11.2-5.23.3-2-.12-4.74,1-6,3-3.07,3.84-5.76,1.43-9.57-2.73-4.3-5.27-.36-7.92-.32-4.69.07-10.83,4.13-13.37-3.41-2-5.85-1.26-10.94,4.35-15.26,5.36-4.12,11.28-8.67,14.31-14.42,5.84-11.12,13.13-9.8,21.86-5.08C401.79,101.87,405.84,104.25,409.93,106.56Z"/><path d="M1697.31,771c-9.4,1.52-16.07-7.07-25.18-6.89-.75,0-2.41-2.27-2.2-3.11,5-19.59-13.24-16.09-21.92-21.39-4-2.44-10.28-.48-9.45-8.66.41-4-10.34-4.61-5.12-10.51,4.6-5.19,10.69-1.58,16,.68.45,8,.33,17.4,11.79,7.68,5.22-4.44,9.86-4.2,15.76-2,15.12,5.6,31.28,9.26,42.56,22,7,7.87,6.72,21.4,22.69,24.52-11.58,5.8-18.19,3.45-23.92-3.88C1710.6,759.59,1703.41,758.47,1697.31,771Z"/><path d="M1561,682.5c-8.44,13.07,1.77,30.91-11.3,43.12-3.69,3.44-1,14.4-8.18,13-9.72-1.93-22,.72-28.8-8.87-5.06-7.1-9.5-15.46-4.19-24.85,10.4,3.23,14.7-5.6,20.94-10.59,2.15-6,6.3-10.34,11.21-14.31,8-6.47,14.7-6.44,20.51,2.6Z"/><path d="M1166.5,784.22c7.39,10.76,4.79,19.25.91,28.37-5.1,12-9.24,24.41-13.22,36.82-3,9.43-9.23,15.5-18.38,11.57-8.84-3.8-9.17-14.2-6.11-21.93,2.89-7.3,7-13.51,4.81-22-1.09-4.19,1.67-9.31,5.65-10.23C1152.48,804,1158.54,794,1166.5,784.22Z"/><path d="M1136.38,207.64c-16.74,4.09-29.46-5.56-27.28-21.22,2-14.08,1.79-28.16,7.73-42.1,6.31-14.81,23.63-14.76,30.63-27.5,1.31-2.39,6-.58,7.8,2.53,2.48,4.37,1.29,8.29-2.84,10.87a48.32,48.32,0,0,0-19.32,22.28C1124.5,172.69,1116.27,184.7,1136.38,207.64Z"/><path d="M1476,713.81c1.21,2.79,1.88,7.57,3.69,8.05,17.29,4.55,10.3,16.55,8.81,26.91l-1.8,1.62c-4.08,1.51-7.88,1.92-10.48-2.59-20.48-17.49-26.43-45.66-51.73-63.82,21.09-1.15,27.49,13.34,38.41,20.25a4,4,0,0,1,3.73-1.09C1471.45,705.18,1473.93,709.31,1476,713.81Z"/><path d="M568,134.76c-17.29,8.24-32.2-.36-47.36-6.82-1.23-.52-3-2.8-2.7-3.46,5.15-11.64,1.53-21.47-2.41-33-2.42-7.07,7-1.42,11.13-.08,3.54,1.53,6,4.78,9.87,5.84l18.78-3.92c-2.6,7.44-12.67,5.59-15.64,12.57-2.64,1.05-6.4.6-6.34,5.13.05,4.14,2.62,5.09,6,5.21,8,4.32,17.53-1.71,25.4,3.65C568.67,124.19,568.22,129.49,568,134.76Z"/><path d="M897.09,400.63l-31.43,4.11c3.72-8.29-2.19-18.28,6.21-26.14,3.14-2.94-.52-6.52-3.59-8.75-3.74-2.74-7.29-5.53-8.18-10.59-1.42-8.1-2.1-17.49,7.66-18.7,4.76-.59,10.63,5.93,9.61,15-1,8.55,6.72,15.21,12.26,20.63,7.63,7.48,8.79,15.31,7.23,24.7Z"/><path d="M1608.88,492.72c3.77-12.58,18.88-10.33,26.45-21.09,6.47-9.2,11.26-15.3,8.49-26.17a14.82,14.82,0,0,1,3-13.24l-.23.25c6.06,6.77,16.13,45.69,11.31,49.61-7.92,6.45-17.87,10.43-27,15.41-3.08,1.68-6.25,3.2-9.37,4.79-4.83,1.58-7.34-2.68-10.92-4.3C1609,496.57,1607.55,495.09,1608.88,492.72Z"/><path d="M457.35,78c2-.35,5.49-1.4,5.7-1,2.43,5.39-1.2,12.93,8.13,16.45,2.15.82-5.23,12.29-11,12-9.48-.42-18.63.51-27.85,1.74-8,1.07-5.63-7.5-9.78-9.89-7.92-4-2.92-10.59-3.16-16.13,4.63-10.54,12.51-10,21.33-6.27,6.76,3.79,4.79,12.23,9.6,18.47C455.08,88.92,455.68,83.2,457.35,78Z"/><path d="M965.94,110.48c.24.81.46,1.63.66,2.45,1,3.37-.51,4.14-3.5,3.31C957,125,957.75,136,953,146.33a20,20,0,0,1-11.41-11c-2.65-6.72-4.09-13-11.39-17.45-4.57-2.78-4.36-11.12-3.28-16.79.92-4.78,6.34-4,10.59-4.15,3.43-.15,6.81-1.6,10.22-2.47a20.17,20.17,0,0,1,9,5C960.22,102.78,965.3,104.77,965.94,110.48Z"/><path d="M1827,1020.71c-11.23,12.63-22.32,25.4-33.78,37.82-4.84,5.25-10.23,6.21-16.37.79-7.44-6.58-.88-11,2.66-13.9,14.4-11.89,29.5-22.92,44.33-34.27C1827,1013.63,1830.57,1016,1827,1020.71Z"/><path d="M802.54,293.82c-12.75-.22-23.18-11.78-22.41-22.58.32-4.56,4.68-7.89,7.19-5.89,8.47,6.74,16.77,2.27,24.65.55,6.75-1.47,9.89.7,12.31,6,2.53,5.54,1.32,10.29-4,13.37C814.05,288.94,808.05,293.34,802.54,293.82Z"/><path d="M1213,50.36c-.87-1.85-1.77-3.69-2.59-5.56-3.22-7.26-8.16-16.61-1-21.73,7.56-5.39,12.18,3.94,16.57,9.58,5.14,6.6,17.7,1.31,20.17,12.41.88,4,5.93,7.26,3.8,11.39-2.78,5.38-8.46,2-12.9,2.43-5.94.6-9.62-3.6-14-6.32C1220.76,46.88,1215.87,53.14,1213,50.36Z"/><path d="M1827,1020.71q-1.58-4.77-3.16-9.56c5,1.31,13.21,3.17,11.49-4-4.2-17.75,14.72-32.65,0-52.82,12.2,4.34,10.59,10.44,11.06,15.66.13,1.45,1.68,2.81,1.69,4.22.06,8.42,24.08,10.32,5.41,24.85C1844.61,1005.88,1839.79,1018.08,1827,1020.71Z"/><path d="M1463.69,52.47c-4.15,7.34-11.53,14.7-20.16,15.55-9.54.94-15.41-7.74-17.75-17.11-.65-2.6,1-6.51,3.46-6.25,9.61,1,18.71-4.51,28.43-1.6C1462,44.36,1463.64,46.88,1463.69,52.47Z"/><path d="M1279.63,68.52c-3,6.31-3.4,12.39-1.44,19.48,2.51,9.12-4.83,14.87-14.21,12.3.43-4.43-3.84-3.56-5.59-5.26-5.14-5-18-11.12.07-16.72,2.3-.71,3.59-4.69,5.34-7.16.33-7.92,4.27-11.44,12.24-10C1276.51,64,1276.86,66.82,1279.63,68.52Z"/><path d="M440.73,75c-7.49.79-14.81,2.19-21.33,6.27-2.81-2.24-5.4-4.83-8.46-6.64-7.7-4.58-6.73-9.36.88-11.28,11.5-2.9,20.63-15.62,34.77-8.6C448.12,62.47,434.46,66,440.73,75Z"/><path d="M593.39,388c3.24-4.2,7.11-6,12.2-3.23.43,7.23-6.68,17.48,8.43,19.12,1.54.17,4.13,12,2.24,16.93-2.45,6.34-9.44.35-11.72-1.38-6.18-4.65-16.94,1-19.1-6.27-2-6.79,7-12,10.23-18.42C597.5,391.13,600.05,388.33,593.39,388Z"/><path d="M1617.75,353.17c-5.51-6.45-.45-15.66-5.81-22.14,3.47-4.66-1-10.94,3.14-15.46,11.15,18.33,28.65,34.24,22.52,59.14,1.64,3.29-.42,3.65-2.9,3.68-5.17-11.64-6.45-24.82-14.15-36.68C1616.72,345.51,1618.72,349.75,1617.75,353.17Z"/><path d="M486,251.55c-.7-7,4.46-11.74,7.12-17.36,1.5-3.17,4.93-3.91,5.29,1.55-3.51,13.18,12.17,18.91,12,32.19-8.44-2.41-16.77-3.36-23.82,2.86C479,264.61,481.06,258.13,486,251.55Z"/><path d="M953.48,100.27l-5.74-5.77c6.88-7.88,25.81-11.36,34.19-6.61,2.78,1.57,3.91,3.56,3,6.25-2.35,6.9-6.57,11.78-14.58,11.88C964,106.28,958.81,103.06,953.48,100.27Z"/><path d="M1577.24,669.77c-1.23-7-2.37-14.28-10.93-4.88-2.87-5.08-9.58,9.6-11.14-2.17,2.88-4.15,6.61-7.65,9.24-12,2.82-2.7-.25-7.76,3.95-9.91,5.54-6,11.45-8.81,18.42-2.06l-.34,1.5a5.77,5.77,0,0,1,1.86,5.75c-4.89,4.75-4.87,10.36-2.75,16.34a11.19,11.19,0,0,1-.82,4.24C1582.87,669.16,1580.67,670.93,1577.24,669.77Z"/><path d="M840.18,384.45c-1.65-10.38,4-17.1,14.58-18.51,5.62-.75,7,3.11,6.24,9.42-1.34,10.89-6,17.72-16.9,18.6C838,394.44,837.65,390.05,840.18,384.45Z"/><path d="M1488.47,748.77c15.67,7.68,35.34.81,49.63,13.63,1.66,1.5,3.23,2.78,1,5-17-2.3-34-4.26-50.46-9.26-2.75-3.2-2.7-6.39,0-9.6Z"/><path d="M517.76,68.81c-2.09,2.66-7.72,3.72-7.45,2.61,2.19-8.91-13.2-10.41-8.18-18.07,3.07-4.7,1.71-8.87,3-13.1,15.32-2.61,15.81,9.27,18.52,19-.07.64-.15,1.28-.21,1.92C522.47,64.39,520.08,66.57,517.76,68.81Z"/><path d="M1586.78,638.76c-6.55-2.94-12.2,2.15-18.42,2.06.32-10.22-8.31-19.21-3.95-30.11,1.21-3,1.92-6.24,5.59-6.38,4.26-.16,8.27,3.38,6.92,6.57C1571.53,623.67,1580.93,630.44,1586.78,638.76Z"/><path d="M1465.58,704.28l-1.36.05-1.35-.1-9.08-28.34,3.76-4.26c13.91,6.42,18.82,18.88,21.87,32.59C1475.66,709.91,1475.66,709.91,1465.58,704.28Z"/><path d="M1665.92,410.22c-2.7,7.73-3.54,16.41-16.27,13.74-8.16-1.71-.91,6-3.1,8.52l.24-.26c-18.18-4.41-3.75-14.17-3.54-21.59-.47-3.83-4.61-8.91,3.37-9.84l9.51,6.68C1659,409.91,1663.23,407.26,1665.92,410.22Z"/><path d="M1675.6,995.17c4.09,2.89,13.75-3.2,12.07,7.52-1.27,8.14-5.78,16.28-14.28,16.39-7.4.1-6.37-8.25-5.18-13.57C1669.12,1001.46,1664.89,992.29,1675.6,995.17Z"/><path d="M1276,61.13c-4.75,2.52-9.33,5.26-12.24,10-10-4.46-5.17-15-8.91-22.08-1.19-2.25,1.24-5.89,4.26-4.42C1266.46,48.21,1278.2,47.75,1276,61.13Z"/><path d="M1577.24,669.77l6.12-4.14c3.66-2.57,7.57-4.78,11-7.73.59-.25,1.2-.48,1.8-.71,8.93,3.18,9.65,10.51,9.29,18.39-2.15,5.83-4.71,10.92-12.38,7l-3.59-3.45c-3.63-3.68-12.38-.77-12.14-9.43Z"/><path d="M1561.18,682.56c-16.92-13.29-21.55,6.72-31.72,11.71-5.9-13.53,6.17-17.7,12.85-24.68C1546.33,677.21,1561.22,669,1561.18,682.56Z"/><path d="M513.18,607.92c-11.57,2.05-21.46,6.34-31.5,1C493.31,595.8,498.69,595.33,513.18,607.92Z"/><path d="M1577.3,669.72c1.46,6.46,14-1.34,12.14,9.43-4.94,3.41-9.3,7.89-16.23,3-3.62-2.56-3.94-5.34-4-9C1569.2,665.51,1573.5,668.27,1577.3,669.72Z"/><path d="M1058.39,81.38c-6.94-.62-11.71-4.83-11.64-11.27.08-8.6,9.12-4.08,12-4.22,13.79-.68,3.46,7.45,3.26,12.06C1061.43,79.74,1059.43,80.06,1058.39,81.38Z"/><path d="M454.3,584c8.75,2.91,17.49,5.83,25.49,12.68-14.78,10.06-20.26-4.93-29.23-9A4.49,4.49,0,0,1,454.3,584Z"/><path d="M1339.7,668.43c1-3-.59-9,5.21-7,5.14,1.74,7.57,7.17,7.52,12.75,0,4-2.25,7.8-6.64,7C1338.71,679.86,1340.19,673.49,1339.7,668.43Z"/><path d="M1608.88,492.72l3.23,3c2.19,2.84,4.92,5.48,3.37,9.62-1.43,4.32,1.53,12.57-6,11.53-5.5-.76-6.56-8.65-6.83-14C1602.49,498.9,1605.48,495.3,1608.88,492.72Z"/><path d="M476.46,52.7c-2.44,7.83-6.34,13.83-15.92,12.72-2.56-4.48-4.81-9-4-15.6C463.17,52.7,469.84,52.41,476.46,52.7Z"/><path d="M1083.77,68.45c-15.58-4.63-7.47-13.15-3.7-24,4.84,9.51,13.34,15.48,3.44,24.21Z"/><path d="M941.93,339.88q4.17,9.76,8.35,19.52c-3.18,3.91-5.23,12.78-11.61,2.66,2.49-5.29-.06-9.06-3.76-12.48C934.91,344.65,940.19,343.55,941.93,339.88Z"/><path d="M963.1,116.24l3.5-3.31c3.17,3.28,6.35,6.55,9.49,9.85s5,7.54-.18,10.05c-3.92,1.91-7.85.33-9.18-4.81C965.7,124.05,964.32,120.16,963.1,116.24Z"/><path d="M523.63,59.22c6.87-4.43,9.29.51,11.33,5.58,2.73,6.79-.72,9.76-7.1,10.61q-2.15,1.57-3.42-.76l-.78.34c-2.27-5.35-3.49-10.69.21-16Z"/><path d="M1633.78,84.36c-2,8.41,8,10.13,10,17-12.14,6.42-12.35-12.54-22.07-9.62C1623.57,85.79,1630.25,87.63,1633.78,84.36Z"/><path d="M1567.55,558.42c.87,9.5,2.61,16.16-2.88,21.41-1.77,1.7-3.87-.58-4.65-2.39C1556.89,570.22,1559.78,565,1567.55,558.42Z"/><path d="M1500.57,587.61l7,2.91c1.12,2.84,2.83,5.61,3.21,8.55.43,3.29-1.77,6-4.94,6.89a7.1,7.1,0,0,1-5.65-.94c-2.91-2.42-2.3-5.5.48-7.75C1504.83,593.89,1500.82,590.81,1500.57,587.61Z"/><path d="M1577.29,768.18c-.1.86-.2,1.73-.29,2.59-10.5,5.4-21-1.18-31.53,0-.06-1-.07-2.06,0-3.09,4.65-3.78,10.92.55,15.61-3.11l6.29-.25C1569.85,767.73,1575,764.26,1577.29,768.18Z"/><path d="M498.59,982.55q3-4.09,6-8.2l3.24,1.5c0,7.54-.15,15.09.05,22.62.14,4.91-2.39,4.92-5.89,3.81C505.16,995,505.69,988.09,498.59,982.55Z"/><path d="M1467,44.59c10.79-1.44,17-4,22.39.43,1.66,1.35.26,3.95-1.75,5C1481,53.6,1476.19,50.16,1467,44.59Z"/><path d="M637.48,61.93l-7.78-4.65c12.15-6.48,12.15-6.48,21.3-4.14Z"/><path d="M549.75,207.56l9,14.43c0,4.81-1.64,8.07-7.28,7.28-2.58-2.76-2.8-6.14-2.55-9.65l-3-11.84A2.55,2.55,0,0,1,549.75,207.56Z"/><path d="M273.57,546.75c-8.63-13.17-8.63-13.17-8.15-24.94,8,5.53,7.07,14.91,11.33,21.4Z"/><path d="M1748.58,745.57c-4.48,11-11.34,7.2-20.46,4.93,6-6.62,11.68-3.68,16.19-5.43A3,3,0,0,1,1748.58,745.57Z"/><path d="M1480.51,80.22c-.1,3.88-2.73,4.44-5.31,4.43-3.27,0-7.74,2-8.74-3.31-.66-3.5,1.06-6.08,5.08-5.93A11.18,11.18,0,0,1,1480.51,80.22Z"/><path d="M1102.76,56.16c.27,6.79.94,13.88-9.52,12.51l-.15-.15q.15-6.12.29-12.24c2.21-2.54,5.08-2,7.9-1.68Z"/><path d="M577.51,37c-5.74-4.48-2.54-10.47-2.7-15.89,2.44,0,4.59-.64,5.83-3,5.09,5.9-2.59,12.58,1.15,18.56Q579.81,39,577.51,37Z"/><path d="M1411.67,652c.66-2-8.42-5.22-3.17-11.63.77-.94,3.5-1.62,4.21-1.05C1419.48,644.75,1410.41,649.84,1411.67,652Z"/><path d="M1586.57,647.19l-.12-6.93,6.4.8c3.62,3.52,1.84,8.35,3,12.46.08,1.22.16,2.45.23,3.67l.16-.25c-2.43,2.82-4.58,6.23-9.22,4.31C1584.13,656.67,1583.39,652,1586.57,647.19Z"/><path d="M1832.24,848.93c-.09,4-3.45,4.82-6.14,5.87-3,1.16-5.39-.06-4.29-3.56.8-2.51-1.08-6.8,3.52-7.28C1828.84,843.59,1831,845.76,1832.24,848.93Z"/><path d="M467.48,44.3c5.25-.37,11.7-4.7,15.06,2.12,2.07,4.19-2.18,6.15-6.26,6.49Z"/><path d="M1340.15,117.18c.79,5.91,2.68,12.28-7.68,15.7,2.81-8.84,2.81-16.66,7.22-23.42C1339.84,112,1340,114.61,1340.15,117.18Z"/><path d="M1634.7,378.39q1.44-1.84,2.9-3.67c1.37,1.51,3.12,2.84,4,4.6,1.43,2.84,6.44,4.54,3.38,8.89a6,6,0,0,1-3.94,2.25c-5.91.47-3.2-5.22-5.13-7.69C1635.06,381.66,1635.08,379.87,1634.7,378.39Z"/><path d="M548.9,219.62c4.53,2.25,3.44,6,2.55,9.65-3.48.79-7.89,6.15-10.14,0C539.42,224.11,544.56,221.5,548.9,219.62Z"/><path d="M376,153.65c6.25,3.84,15.41.81,21,8.89l-22-2.36C374.45,157.87,371.9,155.29,376,153.65Z"/><path d="M112.63,267.92c3.15-7.92,10.41-6.85,16.8-7.67a4.22,4.22,0,0,1,.52,4.1c-3.27,3.88-7.81,6.34-11.28,10Z"/><path d="M549.75,207.56l-3.85.22-12.64-6.22C537.9,205.92,550.58,188.18,549.75,207.56Z"/><path d="M118.67,274.36c-.21-6.5,3.93-9,9.43-10.2,3.24-.34,4.71,1,4.15,4.33C128.06,271.21,124.89,276.31,118.67,274.36Z"/><path d="M1488.67,748.51c0,3.2,0,6.4,0,9.6-6.08-1.12-12.42-1.91-12.49-10.31C1480.29,749.19,1484.42,749.88,1488.67,748.51Z"/><path d="M71.8,281.05c2.3,3.36,5.92,2.12,9,2.58C74.79,288,67.52,288,59.44,290.69,61.83,283.08,67.93,283.59,71.8,281.05Z"/><path d="M79.06,171.28c3.83,1.15,6.46,3.6,7.31,7.52.6,2.78-2.14,4.46-3.57,3.55a23.06,23.06,0,0,1-7.56-7.69C74.21,172.86,76.55,171.1,79.06,171.28Z"/><path d="M438.5,583.86,425,586.18c5.48-7.06,11.71-10.84,20.2-5.38C443.77,583.6,440.55,582.45,438.5,583.86Z"/><path d="M1614.72,688.23l-12.88,8.26C1603.6,690,1603.93,681.28,1614.72,688.23Z"/><path d="M524.44,74.65l3.42.76,7.6,6.12c-2.54,5.29-6.79,4-10.53,2.23C519.84,81.31,523.32,77.78,524.44,74.65Z"/><path d="M558.19,404.79l-16.16-2c3-3.74,5.52-7.32,10.34-8.06C551.64,399.62,557.58,400.66,558.19,404.79Z"/><path d="M805.75,30.31H780.91l-.2-3h24.18C805.13,28.31,805.42,29.31,805.75,30.31Z"/><path d="M438.5,583.86l6.68-3.06c3.58-.49,6.79.09,9.12,3.17l-3.74,3.69C446.22,587.42,442,586.85,438.5,583.86Z"/><path d="M1748.58,745.57l-4.27-.5c1-4.72,4.1-7.12,8.64-7.41.92-.06,3,2.27,2.8,3C1754.85,744.17,1751.86,745.23,1748.58,745.57Z"/><path d="M681.28,37l6.48-3.21,13.5.44C694.76,36.27,688.68,41.37,681.28,37Z"/><path d="M486,251.55c-.9,6.45-4.11,13,.62,19.24-7.35-1.91-7.05-7.93-7.34-13.65A9.8,9.8,0,0,1,486,251.55Z"/><path d="M1636.82,939.43c4.46,1.43,9.71,1.89,10.23,8.23C1637.87,952.1,1637.31,945.81,1636.82,939.43Z"/><path d="M564.73,119.84c-8.25-2.74-17.64,2.5-25.4-3.65C547.77,117.57,557.19,112.18,564.73,119.84Z"/><path d="M1093.24,68.67c.31,5.08-1.9,8.65-7.12,7.66-4-.75-2.88-4.81-2.35-7.88l-.26.25,9.58-.17Z"/><path d="M1104.91,224.13c2.14.37,3.8,1.3,4,3.72.28,3.05-1.44,4.94-4.18,5.18a3.6,3.6,0,0,1-4-3.57C1100.55,226.52,1102.16,224.84,1104.91,224.13Z"/><path d="M1576.46,707.86c4.32,5.09,12.39-.59,16.29,5.68-6.28,5.69-13.23,5.22-20.46,2.24a3.29,3.29,0,0,1-1.45-4.57l3.75-3.35A1.75,1.75,0,0,0,1576.46,707.86Z"/><path d="M1541,659.5c4.32,2,8,4.06,8.42,8.64,0,.35-2.7,1.5-4,1.32C1539,668.56,1542.06,662.94,1541,659.5Z"/><path d="M586.48,932.59c-4-10-4-10,13.43-9.3C596.73,928.27,586.73,923.38,586.48,932.59Z"/><path d="M619.72,103.08a3.33,3.33,0,0,1,2.13.32c1.59,2.21,2.43,4.3-.91,5.74-4.73,0-6,2.82-5.68,7C610.52,109.63,610.64,104.82,619.72,103.08Z"/><path d="M1482.56,665.55l5.64-3c1.87,4.16,5.49,9.88-.92,11.61C1481.61,675.74,1484.54,668.39,1482.56,665.55Z"/><path d="M1593,682.6c6.57,2,7.28-6.39,12.38-7,1.95,3.24,2.26,6.51.16,9.83C1601.28,685,1596.48,686.8,1593,682.6Z"/><path d="M953.48,100.27c7.12-2.47,11.09,4.29,16.87,5.75l-4.41,4.46C961.56,107.34,956.31,105.28,953.48,100.27Z"/><path d="M817.76,56.36c-3.74-1-6.52.68-9,3.24-3.19.63-5-1.11-4.6-3.91.89-6.58,7.46-3.09,10.76-5.57a7.94,7.94,0,0,1,3.11,0Z"/><path d="M215.34,337c-2.09-4.19-2.89-7.71-.24-10.93.46-.56,3.37-.24,3.78.47C221,330.18,219.73,333.33,215.34,337Z"/><path d="M1615.08,315.57c-.74,5.21,2.19,11.18-3.14,15.46q-1.68-4.54-3.35-9.07C1613.31,322.42,1609.11,313.83,1615.08,315.57Z"/><path d="M1351.33,109.89c-.39,2.63-2.39,3-4.45,2.87-2.4-.15-3.56-1.82-3.33-4.07.25-2.45,2.33-3.27,4.37-3.07C1350.17,105.84,1351.18,107.66,1351.33,109.89Z"/><path d="M147.28,144.39c1.26,3.6,7.79,3.26,6.92,7.45-.85,4-5.13,1.36-7.92,1.59C146.13,150.36,143.82,147.06,147.28,144.39Z"/><path d="M1226.22,166.27l15.86,8.62c-8.84,2.45-12.37-1.54-16.09-5C1226.07,168.71,1226.14,167.49,1226.22,166.27Z"/><path d="M1210.26,185.64l-6.45-6.36c1.28-1.91-3.44-7.39,3.08-5.87,2.41.56,4.23,3.68,6.32,5.64a12.72,12.72,0,0,1,.29,3.08C1214.51,185.24,1213.45,186.42,1210.26,185.64Z"/><path d="M1564.41,650.73c.22,6.54-4,9.69-9.24,12C1555.7,656.76,1559,652.9,1564.41,650.73Z"/><path d="M659.2,222.88c1.18-2.24-.85-8.06,3.92-6s4.19,6.61-.25,9.84Z"/><path d="M159.92,248.47l9.7-5.91C171.88,249.08,171.88,249.08,159.92,248.47Z"/><path d="M1102.68,46.48c3.67-.49,6.12,1.22,6.15,4.78s-2.4,5.31-6.07,4.9V56C1100.27,52.87,1100.52,49.68,1102.68,46.48Z"/><path d="M1835.16,816c-1,.29-2.81,1.34-3.44.87-1.5-1.13-3.19-2.86-3.44-4.55s1.81-1.81,3.2-1.13C1833.28,812.07,1835.46,812.7,1835.16,816Z"/><path d="M374.79,173.52c7.13,1.42,7.43,6.45,6.45,12.17-.9,1.24-1.81,1.18-2.71,0-.25-4.64-4-6.6-7-9.14Z"/><path d="M1595.89,653.52c-4.78-3.23-2.42-8.21-3-12.46C1601,643.48,1598.58,648.46,1595.89,653.52Z"/><path d="M1615.48,505.34q-1.68-4.8-3.37-9.62c5.45-1.13,5.49,5.48,9.39,6.56C1620.38,505.05,1617.86,505.06,1615.48,505.34Z"/><path d="M132.25,268.49l-4.15-4.33c.44-1.29.87-2.59,1.32-3.9a5.12,5.12,0,0,0,1.64-1.4c1.83.35,4.93.22,5.27,1.14C137.78,263.84,135,266.3,132.25,268.49Z"/><path d="M1134.15,644.28c-1.38-1.42-4-3-3.9-4.22.46-3.74,2.72-.93,4.36-.6,3,.59,6,1,9,1.5C1141.41,644.74,1137.68,644.22,1134.15,644.28Z"/><path d="M1233.29,148.29c-1.91,2.33-4.5,2.73-7.28,2.57-.41-2.62-4.43-5.8-.68-7.65S1229.91,147.56,1233.29,148.29Z"/><path d="M462.69,612.54c-2.93-.43-4.68-1.72-4-4.12.27-.91,2.57-1.65,4-1.7,2.47-.09,4,1.66,3.39,4C465.82,611.65,463.6,612.08,462.69,612.54Z"/><path d="M276.87,571.7l3.83-3.83c2.62,2.39,7.25,5.5,3.82,8.59C280.5,580.07,278.87,574.39,276.87,571.7Z"/><path d="M500.77,276.85c-1.46,1.1-2.9,2.63-4.67,3.41-2,.88-4.64.41-4.66-2,0-1.35,2.34-3.16,4-4C497.3,273.38,499.42,273.84,500.77,276.85Z"/><path d="M1058.39,81.38,1062,78c2.77.55,8.38-.4,6.94,3.42C1066.88,87,1062.08,79.45,1058.39,81.38Z"/><path d="M1583.37,315.45c-2.81-1.49-12.24,3.46-6.31-6.5C1578.43,311.82,1585.3,309.37,1583.37,315.45Z"/><path d="M818.43,109.91c-.43-4.58,1.74-7.8,5.36-10.27C824.27,104.25,825,109,818.43,109.91Z"/><path d="M1646.62,400.79c-3.9,2.33-2.54,6.46-3.37,9.84-2.19-3.83-4.74-7.93-1.29-12C1643.29,397.09,1645.45,399.11,1646.62,400.79Z"/><path d="M526.46,610.35c-.89.62-2,1.95-3.18,2.09-2,.21-4.56-.18-3.34-3.21.43-1.09,2.29-2,3.65-2.26C525.45,606.57,526.26,608,526.46,610.35Z"/><path d="M1665.92,410.22c-3.41-.38-7.21.6-9.79-2.75C1658.94,410,1665,401.12,1665.92,410.22Z"/><path d="M1203.31,195.26c-2.56-1.65-5.2-3.23-5.37-6.77l3.18-3.2,6.28,9.65A2.55,2.55,0,0,1,1203.31,195.26Z"/><path d="M1102.68,46.48l.09,9.55-9.39.25Z"/><path d="M663.35,47.26l5.26-1.7a2.75,2.75,0,0,1,.65,4.26l-9.71,5.33a11.86,11.86,0,0,1,.14-3.15C659.42,49.28,660.82,47.83,663.35,47.26Z"/><path d="M1213,50.36c2.59,4.25,9.85-12.87,10.08,2.2C1219.53,52.51,1215.67,54.06,1213,50.36Z"/><path d="M1153.64,213.82l-3.33,3c-3.52-.94-8.44-3.33-6-6.45C1147.43,206.39,1150.81,211.48,1153.64,213.82Z"/><path d="M736,43.29c2.45,2.27,4.21,6.77,1.43,7.46-4.05,1-4.18-4.2-4.87-7.46Z"/><path d="M663.35,47.26,659.69,52l-6.12.37C656.72,50.46,656.41,41.94,663.35,47.26Z"/><path d="M140.89,245.56c2.23-2.33,3.77-7.94,7.6-4.78,2.24,1.85-1.14,6.16-3.94,8.42Z"/><path d="M991.49,473.6c4.2,6.58,8.21,13.29,12.68,19.68,2,2.79,5.31,7.43,8.44,3,2.26-3.22,10.64-5.76,4.29-12.58-2.17-2.32-7.09-4.73-2.88-8.79,2.49-2.39,5.51-5.29,9.65-4.55,6,1.07,4.17,5.93,4.93,9.9,2.87,15,11,20.95,26.36,18.94,7.54-1,14.93,5.38,22.62-.31,2.25-1.66,4.46,1,5.49,3.87,3.87,10.74-7.62,27.06-18.66,27.93-18.14,1.44-35.39-.3-52-8.3-5.6-2.7-12.89-1.65-13.77,5.6-1.45,11.87-6.48,8.77-13.69,5.59-10.74-4.74-19.49-13.68-32.44-14.11-5.21-.18-6.06-5-4.86-10.82,1.92-9.34-1.5-14.4-12.92-13.25-17.71,1.78-35.73.53-51.86,10.53-6.44,4-13-.7-19.79-.93,1.77-6.6,6.24-6.5,10.34-6.68,6.35-.28,13.43-3.15,13.84-8.49,1.11-14.52,15.64-20,19.38-32.24,1.38-4.5,5.14-3.49,8.41-4.74,18-6.88,30.94-1.5,42,13.56,3.46,4.73,10.29,7,15.58,10.38,4.91,6.47.95,10.95-4.59,16,5.39-2.72,7.72-6.92,11.27-9.76,2.07-2.08-3.07-10.91,6-6.43C987.16,475.19,988.12,471.82,991.49,473.6Z"/><path d="M1007.74,327.75,996.6,338c2.28,4.31,9.4.23,9.12,8.16-11-1.56-15.26,4-13.84,14.72.57,4.35-3.59,8.67-5.66,8.14-12.37-3.2-23.14,8.61-35.42,3.22-6.87-5.84-3.59-8.22,3.2-9.4,10.35-2.43,20.16-5,16.22-19.63-1-3.69,2.63-6.46,5.42-8.89,3.83-3.33,4.1-7.42.86-10.95-11.92-12.94-6.19-22.15,5.93-30.24,3.18-.28,4.94.72,3.85,4.28,3.81,11.45-1.23,30,21.24,26.5a2.58,2.58,0,0,1,.93,2.49C1008.23,327.31,1008,327.75,1007.74,327.75Z"/><path d="M1039.83,463.65c-6.81-13.48,3.4-22.36,9.36-31.91,2.86-4.56,9.46-.73,10.48,2,4.73,12.75,12.83,6.7,20.37,4.7,1.14-1.22,2.1-1,2.93.35,6,4,11.88,8.19,18,12.06,4,2.54,8.92,4.79,7.36,10.45-1.84,6.68-8.24,5.5-13.09,5.2-4.52-.28-9-1.88-13.36-3.5-8.1-3-16-4.08-23.87.52A19,19,0,0,1,1039.83,463.65Z"/><path d="M1157,422.63c3.67.33,6.61.28,7.87,3,1.59,3.45.09,5.5-3.33,7.31-5.44,2.88-8.18,8.91-3.25,12.75,10.89,8.47,10.16,22.59,17.86,32.44,3.07,3.93,5.72,10,1.81,14.25s-9.76,3-14.66.27-12.8-4.23-10-11.65c4.42-11.61-2.21-17.76-8.34-25.7-4.34-5.62-11.76-13.07-6.3-20.82C1142.9,428.55,1149.27,422.71,1157,422.63Z"/><path d="M1127.41,633.32c-17-3.49-21.41-18.79-26.59-29.59-6.66-13.9-14.36-27.27-21-41.15-1.5-3.13-4.67-7,0-9.4,4.31-2.2,6.31,2.19,8.34,5.13,13.15,19,23.13,40,37.92,57.9C1130.11,621.08,1129,627,1127.41,633.32Z"/><path d="M1204,561.87c-.5.16-1,.38-1.49.49-8.49,1.84-12.72,16.92-21.92,11-9.44-6.1-15.81-17.07-23.18-26.18-2-2.44-2.41-6.17.7-8.38a4.91,4.91,0,0,1,6.9,1.6c8.93,13.82,21.07,20.36,37.71,17.64.11,0,.67,2.71,1,4.16Z"/><path d="M991.49,473.61l-6.23,2.92c.58-9.86-8.78-10.75-14.16-14.32-8.47-5.61-13-13.19-16.19-22.45C965.85,452.62,990.54,450.17,991.49,473.61Z"/><path d="M1074.19,261.58c-2.74,6.74,1.52,18.82-14.91,13.84-7.34-2.23-8.64,2.06-11-3.71-1.2-4.13-1.71-7.85,4.43-7.81,7.43,1.89,14.37-.64,21.41-2.37Z"/><path d="M986.28,297.45q-1.93-2.13-3.85-4.28c3.54-4.76,3.2-10.71,4.93-16s6.13-7.3,11.06-5.16c5.81,2.52,2.55,6.67.67,10.23A43.9,43.9,0,0,1,986.28,297.45Z"/><path d="M954,362.88c-1.91,2.84-8,4.26-3.2,9.4-3.82,4.65-8.29,4.07-12.48,1-4.88-3.63-1.2-7.47.34-11.17,5.31,5.39,7.2-4.19,11.62-2.66Z"/><path d="M979.25,483c-9.1,16.94-9.1,16.94-22.28,7.65,7.14-3,19.56-.63,15.6-13.85Z"/><path d="M1083,438.82a10.69,10.69,0,0,1-2.93-.35c-1.23-3.92-8.7-1.6-7.71-6.24,1.28-6,8.43-4.85,12.17-8.29C1089.65,430.18,1084.52,434.25,1083,438.82Z"/><path d="M1080.73,719.57c-2.24,3.26-2.3,8.63-7.64,8.47-3.23-.1-3.48-3.09-3.09-5.87.6-4.2,1-8.51,7-8C1080.44,714.49,1080.86,716.8,1080.73,719.57Z"/><path d="M1220.6,217.31c-.65,7.06,6.55,14.21-1,22.41-4.92-6-2-12.9-3.46-18.7C1215.57,217.31,1216.84,215.82,1220.6,217.31Z"/><path d="M1007.74,327.75c-.07-1.27-.15-2.53-.22-3.8,5.9-3.84,11.9-3.75,18.91-1.61C1021.18,331.57,1013.74,326.64,1007.74,327.75Z"/><path d="M1040.77,321.28c-4.6-1.69-6.15-4.9-6.79-8.37-.47-2.56,1.9-3.79,3.86-3,3.26,1.28,6.57,3.36,6.23,7.5C1044,318.83,1041.81,320.11,1040.77,321.28Z"/><path d="M1039.83,463.65l18.15-.1c-3.51,6.93-11.83,5.14-17.19,7.3C1033.36,473.84,1040.55,466.36,1039.83,463.65Z"/><path d="M1202.2,438.68c-1.72-.45-4-.84-3.78-3.53.27-3.46,2.15-5.67,5.87-5.45,2.64.16,3.21,2.47,3.08,4.42C1207.2,436.9,1205.63,438.82,1202.2,438.68Z"/><path d="M1220.6,217.31l-4.46,3.71c-5.25-2.9-7.51-7.76-8.78-13.29,1.05-1.51,2.14-1.47,3.25-.07Z"/><path d="M1438.64,331c3.53,3.23,4.93,7.09,4.44,12.44C1434.1,340.82,1440.65,334.69,1438.64,331Z"/><path d="M1194.14,222c-.67,2.89-1.7,3.93-3.39,2.89s-3.59-2.23-4.51-3.86a1.88,1.88,0,0,1,2.36-2.66C1190.77,219.15,1192.6,220.9,1194.14,222Z"/><path d="M1210.61,207.66l-3.25.07-4-12.47,4.09-.32C1212,198.3,1209.94,203.32,1210.61,207.66Z"/><path d="M1052.74,263.9c-3.14,1.66-3.69,4.78-4.43,7.8-2.26-3.12-3.45-7-8.85-8.63C1045.45,260.86,1049.28,260.93,1052.74,263.9Z"/><path d="M1082.09,787.91c-2.62-4.1-2-7.67-.25-11.87C1086.14,780.13,1085.9,783.69,1082.09,787.91Z"/><path d="M1052.65,740.32c6.89,3.2,5.26,7.59,5.69,12.06C1053,749.38,1054.08,745.16,1052.65,740.32Z"/><path d="M1210.26,185.64l3.23-3.51c1.82,2.19,7.65,2.39,5.42,6C1217.44,190.45,1212.52,189.08,1210.26,185.64Z"/><path d="M514.06,143.86c1.14,1.28,2.28,2.55,3.41,3.83-7.24,9.61-16.54,18-15,32.13.32,2.83-.82,5.67,1.42,8.32,11.41,13.53,10.93,16.15-4.72,26.74-3.18.44-4.84-.64-4.1-4.12-12.18-14-4.83-31.73-8.78-47.31-2.58-3-.34-5.34,1.15-7.76C494.92,148.58,504.51,146.27,514.06,143.86Z"/><path d="M490.19,157.61l-3.86,5.84c-7.52-.53-8.16,10.34-15.83,9.56-4.21-8-9-15.69-12.4-24-1.71-4.16-3.72-11.15,6.12-8.82,6,1.41,2.9-3.74,3.82-5.91,3-7,9.35-6.24,14.78-5.74,6.52.61,4.25,5.67,3.34,9.63,1,5.63-3.72,11.72,1.39,17A5,5,0,0,1,490.19,157.61Z"/><path d="M423,191.47a8.12,8.12,0,0,1,2.75.92c3.25,1.9,6.46,3.07,9.4-.52,2.26-3.37.48-12.11,9.19-6.91,1.69,3.2,4.73,3.92,7.93,4.36.68,4.16,1.08,8.3-1.19,12.17-15.27,10.3-21,9.22-32.07-6C418.24,192,419.87,191,423,191.47Z"/><path d="M432,413.59l-19.28-1.42c21.7-16.52,24.63-16.59,35.87-1.84C445.46,419.76,441.75,420.48,432,413.59Z"/><path d="M378.53,185.69h2.71c5.92,4.07,12.71,2.29,19.16,2.88,2.32,1.55,1,5,3.37,6.51-3.22,1.85-1,18.17-10.36,3.83-3.68-5.61-9.88-.23-14.59-2.61-2.68-1.35-7-.83-7.63-4.39C370.34,186.77,377.35,189.36,378.53,185.69Z"/><path d="M451.12,201.49c-2.27-4.32-4.42-8.62,1.19-12.18,4.8-5.9,9.88-.7,14.84-.39,2.61,1.5,2.83,4,2.68,6.6-3.9,4.64-6.41,10.76-13.16,12.35Z"/><path d="M457.31,419.39c8.73,3.61,17.82,6.92,3.53,15.92-5.58,3.52-5.25,4-11.69-9.78C447.94,418.27,451.47,417.3,457.31,419.39Z"/><path d="M331.21,198.72c8.93-2.92,8,8.8,14.42,9.68-1.39,7.4-7.57,3.36-11.43,4.5-4.34,1.28-9.11,1.09-14.09,1.58.52-5.2,4.77-5.28,7.38-7.17a1.79,1.79,0,0,0,.75-1.3c0-.4-.61-.77-.94-1.15C325.82,201,328.74,200,331.21,198.72Z"/><path d="M444.41,425.91c-6.44,3.83-11.76,8.44-11.78,16.82,0,2.85-1.06,5.57-4.41,4.6-3-.85-3-4.17-2.28-6.55,1.87-5.89,4.24-11.63,6.41-17.43,3.22-3.57,6.91-6.64,11.86-3.92C446.75,420.82,446.49,423.66,444.41,425.91Z"/><path d="M444.41,425.91c-1.87-11-7.94-2.18-12.06-2.56-1.89-3.19-2.55-6.42-.36-9.76,5.95,1.09,12.7,6.17,16.59-3.26l8.73,9.06c-4,.37-7.92.81-8.16,6.14Z"/><path d="M349.83,264.72c-7.38-.08-13.17,8.46-23.79,3.61,8.59-4.89,13.36-13.88,23.8-7.62Q351.91,262.72,349.83,264.72Z"/><path d="M456.67,207.87c4.28-4.23,5.76-11.44,13.16-12.35C470,204.46,468.33,211.51,456.67,207.87Z"/><path d="M331.21,198.72l-3.91,6.14c-3.78-.39-8.09.74-11.16-3.39C321,196.39,326.34,198.87,331.21,198.72Z"/><path d="M391.57,353.09c4.06,4.8,3,8.92,1.3,14.13C388.76,362.62,387.31,358.76,391.57,353.09Z"/><path d="M349.83,264.72c0-1.33,0-2.67,0-4,3.73-2.72,7.23-6,13.2-5C359.92,261.2,354.53,262.48,349.83,264.72Z"/><path d="M357.49,294.41c-1.1,2-3.64,1.88-6.08,1.57-1.33-.17-3.28-.55-2.12-2.73a5.12,5.12,0,0,1,6.28-2.65C357,291,358.49,291.67,357.49,294.41Z"/><path d="M563.8,165.05c-5.41,3.1-8.84,7.07-14.16,1.82C553.81,164.58,557.47,163.07,563.8,165.05Z"/><path d="M495.11,210.76l4.1,4.12c-1.24,2.66.38,9.21-5.22,6.23C490,219,491.57,214,495.11,210.76Z"/><path d="M403.77,195.08c-2.83-1.29-3.24-3.83-3.37-6.51,3.2-4.57,8.49-2.19,12.59-3.77a2.09,2.09,0,0,1,.81,2.28c-.27.76-.54,1.15-.81,1.15C409.1,189.41,403.07,187.73,403.77,195.08Z"/><path d="M488.66,440.26c-5.78,4.29-9.26,2.68-14.32-.17C479.5,438.28,483.16,437.79,488.66,440.26Z"/><path d="M413,188.23c0-1.14,0-2.28,0-3.43,6.25-2.13,6.66,4.52,10.06,6.68l-4,4Z"/><path d="M381.77,354.69c-.65-1.05-1.78-2.2-2.08-3.54-.41-1.78.9-3.22,2.58-2.67,1,.33,1.88,2.14,2.15,3.42S384.41,355,381.77,354.69Z"/><path d="M247.66,376.63c1.46,1.66,2.9,2.59,3.18,3.8s-.4,3.5-1.12,3.71c-2.4.68-3.6-1-3.53-3.29C246.23,379.66,247,378.49,247.66,376.63Z"/><path d="M815,50.12c.26,4.66-14.42-.38-6.16,9.48-12.43,9.54-3.8-12.93-9.29-9.48Z"/><path d="M669.26,49.82c-.22-1.42-.43-2.84-.65-4.26C667,35.38,676,42,679,39.05,679.15,45.72,680,53,669.26,49.82Z"/><path d="M620.94,109.14c.31-1.91.61-3.83.91-5.74,3.79.62,8.31-1.62,11.53,3.14C629.85,110.77,624.66,106.91,620.94,109.14Z"/><path d="M786,219.08c.14,3.56-1.76,4.27-3.86,4.24-4-.06-3.5-2.74-2.56-5.22a33.62,33.62,0,0,1,2.63-4.66Z"/><path d="M1570.84,711.21c0,.95,0,1.9,0,2.84,2.84,6.7,16.12.63,15,12.23-5.19.17-5.75,2.5-4.38,7.22,1.28,4.41,9.18,9.33,2.39,13.26-5.18,3-7.78-5.26-11.44-8.41-2.9,3.07-.16,8.12-4.85,9.62-.85-.44-2.22-.68-2.47-1.33C1560.27,733.76,1559.72,721.51,1570.84,711.21Z"/><path d="M1585.79,726.28c-2.87-3-6-5.42-10.6-4.67-7.82,1.25-5.5-3.54-4.37-7.56l21.93-.51C1592.27,718.79,1591.33,723.79,1585.79,726.28Z"/><path d="M1629,727.08c-6.31-.16-11.56,2.45-13.23-1.74-2.76-7,5-9.16,7.55-13.86C1630.37,716,1617.09,723,1629,727.08Z"/><path d="M1465.58,704.28c4.61-2,9.25,6.4,13.84-.06,6.07,5.79-2.5,6.32-3.45,9.59Z"/><path d="M1602,770.46c-2.86,1.16-5.65,2.69-8.62,3.36-1.68.37-5.15-.41-5.27-1.1-.57-3.35,3.07-3.42,4.89-5C1596.59,766.76,1601.14,762.54,1602,770.46Z"/><path d="M1617.31,707.8c.54,3.38-.43,5-2.51,5.88-2.39,1-4-.24-4.54-2.38-.7-2.76.47-5.38,3.17-6C1614.67,705.07,1616.43,707.19,1617.31,707.8Z"/><path d="M1561,764.61c-4.27,5.76-10.3,2.65-15.61,3.11C1549.71,762.08,1555.64,764.67,1561,764.61Z"/><path d="M1577.29,768.18c-3.37-1.16-8,1-10-3.82,3.94.06,8.57-1.17,11.66.48C1583.9,767.46,1578.13,767.08,1577.29,768.18Z"/><path d="M1602,770.46c-2.12-3.82-5.83-2.37-9-2.73,3.19-3.73,7.23-4.65,11-1.73C1605.81,767.34,1604.54,769.76,1602,770.46Z"/><path d="M596.15,46.86c6.06-5,10.19-3.39,15.69-1.82C607,51.4,602.67,50,596.15,46.86Z"/><path d="M577.51,37l4.28-.32c4.55.32,7.22,3.23,9.46,6.75C583.5,47.88,580,43.55,577.51,37Z"/><path d="M555.46,84.53l3.12-6.33c6.9-.3,3.44,6.28,8.85,9C561,88,559.21,82.82,555.46,84.53Z"/><path d="M552.26,78.37l-.93,10.48c-6.82-2.75-5-7.71-5-12Z"/><path d="M498.6,112.83c-10.75,1.23-23-14.39-18.83-24.13.54-1.26,1.88-2.18,2.85-3.26,4.39,13.13,13.14-1.51,19.79,3.27,11.79,8.5-4.19,14.28-1.05,21.51C502,112.7,501.25,113.79,498.6,112.83Z"/><path d="M435.42,129.3c-2.58,7.75-10.66,2.44-14.89,6.27-2.83-8.84-14.1-14.35-10.17-25.84,2.56,0,5.12.06,7.67,0C431.64,109.32,439.68,113.84,435.42,129.3Z"/><path d="M490.19,157.61l-4.5-.48c-2.83-7-1.1-13.13,3.57-18.7,14.25-10.33,23.2-8.36,24.8,5.43C507.74,151.29,497.59,152.07,490.19,157.61Z"/><path d="M498.6,112.83l2.76-2.62c5.23-.82,10.91-2.1,11,6,0,3-.56,7.45-3.83,7.62C501.5,124.24,499.09,119.07,498.6,112.83Z"/><path d="M489.26,138.43l-3.57,18.7-4.24,1.34c3-6.42-4.63-15.33,4.71-20.29A8.76,8.76,0,0,1,489.26,138.43Z"/><path d="M523.87,59l-.21,16-5.9-6.18C517.64,64.2,519.41,60.77,523.87,59Z"/><path d="M536.5,97.2c-5,1-9.08.32-9.87-5.84C533.18,87.81,534,94,536.5,97.2Z"/><path d="M435.19,191.87c-2.61,9.68-6,5.32-9.4.52Z"/><path d="M1586.57,647.19c.56,4.33,2.9,8.64.1,13,.44,2.58.34,4.52-3.06,2.63C1584.68,657.62,1567.24,648.91,1586.57,647.19Z"/><path d="M1583.61,662.81l3.06-2.63,9.61-3.24c-.18,9-6.92,8.32-12.92,8.69A18.94,18.94,0,0,1,1583.61,662.81Z"/><path d="M935.14,469.93c4.23-.13,5.38,2,5.57,4.82.2,3.14.22,6.73-3.65,7.46-3.31.63-4.09-2.42-4.41-5C932.27,474.16,932.05,471,935.14,469.93Z"/><path d="M1069.74,505c1.64.59,4.48.14,3.51,3.25a5.24,5.24,0,0,1-3.06,2.74c-2,.67-4.13.26-4.41-2.31S1067.78,505.62,1069.74,505Z"/></g></svg>