<svg id="Camada_1" data-name="Camada 1" xmlns="http://www.w3.org/2000/svg" viewBox="0 0 90 90"><defs><style>.cls-1{fill:#fff;}.cls-2{fill:#ef5929;}</style></defs><rect class="cls-1" x="0.5" width="90" height="90"/><g id="xWoGz0.tif"><path class="cls-2" d="M52.68,44.87c0,8.76,0,17.52,0,26.28,0,1.59-.41,2.28-2.09,2.16a36.6,36.6,0,0,0-5.13,0c-1.77.13-2.38-.45-2.36-2.31.1-8.88,0-17.77,0-26.66,0-4.74,0-9.49,0-14.23,0-1.51-.4-1.81-1.83-1.29-3.46,1.27-7,2.37-10.44,3.61-1.21.43-1.56.18-1.59-1.15-.17-6.39-.21-6.38,5.84-8.58,5.13-1.87,10.24-3.78,15.38-5.64,2-.71,2.11-.59,2.12,1.54Q52.69,31.74,52.68,44.87Z"/></g></svg>