<svg id="Camada_1" data-name="Camada 1" xmlns="http://www.w3.org/2000/svg" viewBox="0 0 90 90"><defs><style>.cls-1{fill:#fff;}.cls-2{fill:#ef5929;}</style></defs><rect class="cls-1" width="90" height="90"/><path class="cls-2" d="M54.69,44.28a16.36,16.36,0,0,1,5.89,4.08c4.88,5.8,3.88,15.83-2.11,21-7.08,6.11-20.38,6-27.39-.19a14.18,14.18,0,0,1-4.72-9.23c-.16-1.33.06-2.12,1.7-2,2.09.12,4.2.06,6.3,0,.93,0,1.33.28,1.56,1.27,1.55,6.66,9.95,9.45,15.28,5.08,3.15-2.58,3.36-6.09,2.61-9.71-.7-3.38-3.06-5.22-6.34-6a31.64,31.64,0,0,0-7.65-.37c-1.29,0-1.76-.43-1.68-1.71a29.81,29.81,0,0,0,0-4.12c-.11-1.44.53-1.76,1.84-1.75A28.83,28.83,0,0,0,47,40.3c4.31-1,6.42-4,6.19-8.93C53,27,50.77,24.53,46.37,23.94c-5.06-.68-8.75,1.7-9.87,6.47a1.37,1.37,0,0,1-1.6,1.27c-2.16,0-4.33-.07-6.5,0-1.35,0-1.69-.49-1.51-1.77A14.67,14.67,0,0,1,31.42,21c6.74-6.32,19.74-6.5,26.69-.38A14.19,14.19,0,0,1,56.61,43Z"/></svg>