<svg id="Camada_1" data-name="Camada 1" xmlns="http://www.w3.org/2000/svg" viewBox="0 0 90 90"><defs><style>.cls-1{fill:#fff;}.cls-2{fill:#ef5929;}</style></defs><rect class="cls-1" width="90" height="90"/><path class="cls-2" d="M38.92,65.55a7.23,7.23,0,0,0,3,.27c6.89,0,13.78,0,20.68,0,1.44,0,2,.37,1.9,1.87a16.21,16.21,0,0,0,0,3.34c.22,1.86-.42,2.48-2.37,2.45-7.09-.11-14.18,0-21.27,0-4.07,0-8.14-.07-12.21,0-1.67,0-2-.59-2.13-2.14-.3-3.12.75-5.38,2.91-7.64,6.28-6.6,12.38-13.39,18.41-20.21,2.62-3,4.84-6.23,4.82-10.48,0-4.91-2.8-8.23-7.3-8.7-5-.52-8.93,2.25-10,6.93-.78,3.43-.78,3.43-4.23,3.43a34.82,34.82,0,0,0-3.54,0c-1.78.18-2.28-.49-2.08-2.24a16.92,16.92,0,0,1,13-15.08,24.22,24.22,0,0,1,12.28,0c9,2.3,13.44,10.38,10.69,19.54-1.76,5.89-5.67,10.42-9.73,14.83-3.86,4.2-7.79,8.33-11.68,12.5C39.7,64.57,39.39,65,38.92,65.55Z"/></svg>