<?xml version="1.0" standalone="no"?>
<!DOCTYPE svg PUBLIC "-//W3C//DTD SVG 20010904//EN"
 "http://www.w3.org/TR/2001/REC-SVG-20010904/DTD/svg10.dtd">
<svg version="1.0" xmlns="http://www.w3.org/2000/svg"
 width="253.000000pt" height="253.000000pt" viewBox="0 0 253.000000 253.000000"
 preserveAspectRatio="xMidYMid meet">
<metadata>
Created by potrace 1.11, written by Peter Selinger 2001-2013
</metadata>
<g transform="translate(0.000000,253.000000) scale(0.100000,-0.100000)"
fill="#000000" stroke="none">
<path d="M1665 2462 c-33 -7 -71 -39 -88 -74 -11 -22 -23 -33 -38 -33 -26 0
-45 -26 -36 -48 3 -9 22 -23 42 -31 19 -8 71 -50 115 -93 l80 -78 -15 -50
c-25 -82 -22 -79 -54 -56 -107 76 -285 131 -441 136 -336 10 -632 -160 -793
-456 -64 -115 -85 -199 -92 -349 -9 -218 61 -451 180 -603 90 -113 251 -225
395 -274 455 -154 947 89 1099 543 37 110 46 169 44 299 -2 159 -56 333 -143
459 l-31 46 27 50 c15 28 31 50 35 50 4 0 37 -28 74 -62 51 -48 65 -67 61 -82
-3 -12 -12 -43 -21 -69 l-14 -48 48 -50 c66 -67 72 -66 121 26 64 118 67 121
165 176 72 39 95 57 95 73 0 24 -77 106 -101 106 -9 0 -41 -8 -71 -19 l-54
-19 -65 70 c-35 39 -62 73 -60 77 2 3 69 43 149 87 81 45 153 91 161 103 13
20 10 25 -47 82 -45 45 -66 60 -79 55 -9 -4 -102 -32 -205 -63 l-188 -56 -76
81 c-41 45 -83 83 -92 86 -31 9 -67 13 -87 8z m139 -163 c48 -49 94 -91 104
-91 9 -1 44 7 77 17 33 10 65 20 70 21 6 2 65 20 133 40 114 34 124 36 139 21
9 -9 15 -18 12 -21 -2 -2 -65 -38 -140 -79 -75 -41 -146 -81 -158 -88 -42 -27
-39 -31 156 -236 17 -18 33 -33 35 -33 1 0 32 9 68 20 35 11 68 16 73 11 7 -7
-21 -25 -123 -80 -8 -4 -33 -40 -54 -79 -52 -96 -74 -97 -41 -2 26 72 23 79
-86 180 -113 106 -122 112 -141 105 -7 -3 -53 -78 -103 -166 -86 -155 -90
-160 -106 -141 -15 20 -13 32 42 214 33 106 59 200 59 209 0 9 -40 53 -90 98
-73 67 -90 89 -90 111 0 30 30 60 61 60 9 0 55 -41 103 -91z m-538 -258 c69
-64 90 -157 53 -236 -24 -54 -158 -193 -288 -300 -106 -88 -165 -165 -172
-225 -9 -80 30 -123 181 -200 55 -29 100 -55 100 -60 0 -28 -169 -32 -251 -5
-76 26 -227 127 -284 191 -27 30 -119 94 -151 104 -36 12 -36 13 -31 59 18
166 102 336 227 461 141 139 329 220 528 228 55 3 71 0 88 -17z m175 -17 c63
-19 136 -55 196 -95 l41 -29 -29 -96 c-16 -54 -29 -101 -29 -105 0 -12 110
-119 123 -119 21 0 33 14 68 78 18 34 37 62 40 62 9 0 75 -128 95 -182 31 -85
30 -93 -19 -121 -51 -30 -105 -87 -112 -120 -2 -12 -9 -48 -14 -79 -15 -85
-53 -151 -135 -231 -41 -40 -108 -105 -150 -146 -100 -97 -138 -171 -140 -271
0 -39 -5 -70 -11 -71 -5 0 -19 -3 -30 -5 -54 -12 -198 -11 -269 2 -348 66
-597 331 -645 688 -4 32 -4 56 1 56 20 0 55 -26 162 -117 178 -152 289 -203
439 -203 105 1 177 24 195 63 26 55 -9 95 -147 166 -131 67 -149 90 -124 151
14 36 82 106 193 200 154 131 237 229 267 316 19 57 12 142 -16 190 -23 39
-23 39 50 18z m530 -928 c-60 -250 -223 -445 -463 -550 l-58 -26 0 48 c0 51
26 117 66 169 13 17 66 69 117 115 167 150 217 223 243 355 8 41 14 76 14 77
0 7 38 44 65 63 l30 21 3 -94 c2 -67 -3 -118 -17 -178z"/>
<path d="M1248 2399 c-21 -12 -23 -42 -4 -58 7 -6 44 -12 81 -14 55 -2 69 1
79 16 13 20 -1 49 -25 52 -76 11 -117 13 -131 4z"/>
<path d="M1060 2395 c-8 -2 -32 -6 -53 -10 -48 -8 -66 -41 -37 -66 19 -17 29
-16 138 7 15 3 22 12 22 27 0 39 -22 52 -70 42z"/>
<path d="M758 2313 c-46 -20 -58 -31 -58 -48 0 -44 23 -49 97 -18 69 29 86 50
63 78 -17 21 -36 19 -102 -12z"/>
<path d="M525 2179 c-54 -40 -66 -58 -55 -79 17 -32 38 -29 94 11 55 40 67 64
44 87 -19 19 -40 14 -83 -19z"/>
<path d="M321 1983 c-46 -54 -52 -89 -18 -103 18 -7 27 -3 56 28 56 62 64 78
51 101 -17 33 -45 25 -89 -26z"/>
<path d="M174 1745 c-29 -66 -30 -91 -6 -104 21 -11 62 10 62 32 0 7 8 28 19
47 24 45 13 80 -24 80 -22 0 -30 -9 -51 -55z"/>
<path d="M2232 1563 c-12 -25 15 -140 35 -147 9 -4 25 -4 36 0 17 5 19 12 13
59 -9 80 -21 105 -50 105 -14 0 -29 -8 -34 -17z"/>
<path d="M114 1542 c-19 -12 -39 -120 -29 -152 8 -25 51 -27 64 -2 14 27 25
152 13 152 -6 0 -16 2 -24 5 -7 3 -18 1 -24 -3z"/>
<path d="M2278 1308 c-12 -9 -18 -33 -20 -82 -3 -60 0 -70 18 -82 17 -12 23
-12 38 -1 25 18 29 153 6 167 -20 13 -23 12 -42 -2z"/>
<path d="M85 1254 c-13 -14 -15 -29 -10 -78 7 -76 35 -105 68 -71 11 11 13 30
10 77 -7 86 -30 110 -68 72z"/>
<path d="M2247 1028 c-18 -14 -47 -91 -47 -125 0 -34 35 -48 59 -24 27 27 48
125 31 146 -15 18 -21 19 -43 3z"/>
<path d="M126 985 c-15 -16 -14 -25 17 -110 11 -31 20 -41 40 -43 42 -5 50 24
24 94 -27 76 -48 91 -81 59z"/>
<path d="M2106 721 c-31 -51 -35 -64 -26 -81 18 -34 51 -21 88 35 40 61 40 99
1 103 -23 3 -32 -5 -63 -57z"/>
<path d="M243 743 c-23 -9 -13 -57 22 -105 36 -49 63 -60 84 -34 14 17 4 46
-38 104 -30 40 -41 46 -68 35z"/>
<path d="M1936 511 c-36 -37 -46 -54 -42 -69 13 -39 45 -34 97 15 50 46 59 69
37 91 -21 21 -43 13 -92 -37z"/>
<path d="M399 509 c-10 -19 -5 -27 37 -70 53 -54 86 -62 105 -27 10 19 6 27
-39 70 -55 52 -85 60 -103 27z"/>
<path d="M1734 360 c-61 -36 -77 -56 -63 -81 14 -28 48 -23 104 14 37 24 50
39 50 56 0 39 -34 44 -91 11z"/>
<path d="M625 354 c-31 -31 -12 -58 65 -93 56 -26 67 -26 80 -2 14 28 5 45
-38 69 -67 38 -90 43 -107 26z"/>
<path d="M1470 251 c-47 -14 -55 -21 -58 -44 -5 -42 29 -49 103 -23 62 22 78
43 55 71 -15 18 -30 18 -100 -4z"/>
<path d="M870 245 c-21 -25 -2 -54 43 -66 65 -18 108 -17 121 4 18 27 -4 49
-65 63 -71 17 -84 17 -99 -1z"/>
<path d="M1154 212 c-19 -13 -23 -41 -8 -57 19 -19 134 -21 152 -3 17 17 15
55 -4 62 -22 8 -127 7 -140 -2z"/>
</g>
</svg>
