<?xml version="1.0" encoding="utf-8"?>
<!-- Generator: Adobe Illustrator 25.0.0, SVG Export Plug-In . SVG Version: 6.00 Build 0)  -->
<svg version="1.1" id="Camada_1" xmlns="http://www.w3.org/2000/svg" xmlns:xlink="http://www.w3.org/1999/xlink" x="0px" y="0px"
	 viewBox="0 0 30 30" style="enable-background:new 0 0 30 30;" xml:space="preserve">
<style type="text/css">
	.st0{fill:none;stroke:#F7B32B;stroke-width:1.25;stroke-miterlimit:10;}
	.st1{fill:#F7B32B;}
	.st2{fill:#2B2B2B;}
</style>
<path class="st0" d="M14.6,12.2c0.2-0.5,0.7-2,2.2-3.1c2.1-1.5,4.5-1,4.9-0.9c0.4,0.1,1,0.4,1.6,0.8c1.1,0.8,1.7,1.8,1.9,2.4
	c0.2,0.4,1,2.1,0.4,4.2c-0.7,2.3-2.6,3.2-2.9,3.4"/>
<g id="ceu_c_nuvens">
	<path d="M21.7,17.7c-0.9-0.3-1.8-0.5-1.8-0.5c-0.1-0.1-0.5-1.9-1.6-3.3c-0.9-1.1-2.2-1.8-2.4-1.9c-0.2,0-0.5-0.2-0.7-0.3
		c-0.4-0.1-0.7-0.2-0.7-0.2c-3.2-0.6-6.3,0.9-7.8,3.8c-2.8-0.7-5.6,1-6.3,3.8c-0.7,2.8,1,5.6,3.8,6.3c0.4,0.1,0.8,0.2,1.3,0.1h14.8
		c2.4,0,4.3-1.9,4.3-4.3c0-0.9-0.3-1.8-0.9-2.5C23.7,18.9,22.6,18.1,21.7,17.7z M20.2,24.8L20.2,24.8l-14.8,0
		c-2.4-0.1-4.2-2.1-4.1-4.4s2.1-4.2,4.4-4.1c0.3,0,0.7,0.1,1,0.2c0.2,0.1,0.5,0,0.6-0.3c1.3-3.1,5-4.6,8.1-3.3
		c2,0.9,3.4,2.7,3.7,4.8c0,0.3,0.3,0.4,0.5,0.4c0.2,0,0.3,0,0.5,0c1.8,0.1,3.3,1.7,3.2,3.5C23.3,23.4,21.9,24.7,20.2,24.8z"/>
	<path class="st1" d="M29.3,13.4h-1.9c-0.3,0-0.5,0.2-0.5,0.5c0,0.3,0.2,0.5,0.5,0.5h1.9c0.3,0,0.5-0.2,0.5-0.5
		C29.8,13.6,29.6,13.3,29.3,13.4C29.3,13.3,29.3,13.3,29.3,13.4z"/>
	<path class="st1" d="M20.2,7.2c0.3,0,0.5-0.2,0.5-0.5c0,0,0,0,0,0V4.8c0-0.3-0.2-0.5-0.5-0.5s-0.5,0.2-0.5,0.5v1.9
		C19.7,6.9,19.9,7.2,20.2,7.2C20.2,7.2,20.2,7.2,20.2,7.2z"/>
	<path class="st1" d="M25.3,9.3c0.1,0,0.2-0.1,0.3-0.1L27,7.8c0.1-0.1,0.2-0.3,0.1-0.5C27,7.2,26.9,7,26.8,7c-0.2,0-0.3,0-0.5,0.1
		l-1.4,1.3c-0.1,0.1-0.2,0.3-0.1,0.5C24.9,9.1,25.1,9.3,25.3,9.3z"/>
	<path class="st1" d="M25.6,18.5c-0.2-0.2-0.5-0.1-0.7,0.1c-0.1,0.2-0.1,0.4,0,0.6l1.4,1.4c0.2,0.2,0.5,0.2,0.7,0s0.2-0.5,0-0.7
		L25.6,18.5z"/>
	<path class="st1" d="M14.9,9.1c0.1,0.1,0.3,0.2,0.5,0.1c0.2,0,0.3-0.2,0.3-0.3c0.1-0.2,0-0.3-0.1-0.5l-1.3-1.3
		C14.1,7,13.9,7,13.7,7c-0.2,0.1-0.3,0.2-0.3,0.3c0,0.2,0,0.3,0.1,0.5L14.9,9.1z"/>
	<path class="st2" d="M8.4,22.4H4.5c-0.3,0-0.5,0.2-0.5,0.5c0,0.3,0.2,0.5,0.5,0.5h3.8c0.3,0,0.5-0.2,0.5-0.5
		C8.8,22.6,8.6,22.4,8.4,22.4z"/>
</g>
</svg>
