<?xml version="1.0" encoding="utf-8"?>
<!-- Generator: Adobe Illustrator 25.0.0, SVG Export Plug-In . SVG Version: 6.00 Build 0)  -->
<svg version="1.1" id="Camada_1" xmlns="http://www.w3.org/2000/svg" xmlns:xlink="http://www.w3.org/1999/xlink" x="0px" y="0px"
	 viewBox="0 0 30 30" style="enable-background:new 0 0 30 30;" xml:space="preserve">
<style type="text/css">
	.st0{fill:#F7B32B;}
</style>
<g id="ceu_limpo">
	<path class="st0" d="M27.8,7.6c-0.2-0.3-0.5-0.3-0.7-0.2L24.5,9c-0.3,0.1-0.4,0.4-0.3,0.7s0.4,0.4,0.7,0.3c0,0,0.1,0,0.1,0l2.6-1.5
		C27.9,8.3,28,8,27.8,7.6C27.8,7.7,27.8,7.6,27.8,7.6z"/>
	<path class="st0" d="M27.6,21.6L25,20.1c-0.2-0.2-0.6-0.1-0.8,0.1s-0.1,0.6,0.1,0.8c0,0,0.1,0,0.1,0l2.6,1.5c0.3,0.1,0.6,0,0.7-0.3
		C27.9,22.1,27.8,21.8,27.6,21.6L27.6,21.6z"/>
	<path class="st0" d="M15.1,25.6c-0.3,0-0.5,0.2-0.6,0.5v3.1c0,0.3,0.2,0.6,0.5,0.6c0.3,0,0.6-0.2,0.6-0.5c0,0,0,0,0,0v-3.1
		C15.6,25.9,15.4,25.6,15.1,25.6z"/>
	<path class="st0" d="M5.6,9L3,7.4C2.7,7.3,2.4,7.4,2.3,7.6C2.1,7.9,2.2,8.2,2.5,8.4l2.6,1.5C5.3,10,5.7,9.9,5.8,9.7
		C5.9,9.4,5.9,9.1,5.6,9z"/>
	<path class="st0" d="M15.1,0.2c-0.3,0-0.6,0.2-0.6,0.5c0,0,0,0,0,0v3.1c0,0.3,0.2,0.5,0.5,0.5c0.3,0,0.5-0.2,0.5-0.5v-3
		C15.6,0.5,15.4,0.2,15.1,0.2C15.1,0.2,15.1,0.2,15.1,0.2z"/>
	<path class="st0" d="M9.9,5L8.4,2.4C8.3,2.2,7.9,2.1,7.7,2.2C7.4,2.4,7.3,2.7,7.5,3L9,5.6c0.2,0.2,0.5,0.3,0.8,0.1
		C10,5.6,10,5.3,9.9,5L9.9,5z"/>
	<path class="st0" d="M29.8,15c0-0.3-0.2-0.5-0.5-0.5h-3c-0.3-0.1-0.6,0.1-0.6,0.4c-0.1,0.3,0.1,0.6,0.4,0.6c0,0,0.1,0,0.1,0
		c0,0,0.1,0,0.1,0h3C29.6,15.5,29.8,15.3,29.8,15z"/>
	<path class="st0" d="M4,14.5H0.8c-0.3,0-0.5,0.2-0.5,0.5c0,0.3,0.2,0.5,0.5,0.5h3c0.3,0,0.6-0.2,0.6-0.5S4.3,14.5,4,14.5z"/>
	<path class="st0" d="M15.1,7.1c-4.4,0-7.9,3.6-7.9,7.9c0,4.4,3.6,7.9,7.9,7.9c4.4,0,7.9-3.6,7.9-7.9C23,10.6,19.4,7.1,15.1,7.1
		C15.1,7.1,15.1,7.1,15.1,7.1z M19.9,19.9c-2.7,2.6-7.1,2.5-9.7-0.2c-2.5-2.6-2.5-6.8,0-9.5l0,0c2.7-2.7,7-2.7,9.7,0
		S22.6,17.2,19.9,19.9L19.9,19.9z"/>
	<path class="st0" d="M22.6,27L22.6,27l-1.5-2.6c-0.1-0.3-0.5-0.3-0.7-0.2c0,0,0,0,0,0c-0.3,0.2-0.3,0.5-0.2,0.7l1.5,2.6
		c0.2,0.3,0.5,0.3,0.7,0.2C22.7,27.6,22.8,27.3,22.6,27z"/>
	<path class="st0" d="M22.4,2.2c-0.3-0.1-0.6-0.1-0.7,0.2L20.2,5c-0.1,0.3-0.1,0.6,0.2,0.7c0,0,0,0,0,0l0,0c0.3,0.1,0.6,0.1,0.7-0.2
		l0,0L22.6,3C22.8,2.7,22.7,2.4,22.4,2.2C22.5,2.2,22.5,2.2,22.4,2.2z"/>
	<path class="st0" d="M9.7,24.2c-0.3-0.1-0.6-0.1-0.7,0.2c0,0,0,0,0,0L7.5,27c-0.1,0.3-0.1,0.6,0.2,0.7c0.3,0.1,0.6,0.1,0.7-0.2
		L9.9,25C10.1,24.8,10,24.4,9.7,24.2C9.8,24.2,9.7,24.2,9.7,24.2z"/>
	<path class="st0" d="M5.8,20.3c-0.2-0.3-0.5-0.3-0.7-0.2l-2.6,1.5c-0.3,0.2-0.3,0.5-0.2,0.7c0.1,0.3,0.5,0.3,0.7,0.2c0,0,0,0,0,0
		l2.6-1.5C5.9,20.9,6,20.6,5.8,20.3C5.8,20.3,5.8,20.3,5.8,20.3z"/>
</g>
</svg>
