<?xml version="1.0" encoding="utf-8"?>
<!-- Generator: Adobe Illustrator 25.0.0, SVG Export Plug-In . SVG Version: 6.00 Build 0)  -->
<svg version="1.1" id="Camada_1" xmlns="http://www.w3.org/2000/svg" xmlns:xlink="http://www.w3.org/1999/xlink" x="0px" y="0px"
	 viewBox="0 0 30 30" style="enable-background:new 0 0 30 30;" xml:space="preserve">
<style type="text/css">
	.st0{fill:#2B2B2B;}
	.st1{fill:#50B2C0;}
</style>
<g id="chuva_forte">
	<path d="M27.7,11.9c0-0.1,0-0.3,0-0.4c0-2.3-1.9-4.1-4.1-4.1c-2-4.8-7.6-7-12.4-5c-0.8,0.4-1.6,0.8-2.3,1.4C7.4,5,6.3,6.7,5.8,8.6
		c-3.1,0.2-5.4,2.8-5.3,5.9c0.2,2.9,2.5,5.2,5.4,5.3h6.6c0.3,0,0.6-0.3,0.6-0.6c0-0.3-0.3-0.6-0.6-0.6c0,0,0,0,0,0H5.9
		c-2.4,0-4.4-2-4.4-4.4c0-2.4,2-4.4,4.4-4.4c1.1,0,2.1,0.4,2.9,1.1C8.9,11,9.1,11,9.2,11c0.2,0,0.3-0.1,0.4-0.2
		c0.2-0.2,0.2-0.6,0-0.8c0,0,0,0,0,0C8.8,9.3,7.9,8.9,6.9,8.7C8.2,4.3,12.8,1.8,17.2,3c2.5,0.7,4.6,2.6,5.5,5.1
		c0.1,0.2,0.3,0.4,0.6,0.4h0.3c1.7,0,3,1.4,3,3c0,0.2,0,0.4-0.1,0.6c-0.1,0.3,0.1,0.6,0.3,0.7c1.5,0.6,2.3,2.4,1.6,3.9
		c-0.5,1.1-1.5,1.8-2.7,1.8h-8c-0.3,0-0.6,0.2-0.6,0.6c0,0,0,0,0,0c0,0.3,0.3,0.6,0.6,0.6h8c2.3,0,4.2-1.9,4.2-4.1
		C29.9,14.1,29,12.7,27.7,11.9L27.7,11.9z"/>
	<path class="st0" d="M15.1,19.7c-0.3,0-0.6-0.3-0.6-0.6c0-0.2,0.1-0.3,0.2-0.4c0.1-0.1,0.3-0.2,0.4-0.2c0.3,0,0.6,0.3,0.6,0.6
		c0,0.2-0.1,0.3-0.2,0.4C15.4,19.7,15.3,19.7,15.1,19.7z"/>
	<path class="st1" d="M12.2,20.9c-0.2-0.2-0.6-0.2-0.8,0c0,0,0,0,0,0l-1.8,1.8c-0.2,0.2-0.2,0.6,0,0.8c0.1,0.1,0.3,0.2,0.4,0.2
		c0.2,0,0.3-0.1,0.4-0.2l1.8-1.8C12.5,21.5,12.5,21.1,12.2,20.9z"/>
	<path class="st1" d="M4.8,20.9c-0.2-0.2-0.6-0.2-0.8,0c0,0,0,0,0,0l-1.8,1.8c-0.2,0.2-0.2,0.6,0,0.8c0.1,0.1,0.3,0.2,0.4,0.2
		c0.2,0,0.3-0.1,0.4-0.2l1.8-1.8C5,21.4,5,21.1,4.8,20.9z"/>
	<path class="st1" d="M19.7,20.9c-0.2-0.2-0.6-0.2-0.8,0c0,0,0,0,0,0l-1.7,1.7c-0.2,0.2-0.2,0.6,0,0.8c0.1,0.1,0.3,0.2,0.4,0.2
		c0.2,0,0.3-0.1,0.4-0.2l1.7-1.7C19.9,21.5,19.9,21.1,19.7,20.9z"/>
	<path class="st1" d="M7,24.5c-0.2-0.2-0.6-0.2-0.8,0c0,0,0,0,0,0l-2.6,2.6c-0.2,0.2-0.2,0.6,0,0.8c0.1,0.1,0.3,0.2,0.4,0.2
		c0.2,0,0.3-0.1,0.4-0.2L7,25.3C7.2,25.1,7.2,24.7,7,24.5z"/>
	<path class="st1" d="M14.4,24.5c-0.2-0.2-0.6-0.2-0.8,0c0,0,0,0,0,0L11,27.1c-0.2,0.2-0.2,0.6,0,0.8c0.1,0.1,0.3,0.2,0.4,0.2
		c0.2,0,0.3-0.1,0.4-0.2l2.6-2.6C14.6,25.1,14.6,24.7,14.4,24.5z"/>
	<path class="st1" d="M21.9,24.5c-0.2-0.2-0.6-0.2-0.8,0c0,0,0,0,0,0l-2.6,2.6c-0.2,0.2-0.2,0.6,0,0.8c0,0,0,0,0,0
		c0.2,0.2,0.6,0.2,0.8,0c0,0,0,0,0,0l2.6-2.6C22.1,25.1,22.1,24.7,21.9,24.5z"/>
	<path class="st1" d="M27.2,20.9c-0.2-0.2-0.6-0.2-0.8,0c0,0,0,0,0,0l-1.7,1.7c-0.2,0.2-0.2,0.6,0,0.8c0.2,0.2,0.6,0.2,0.8,0
		l1.7-1.7C27.4,21.5,27.4,21.1,27.2,20.9C27.2,20.9,27.2,20.9,27.2,20.9z"/>
</g>
</svg>
