<?xml version="1.0" encoding="utf-8"?>
<!-- Generator: Adobe Illustrator 25.0.0, SVG Export Plug-In . SVG Version: 6.00 Build 0)  -->
<svg version="1.1" id="Camada_1" xmlns="http://www.w3.org/2000/svg" xmlns:xlink="http://www.w3.org/1999/xlink" x="0px" y="0px"
	 viewBox="0 0 30 30" style="enable-background:new 0 0 30 30;" xml:space="preserve">
<style type="text/css">
	.st0{fill:none;stroke:#F7B32B;stroke-width:1.25;stroke-miterlimit:10;}
	.st1{fill:#2B2B2B;}
	.st2{fill:#F7B32B;}
	.st3{fill:#50B2C0;}
</style>
<path class="st0" d="M20.3,5.2c0.3-0.2,0.9-0.7,1.8-0.9c1.1-0.2,2,0.2,2.3,0.3c0.3,0.1,0.6,0.3,1,0.6c0.1,0.1,1.4,1.2,1.5,3.1
	c0,0.9-0.3,1.9-0.4,1.9l-0.1-0.1"/>
<g id="chuva_c_sol">
	<path d="M27.2,10.3l-1-0.6c-0.6-0.2-1.3-0.4-2-0.4c-0.5,0-1,0.1-1.4,0.2C22.6,8,22,6.5,21,5.3l-0.7-0.9L20,4.2
		c-3.7-3.5-9.6-3.3-13.1,0.5c-1.6,1.7-2.5,4-2.5,6.3v0.8h0c-2.3,0.1-4.1,2.1-4,4.4c0.1,2.2,1.8,3.9,4,4h8.5c0.3,0,0.6-0.2,0.7-0.5
		s-0.2-0.6-0.5-0.7c-0.1,0-0.1,0-0.2,0H4.4c-1.7-0.1-3-1.6-2.9-3.3c0.1-1.6,1.3-2.8,2.9-2.9c0.2,0,0.4,0,0.6,0.1
		c1.4,0.3,2.4,1.5,2.4,3c0,0.3,0.3,0.6,0.6,0.6c0.3,0,0.6-0.3,0.6-0.6c0-1.8-1.2-3.5-3-4c0-0.3-0.1-0.7-0.1-1c0-4.5,3.6-8.1,8.1-8.1
		c4.3,0,7.8,3.3,8.1,7.5c0,0.2,0.1,0.4,0.3,0.5c0.2,0.1,0.4,0.1,0.5,0c0.5-0.2,1.1-0.3,1.7-0.3c2.4,0.1,4.2,2.1,4.1,4.5
		c-0.1,2.2-1.9,4-4.1,4.1h-6c-0.3,0-0.6,0.2-0.7,0.5s0.2,0.6,0.5,0.7c0.1,0,0.1,0,0.2,0h6c3,0,5.4-2.4,5.4-5.4
		C29.6,13,28.7,11.3,27.2,10.3z"/>
	<path class="st1" d="M16,19.2c-0.1-0.1-0.2-0.2-0.4-0.2c-0.3,0-0.6,0.3-0.6,0.6c0,0.2,0.1,0.3,0.2,0.4c0.1,0.1,0.3,0.2,0.4,0.2
		c0.3,0,0.6-0.3,0.6-0.6C16.2,19.5,16.1,19.3,16,19.2z"/>
	<path class="st2" d="M29.5,1.8c-0.2-0.2-0.6-0.2-0.8,0l-1.8,1.8c-0.2,0.2-0.2,0.6,0,0.8c0.1,0.1,0.3,0.2,0.4,0.2
		c0.2,0,0.3-0.1,0.4-0.2l1.8-1.8C29.7,2.5,29.7,2.1,29.5,1.8L29.5,1.8z"/>
	<path class="st2" d="M22.8,0.4c-0.3,0-0.6,0.3-0.6,0.6v1.2c0,0.3,0.2,0.6,0.5,0.7c0.3,0,0.6-0.2,0.7-0.5c0-0.1,0-0.1,0-0.2V1
		C23.3,0.7,23.1,0.4,22.8,0.4z"/>
	<path class="st2" d="M29.1,8h-0.3c-0.3,0-0.6,0.3-0.6,0.6s0.3,0.6,0.6,0.6l0,0h0.3c0.3,0,0.6-0.2,0.6-0.6l0,0
		C29.7,8.3,29.4,8,29.1,8z"/>
	<path class="st1" d="M13.7,4.3L13.7,4.3c-0.3,0-0.6,0.3-0.6,0.6c0,0.3,0.3,0.6,0.6,0.6l0,0c0.3,0,0.6-0.3,0.6-0.6
		C14.3,4.6,14,4.3,13.7,4.3z"/>
	<path class="st1" d="M20.1,10.3c-0.2-2.4-1.7-4.5-3.9-5.4c-0.3-0.1-0.6,0-0.8,0.3c-0.1,0.3,0,0.6,0.3,0.8c1.8,0.8,3.1,2.5,3.2,4.5
		c0,0.3,0.3,0.5,0.6,0.5l0,0C19.9,10.9,20.1,10.6,20.1,10.3z"/>
	<path class="st3" d="M5.1,25.1c-0.3,0-0.6-0.2-0.6-0.6l0,0v-3.3c0-0.3,0.3-0.6,0.6-0.6c0.3,0,0.6,0.3,0.6,0.6v3.3
		C5.7,24.9,5.4,25.1,5.1,25.1L5.1,25.1z"/>
	<path class="st3" d="M18.7,29.7c-0.3,0-0.6-0.3-0.6-0.6v-3.2c0-0.3,0.3-0.5,0.7-0.5c0.3,0,0.5,0.2,0.5,0.5v3.2
		C19.3,29.4,19,29.7,18.7,29.7z"/>
	<path class="st3" d="M23.9,25.1c-0.3,0-0.6-0.2-0.6-0.5l0,0v-3.3c0-0.3,0.2-0.6,0.5-0.6l0,0c0.3,0,0.6,0.2,0.6,0.6l0,0v3.3
		C24.4,24.9,24.2,25.1,23.9,25.1L23.9,25.1z"/>
	<path class="st3" d="M11.5,28.4c-0.3,0-0.6-0.3-0.6-0.6v-4.5c0-0.3,0.3-0.6,0.6-0.6s0.6,0.3,0.6,0.6v4.5
		C12.1,28.1,11.9,28.4,11.5,28.4L11.5,28.4z"/>
</g>
</svg>
