<?xml version="1.0" encoding="utf-8"?>
<!-- Generator: Adobe Illustrator 25.0.0, SVG Export Plug-In . SVG Version: 6.00 Build 0)  -->
<svg version="1.1" id="Camada_1" xmlns="http://www.w3.org/2000/svg" xmlns:xlink="http://www.w3.org/1999/xlink" x="0px" y="0px"
	 viewBox="0 0 30 30" style="enable-background:new 0 0 30 30;" xml:space="preserve">
<style type="text/css">
	.st0{fill:#2B2B2B;}
	.st1{fill:#50B2C0;}
</style>
<g id="chuva">
	<path d="M27.7,11.4c0-0.1,0-0.3,0-0.4c0-2.3-1.9-4.1-4.1-4.1c-2-4.8-7.6-7-12.4-5C8.5,3,6.5,5.3,5.7,8.1c-3.1,0-5.5,2.6-5.5,5.6
		s2.6,5.5,5.6,5.5h6.6c0.3,0,0.6-0.2,0.6-0.5l0,0c0-0.3-0.2-0.6-0.5-0.6c0,0,0,0-0.1,0H5.9c-2.4,0-4.4-2-4.4-4.4s2-4.4,4.4-4.4
		C7,9.2,8,9.6,8.8,10.3c0.1,0.1,0.2,0.1,0.4,0.1s0.3-0.1,0.4-0.2c0.2-0.2,0.2-0.6,0-0.8l0,0C8.8,8.8,7.9,8.3,6.9,8.2
		c1.3-4.4,5.8-6.9,10.2-5.7c2.5,0.7,4.6,2.6,5.5,5.1C22.7,7.9,23,8,23.2,8c0.1,0,0.2,0,0.3,0c1.7,0,3,1.4,3,3c0,0.2,0,0.4-0.1,0.6
		c-0.1,0.3,0.1,0.6,0.4,0.7c1.5,0.7,2.1,2.5,1.4,4c-0.5,1-1.4,1.6-2.5,1.7h-8c-0.3,0-0.6,0.3-0.6,0.6l0,0c0,0.3,0.2,0.6,0.5,0.6l0,0
		h8c2.3,0,4.2-1.8,4.2-4.1C29.9,13.5,29,12.1,27.7,11.4L27.7,11.4z"/>
	<path class="st0" d="M15.1,19.2c-0.2,0-0.3-0.1-0.4-0.2c-0.2-0.2-0.2-0.6,0-0.8c0.2-0.2,0.6-0.2,0.8,0c0.1,0.1,0.2,0.3,0.2,0.4
		c0,0.2-0.1,0.3-0.2,0.4C15.4,19.1,15.2,19.2,15.1,19.2z"/>
	<path class="st1" d="M6.1,24.6c-0.3,0-0.6-0.2-0.6-0.6l0,0v-3.3c0-0.3,0.3-0.6,0.6-0.6c0.3,0,0.6,0.3,0.6,0.6V24
		C6.7,24.3,6.4,24.6,6.1,24.6L6.1,24.6z"/>
	<path class="st1" d="M19.7,29.1c-0.3,0-0.6-0.3-0.6-0.6v-3.2c0-0.3,0.3-0.5,0.7-0.5c0.3,0,0.5,0.2,0.5,0.5v3.2
		C20.3,28.9,20,29.1,19.7,29.1L19.7,29.1z"/>
	<path class="st1" d="M24.9,24.6c-0.3,0-0.6-0.2-0.6-0.5l0,0v-3.3c0-0.3,0.2-0.6,0.5-0.6l0,0c0.3,0,0.6,0.2,0.6,0.6l0,0V24
		C25.4,24.3,25.2,24.6,24.9,24.6L24.9,24.6z"/>
	<path class="st1" d="M12.5,27.8c-0.3,0-0.6-0.3-0.6-0.6v-4.5c0-0.3,0.3-0.6,0.6-0.6s0.6,0.3,0.6,0.6v4.5
		C13.1,27.6,12.9,27.8,12.5,27.8z"/>
</g>
</svg>
