<?xml version="1.0" encoding="utf-8"?>
<!-- Generator: Adobe Illustrator 25.0.0, SVG Export Plug-In . SVG Version: 6.00 Build 0)  -->
<svg version="1.1" id="Camada_1" xmlns="http://www.w3.org/2000/svg" xmlns:xlink="http://www.w3.org/1999/xlink" x="0px" y="0px"
	 viewBox="0 0 30 30" style="enable-background:new 0 0 30 30;" xml:space="preserve">
<style type="text/css">
	.st0{fill:#50B2C0;}
	.st1{fill:#2B2B2B;}
</style>
<g id="granizo">
	<path d="M27.5,8.7c0-0.1,0-0.1,0-0.2c0-2.5-2-4.6-4.6-4.7c-0.9-2.8-4-4.3-6.8-3.4c-0.5,0.2-0.9,0.4-1.4,0.7
		c-0.7,0.5-1.2,1.1-1.6,1.8c-2.2-1.1-4.9-0.2-6.1,2C7,5.3,6.9,5.6,6.8,5.8C3.9,6,1.8,8.6,2,11.5c0.2,2.7,2.5,4.8,5.2,4.8h16.6
		c2.6,0,4.7-2.1,4.7-4.6C28.4,10.6,28.1,9.6,27.5,8.7z M23.8,15.1H7.2c-2.3,0.1-4.2-1.6-4.3-3.9s1.6-4.2,3.9-4.3c0.1,0,0.3,0,0.4,0
		h0.1c0.3,0,0.5-0.2,0.6-0.5c0.3-1.8,2.1-3,3.9-2.7c0.5,0.1,0.9,0.3,1.3,0.6c0.1,0.1,0.3,0.1,0.5,0.1c0.2-0.1,0.3-0.2,0.4-0.3
		c0.8-2.2,3.3-3.2,5.4-2.4c1.3,0.5,2.2,1.6,2.6,2.9c0.1,0.3,0.3,0.5,0.6,0.4h0.3c1.9,0,3.5,1.6,3.5,3.5l0,0c0,0.1,0,0.2,0,0.3
		c0,0.2,0,0.3,0.1,0.4c1.3,1.5,1.1,3.7-0.4,4.9C25.5,14.8,24.6,15.1,23.8,15.1L23.8,15.1z"/>
	<path class="st0" d="M9.6,20l-1.6-0.9c-0.2-0.1-0.4-0.1-0.6,0L6,20c-0.2,0.1-0.3,0.3-0.3,0.5v1.8c0,0.2,0.1,0.4,0.3,0.5l1.6,0.9
		c0.2,0.1,0.4,0.1,0.6,0l1.6-0.9c0.2-0.1,0.3-0.3,0.3-0.5v-1.8C10,20.3,9.8,20.1,9.6,20z M8.8,22l-1,0.6l-1-0.6v-1.2l1-0.6l1,0.6V22
		L8.8,22z"/>
	<path class="st0" d="M17,20l-1.6-0.9c-0.2-0.1-0.4-0.1-0.6,0L13.4,20c-0.2,0.1-0.3,0.3-0.3,0.5v1.8c0,0.2,0.1,0.4,0.3,0.5l1.6,0.9
		c0.2,0.1,0.4,0.1,0.6,0l1.6-0.9c0.2-0.1,0.3-0.3,0.3-0.5v-1.8C17.3,20.3,17.2,20.1,17,20z M16.2,22l-1,0.6l-1-0.6v-1.2l1-0.6l1,0.6
		V22z"/>
	<path class="st0" d="M24.4,20l-1.5-0.9c-0.2-0.1-0.4-0.1-0.6,0L20.8,20c-0.2,0.1-0.3,0.3-0.3,0.5v1.8c0,0.2,0.1,0.4,0.3,0.5
		l1.6,0.9c0.2,0.1,0.4,0.1,0.6,0l1.5-0.9c0.2-0.1,0.3-0.3,0.3-0.5v-1.8C24.7,20.3,24.6,20.1,24.4,20z M23.6,22l-1,0.6l-1-0.6v-1.2
		l1-0.6l1,0.6V22L23.6,22z"/>
	<path class="st0" d="M13.4,26l-1.6-0.9c-0.2-0.1-0.4-0.1-0.6,0L9.6,26c-0.2,0.1-0.3,0.3-0.3,0.5v1.8c0,0.2,0.1,0.4,0.3,0.5l1.6,0.9
		c0.2,0.1,0.4,0.1,0.6,0l1.6-0.9c0.2-0.1,0.3-0.3,0.3-0.5v-1.8C13.6,26.3,13.5,26.1,13.4,26z M12.5,28l-1,0.6l-1-0.6v-1.1l1-0.6
		l1,0.6V28z"/>
	<path class="st0" d="M20.8,26l-1.6-0.9c-0.2-0.1-0.4-0.1-0.6,0L17.1,26c-0.2,0.1-0.3,0.3-0.3,0.5v1.8c0,0.2,0.1,0.4,0.3,0.5
		l1.6,0.9c0.2,0.1,0.4,0.1,0.6,0l1.6-0.9c0.2-0.1,0.3-0.3,0.3-0.5v-1.8C21,26.3,20.9,26.1,20.8,26z M19.9,28l-1,0.6l-1-0.6v-1.1
		l1-0.6l1,0.6V28z"/>
	<path class="st1" d="M10.2,12.8H7.1c-0.3,0-0.6,0.3-0.6,0.6c0,0.3,0.3,0.6,0.6,0.6h3.1c0.3,0,0.6-0.3,0.6-0.6
		C10.7,13.1,10.5,12.8,10.2,12.8z"/>
	<path class="st1" d="M11.9,12.8c-0.3,0-0.6,0.3-0.6,0.6c0,0.3,0.3,0.6,0.6,0.6c0.3,0,0.6-0.3,0.6-0.6
		C12.5,13.1,12.2,12.8,11.9,12.8z"/>
</g>
</svg>
