<?xml version="1.0" encoding="utf-8"?>
<!-- Generator: Adobe Illustrator 25.0.0, SVG Export Plug-In . SVG Version: 6.00 Build 0)  -->
<svg version="1.1" id="Camada_1" xmlns="http://www.w3.org/2000/svg" xmlns:xlink="http://www.w3.org/1999/xlink" x="0px" y="0px"
	 viewBox="0 0 30 30" style="enable-background:new 0 0 30 30;" xml:space="preserve">
<style type="text/css">
	.st0{fill:#2B2B2B;}
</style>
<g id="nevoeiro">
	<path d="M2.5,11.2h15.7c0.3,0,0.5-0.2,0.5-0.5s-0.2-0.5-0.5-0.5H2.5c-0.3,0-0.5,0.2-0.5,0.5S2.3,11.2,2.5,11.2z"/>
	<path d="M14.4,16.1H3.5c-0.3,0-0.5,0.2-0.5,0.5s0.2,0.5,0.5,0.5h10.8c0.3,0,0.5-0.2,0.5-0.5S14.6,16.1,14.4,16.1z"/>
	<path class="st0" d="M7,13.6c0-0.3-0.2-0.5-0.5-0.5H0.6c-0.3,0-0.5,0.2-0.5,0.5s0.2,0.5,0.5,0.5h5.9C6.8,14.2,7,14,7,13.6
		C7,13.7,7,13.7,7,13.6z"/>
	<path class="st0" d="M5.5,8.2h6.9c0.3,0,0.5-0.2,0.5-0.5s-0.2-0.5-0.5-0.5H5.5C5.2,7.2,5,7.5,5,7.7S5.2,8.2,5.5,8.2z"/>
	<path d="M13.9,7.7c0,0.3,0.2,0.5,0.5,0.5c0,0,0,0,0,0h10.8c0.3,0,0.5-0.2,0.5-0.5s-0.2-0.5-0.5-0.5H14.4
		C14.1,7.2,13.9,7.5,13.9,7.7C13.9,7.7,13.9,7.7,13.9,7.7z"/>
	<path class="st0" d="M20.2,10.2c-0.3,0-0.5,0.2-0.5,0.5s0.2,0.5,0.5,0.5h3.9c0.3,0,0.5-0.2,0.5-0.5s-0.2-0.5-0.5-0.5H20.2z"/>
	<path d="M10.4,5.3h12.8c0.3,0,0.5-0.2,0.5-0.5s-0.2-0.5-0.5-0.5H10.4c-0.3,0-0.5,0.2-0.5,0.5S10.1,5.3,10.4,5.3z"/>
	<path class="st0" d="M27.1,16.1H16.3c-0.3,0-0.5,0.2-0.5,0.5s0.2,0.5,0.5,0.5h10.8c0.3,0,0.5-0.2,0.5-0.5S27.4,16.1,27.1,16.1z"/>
	<path class="st0" d="M24.2,22h-9.8c-0.3,0-0.5,0.2-0.5,0.5s0.2,0.5,0.5,0.5h9.8c0.3,0,0.5-0.2,0.5-0.5S24.5,22,24.2,22z"/>
	<path d="M21.2,25H8.4c-0.3,0-0.5,0.2-0.5,0.5S8.2,26,8.4,26h12.8c0.3,0,0.5-0.2,0.5-0.5S21.5,25,21.2,25z"/>
	<path d="M29.1,13.1H8.4c-0.3,0-0.5,0.2-0.5,0.5s0.2,0.5,0.5,0.5h20.7c0.3,0,0.5-0.2,0.5-0.5S29.4,13.1,29.1,13.1z"/>
	<path class="st0" d="M5.5,19C5.2,19,5,19.3,5,19.5S5.2,20,5.5,20h3.9c0.3,0,0.5-0.2,0.5-0.5S9.7,19,9.4,19H5.5z"/>
	<path d="M12.9,22.5c0-0.3-0.2-0.5-0.5-0.5H3.5C3.3,22,3,22.2,3,22.5S3.3,23,3.5,23h8.9C12.7,23,12.9,22.8,12.9,22.5
		C12.9,22.5,12.9,22.5,12.9,22.5z"/>
	<path d="M10.9,19.5c0,0.3,0.2,0.5,0.5,0.5c0,0,0,0,0,0h10.8c0.3,0,0.5-0.2,0.5-0.5S22.5,19,22.2,19H11.4
		C11.1,19,10.9,19.3,10.9,19.5C10.9,19.5,10.9,19.5,10.9,19.5z"/>
</g>
</svg>
