<?xml version="1.0" encoding="utf-8"?>
<!-- Generator: Adobe Illustrator 25.0.0, SVG Export Plug-In . SVG Version: 6.00 Build 0)  -->
<svg version="1.1" id="Camada_1" xmlns="http://www.w3.org/2000/svg" xmlns:xlink="http://www.w3.org/1999/xlink" x="0px" y="0px"
	 viewBox="0 0 30 30" style="enable-background:new 0 0 30 30;" xml:space="preserve">
<style type="text/css">
	.st0{fill:#2B2B2B;}
</style>
<g id="ceu_nublado">
	<path d="M25.6,14c-0.3-4.9-4.5-8.5-9.3-8.2c-1.5,0.1-2.9,0.6-4.2,1.4C10.9,7.9,9.9,9,9.1,10.2C5.6,9,1.8,10.9,0.6,14.4
		s0.6,7.4,4.2,8.6c0.7,0.2,1.5,0.4,2.2,0.4h11.7c0.3,0,0.6-0.2,0.7-0.5c0-0.3-0.2-0.6-0.5-0.7c-0.1,0-0.1,0-0.2,0H6.9
		c-3.1,0-5.6-2.5-5.6-5.6S3.8,11,6.9,11c0.8,0,1.5,0.2,2.2,0.5l0,0c1.4,0.6,2.5,1.8,3,3.3c0.1,0.2,0.3,0.4,0.5,0.4
		c0.1,0,0.1,0,0.2,0c0.3-0.1,0.5-0.4,0.4-0.7c-0.6-1.6-1.7-2.9-3.1-3.7c2.1-3.7,6.8-4.9,10.4-2.8c2.2,1.3,3.6,3.5,3.8,6.1
		c-0.7,0.1-1.4,0.3-2,0.7c-0.3,0.2-0.3,0.5-0.2,0.8c0.1,0.2,0.3,0.3,0.5,0.3c0.1,0,0.2,0,0.3-0.1c0.6-0.4,1.2-0.6,1.9-0.6
		c1.9,0,3.5,1.6,3.5,3.5s-1.6,3.5-3.5,3.5h-1.7c-0.3,0-0.5,0.3-0.5,0.7c0,0.3,0.2,0.5,0.5,0.5H25c2.6,0,4.7-2,4.7-4.6
		C29.8,16.3,28,14.3,25.6,14z"/>
	<circle class="st0" cx="21" cy="22.8" r="0.6"/>
</g>
</svg>
