<?xml version="1.0" encoding="utf-8"?>
<!-- Generator: Adobe Illustrator 25.0.0, SVG Export Plug-In . SVG Version: 6.00 Build 0)  -->
<svg version="1.1" id="sem_info" xmlns="http://www.w3.org/2000/svg" xmlns:xlink="http://www.w3.org/1999/xlink" x="0px" y="0px"
	 viewBox="0 0 30 30" style="enable-background:new 0 0 30 30;" xml:space="preserve">
<style type="text/css">
	.st0{fill:#F0592A;}
	.st1{fill:none;stroke:#F0592A;stroke-width:1.2;stroke-miterlimit:10;}
</style>
<path class="st0" d="M15,0.3c8.1,0,14.7,6.6,14.7,14.8S23.1,29.8,15,29.8C6.8,29.7,0.2,23.1,0.2,15C0.3,6.9,6.9,0.3,15,0.3z
	 M15,28.7c7.6,0,13.7-6.2,13.7-13.7c0-7.6-6.2-13.7-13.7-13.7C7.4,1.3,1.3,7.4,1.3,15C1.3,22.6,7.4,28.7,15,28.7
	C15,28.7,15,28.7,15,28.7z"/>
<path d="M17.7,18.1c0,0.9,0,1.9,0,2.8c0.1,1.5-1,2.7-2.5,2.8c-1.5,0.1-2.7-1-2.8-2.5c0-0.1,0-0.2,0-0.3c0-1.9,0-3.7,0-5.6
	c-0.1-1.5,1-2.7,2.5-2.8s2.7,1,2.8,2.5c0,0.1,0,0.2,0,0.3C17.7,16.2,17.7,17.2,17.7,18.1z M13.3,18.1c0,0.9,0,1.8,0,2.7
	c-0.1,0.9,0.6,1.8,1.5,1.9s1.8-0.6,1.9-1.5c0-0.1,0-0.2,0-0.4c0-1.8,0-3.6,0-5.4c0.1-0.9-0.6-1.8-1.5-1.9s-1.8,0.6-1.9,1.5
	c0,0.1,0,0.2,0,0.4C13.3,16.3,13.3,17.2,13.3,18.1z"/>
<path d="M17.7,9.1c0,1.5-1.2,2.7-2.7,2.6s-2.7-1.2-2.6-2.7c0-1.5,1.2-2.7,2.7-2.6C16.5,6.3,17.7,7.5,17.7,9.1
	C17.7,9,17.7,9,17.7,9.1z M15,7.4c-0.9,0-1.7,0.8-1.7,1.7c-0.1,0.9,0.6,1.7,1.5,1.8c0.9,0.1,1.7-0.6,1.8-1.5c0-0.1,0-0.2,0-0.3
	C16.7,8.1,15.9,7.4,15,7.4C15,7.4,15,7.4,15,7.4z"/>
<line class="st1" x1="4.4" y1="5.8" x2="26.5" y2="23.7"/>
</svg>
