<?xml version="1.0" encoding="utf-8"?>
<!-- Generator: Adobe Illustrator 25.0.0, SVG Export Plug-In . SVG Version: 6.00 Build 0)  -->
<svg version="1.1" id="Camada_1" xmlns="http://www.w3.org/2000/svg" xmlns:xlink="http://www.w3.org/1999/xlink" x="0px" y="0px"
	 viewBox="0 0 30 30" style="enable-background:new 0 0 30 30;" xml:space="preserve">
<style type="text/css">
	.st0{fill:#2B2B2B;}
	.st1{fill:none;stroke:#F7B32B;stroke-width:1.3;stroke-linejoin:round;stroke-miterlimit:10;}
</style>
<g id="trovoada">
	<circle class="st0" cx="0.9" cy="16.9" r="0.6"/>
	<path d="M29.8,9.6c0-1.4-0.7-2.7-1.9-3.6c-0.1-1.9-1.6-3.3-3.5-3.3c-0.4,0-0.8,0.1-1.2,0.2c-1.1-1.4-3-1.7-4.5-0.9
		C18,1.5,17,1.3,16,1.3c-2.2,0-4.1,1.2-5.1,3.2c-2.2-1-4.8-0.1-5.8,2c-0.9,1.8-0.4,3.9,1.1,5.2c-0.1,0.2-0.2,0.3-0.3,0.5
		c-0.3,0-0.5-0.1-0.8-0.1c-1.5,0-3,0.7-3.9,2C1,14.3,1,14.7,1.3,14.9c0,0,0,0,0,0C1.4,15,1.5,15,1.6,15c0.2,0,0.4-0.1,0.5-0.2
		C3,13.5,4.6,12.9,6,13.4c0.3,0.1,0.6-0.1,0.7-0.4c0.1-0.3,0.2-0.5,0.4-0.7c0.6,0.3,1.2,0.4,1.9,0.4h0.4c0.8,1.4,2.3,2.2,3.8,2.3
		l-2.5,3.4c-0.1,0.2-0.1,0.4,0,0.6c0.1,0.2,0.3,0.3,0.5,0.3H13l-1.9,3.8H11c-1.7,0-3.3-0.9-4.2-2.4c-0.1-0.2-0.4-0.4-0.7-0.3
		c-0.3,0.1-0.7,0.1-1,0.1c-1.2,0-2.3-0.5-3-1.5c-0.2-0.3-0.6-0.3-0.8-0.1c0,0,0,0,0,0c-0.3,0.2-0.3,0.5-0.1,0.8c0,0,0,0,0,0
		c0.9,1.3,2.4,2,3.9,2c0.3,0,0.6,0,0.9-0.1c1,1.5,2.7,2.5,4.5,2.6l-1.4,2.8c-0.2,0.4-0.1,1,0.3,1.3c0.2,0.1,0.4,0.2,0.6,0.2
		c0.3,0,0.5-0.1,0.7-0.3l6.7-6c1.7,0.9,3.9,0.6,5.2-0.9c0.3,0.1,0.6,0.1,0.9,0.1c2.8,0,5-2.2,5-5c0-1.1-0.4-2.3-1.1-3.1
		C28.9,12.7,29.8,11.2,29.8,9.6L29.8,9.6z M13.5,13.8c-1.4,0-2.6-0.8-3.2-2.1c-0.1-0.2-0.4-0.4-0.6-0.3c-0.2,0-0.4,0.1-0.6,0.1
		c-1.8,0.1-3.3-1.2-3.4-3s1.2-3.3,3-3.4c0.1,0,0.2,0,0.4,0c0.7,0,1.3,0.2,1.8,0.6c0.1,0.1,0.3,0.1,0.5,0.1c0.2-0.1,0.3-0.2,0.4-0.3
		c0.7-1.8,2.4-3,4.3-3c0.9,0,1.7,0.3,2.5,0.7c0.2,0.1,0.5,0.1,0.7,0c1-0.8,2.5-0.6,3.2,0.5c0.1,0.1,0.1,0.2,0.2,0.2
		c0.2,0.3,0.5,0.4,0.8,0.2c1.1-0.6,2.5-0.2,3.1,0.9c0.2,0.3,0.3,0.7,0.3,1.1c0,0,0,0.1,0,0.1c0,0.2,0.1,0.4,0.3,0.5
		c1.5,0.9,2,2.9,1.1,4.5c-0.6,0.9-1.6,1.5-2.7,1.5c-0.4,0-0.8-0.1-1.1-0.2c-0.2-0.1-0.4,0-0.6,0.1c-0.6,0.6-1.4,0.9-2.2,1.1l1.5-2
		c0.1-0.2,0.2-0.4,0-0.6c-0.1-0.2-0.3-0.3-0.5-0.3h-5.9c-0.2,0-0.4,0.1-0.5,0.2l-2,2.8C13.9,13.9,13.7,13.9,13.5,13.8z M10.4,27l4-8
		c0.1-0.2,0.1-0.4,0-0.6c-0.1-0.2-0.3-0.3-0.5-0.3h-1.6l4.5-6.2h4.5l-3.7,4.9c-0.1,0.2-0.2,0.4-0.1,0.6c0.1,0.2,0.3,0.3,0.5,0.3h2.8
		L10.4,27z M27.4,16.6c0,2.1-1.7,3.8-3.8,3.8c-0.3,0-0.6,0-0.9-0.1c-0.2-0.1-0.5,0-0.6,0.2c-0.6,0.8-1.5,1.2-2.5,1.2
		c-0.4,0-0.8-0.1-1.1-0.2l4.4-3.9c0.2-0.2,0.2-0.4,0.2-0.6c-0.1-0.2-0.3-0.4-0.5-0.4h-3.2l1.2-1.6l0,0c1.3,0,2.6-0.4,3.7-1.2
		c0.4,0.1,0.8,0.2,1.2,0.2c0.3,0,0.6,0,0.8-0.1C27,14.6,27.4,15.6,27.4,16.6L27.4,16.6z"/>
</g>
<path class="st1" d="M16.5,11.4c2,0,4,0,6,0c-1.4,1.9-2.9,3.8-4.3,5.8c1.4,0,2.9,0,4.3,0c-4.1,3.6-8.3,7.3-12.4,10.9
	c-0.2-0.2-0.4-0.3-0.5-0.5c1.5-3,3-5.9,4.5-8.9c-0.9,0-1.8,0-2.8,0L16.5,11.4z"/>
</svg>
