<?xml version="1.0" encoding="utf-8"?>
<!-- Generator: Adobe Illustrator 25.0.0, SVG Export Plug-In . SVG Version: 6.00 Build 0)  -->
<svg version="1.1" id="Camada_1" xmlns="http://www.w3.org/2000/svg" xmlns:xlink="http://www.w3.org/1999/xlink" x="0px" y="0px"
	 viewBox="0 0 30 30" style="enable-background:new 0 0 30 30;" xml:space="preserve">
<style type="text/css">
	.st0{fill:#50B2C0;}
	.st1{fill:#2B2B2B;}
	.st2{fill:none;stroke:#1BDBEA;stroke-miterlimit:10;}
	.st3{fill:none;stroke:#F7B32B;stroke-width:1.25;stroke-linecap:round;stroke-linejoin:round;stroke-miterlimit:10;}
</style>
<g id="trovoada_c_chuva">
	<path d="M29.8,15.8c0-2-1.1-3.8-2.8-4.8c0-0.8-0.2-1.5-0.5-2.2c-0.1-0.3-0.5-0.4-0.8-0.3c-0.3,0.1-0.4,0.4-0.3,0.7c0,0,0,0,0,0
		c0.3,0.7,0.4,1.4,0.4,2.2c0,0.2,0.1,0.4,0.3,0.5c2.2,1.1,3.1,3.8,2,6s-3.8,3.1-6,2c-0.5-0.3-1-0.6-1.4-1.1
		c-0.2-0.2-0.6-0.3-0.8-0.1c0,0,0,0-0.1,0.1c-1.5,1.8-4.1,2.1-6,0.8l2-2.2c0.2-0.2,0.3-0.6,0.1-0.8c-0.1-0.2-0.3-0.2-0.5-0.2h-0.8
		l1.5-2.8c0.1-0.3,0-0.6-0.2-0.8c-0.1,0-0.2-0.1-0.3-0.1H11c-0.2,0-0.4,0.1-0.5,0.3L8,18.2c-0.1,0.2-0.1,0.4,0,0.6
		C8.1,18.9,8.3,19,8.5,19h1.8L10,20.1c-2.3,0.8-4.9-0.4-5.7-2.8s0.4-4.9,2.8-5.7c0.1,0,0.2-0.1,0.4-0.1c0.3-0.1,0.4-0.3,0.4-0.6
		C7.7,9.1,9.2,7.6,11,7.5c1,0,1.9,0.4,2.6,1.1c0.1,0.1,0.3,0.2,0.5,0.2c0.2,0,0.3-0.1,0.4-0.3c1.1-1.9,3.1-3.1,5.3-3.1
		c0.8,0,1.6,0.2,2.4,0.5c0.3,0.1,0.6,0,0.8-0.3c0.1-0.3,0-0.6-0.3-0.7c0,0,0,0,0,0c-0.9-0.4-1.8-0.6-2.8-0.6c-0.5,0-0.9,0-1.4,0.1
		c-1.6-3.5-5.6-5-9.1-3.4C7.4,1.7,6,3.4,5.5,5.3C5.2,5.3,4.9,5.2,4.7,5.2c-2.4,0-4.4,1.9-4.4,4.3c0,1.9,1.3,3.7,3.1,4.2
		c-0.2,0.6-0.4,1.3-0.4,2c0,3.1,2.5,5.6,5.6,5.6c0.3,0,0.6,0,0.9-0.1L9,23.1c-0.1,0.3,0,0.5,0.2,0.7c0.1,0.1,0.2,0.1,0.3,0.1
		c0.2,0,0.3-0.1,0.4-0.2l3-3.3c1,0.7,2.1,1.1,3.3,1.1c1.4,0,2.8-0.6,3.9-1.5c2.3,2.1,5.8,2.1,8-0.2C29.2,18.7,29.7,17.3,29.8,15.8
		L29.8,15.8z M1.4,9.6c0-1.8,1.5-3.2,3.2-3.2c0.4,0,0.7,0.1,1.1,0.2c0.2,0.1,0.3,0.1,0.5,0c0.1-0.1,0.3-0.2,0.3-0.4
		C7,3.1,10,1,13.1,1.5c1.8,0.3,3.3,1.5,4.1,3.1c-1.4,0.5-2.5,1.4-3.4,2.6c-0.6-0.5-1.3-0.8-2-0.9c-1-0.2-2,0-2.9,0.5
		C7.6,7.7,6.8,9,6.7,10.5c-1.1,0.4-2.1,1.2-2.8,2.2C2.4,12.4,1.4,11.1,1.4,9.6z M11.7,18.6c0.1-0.2,0-0.4-0.1-0.5
		c-0.1-0.1-0.3-0.2-0.5-0.2H9.4l1.9-3.9h3.2L13,16.8c-0.1,0.2-0.1,0.4,0,0.6c0.1,0.2,0.3,0.3,0.5,0.3h0.4l-3.1,3.3L11.7,18.6z"/>
	<path class="st0" d="M7.2,23c-0.2-0.2-0.6-0.2-0.8,0c0,0,0,0,0,0l-1.8,1.8c-0.2,0.2-0.2,0.6,0,0.8c0.1,0.1,0.3,0.2,0.4,0.2
		c0.2,0,0.3-0.1,0.4-0.2l1.8-1.8C7.5,23.6,7.5,23.3,7.2,23C7.2,23,7.2,23,7.2,23z"/>
	<path class="st0" d="M14.2,23c-0.2-0.2-0.6-0.2-0.8,0c0,0,0,0,0,0l-1.8,1.8c-0.2,0.2-0.2,0.6,0,0.8c0.1,0.1,0.3,0.2,0.4,0.2
		c0.2,0,0.3-0.1,0.4-0.2l1.8-1.8"/>
	<path class="st0" d="M21.1,23c-0.2-0.2-0.6-0.2-0.8,0c0,0,0,0,0,0l-1.8,1.8c-0.2,0.2-0.2,0.6,0,0.8c0.1,0.1,0.3,0.2,0.4,0.2
		c0.2,0,0.3-0.1,0.4-0.2l1.8-1.8C21.4,23.6,21.4,23.3,21.1,23L21.1,23z"/>
	<path class="st0" d="M14.2,23c-0.2-0.2-0.6-0.2-0.8,0c0,0,0,0,0,0l-1.8,1.8c-0.2,0.2-0.2,0.6,0,0.8c0.1,0.1,0.3,0.2,0.4,0.2
		c0.2,0,0.3-0.1,0.4-0.2l1.8-1.8C14.4,23.6,14.4,23.3,14.2,23L14.2,23z"/>
	<path class="st0" d="M27.3,23l-1.8,1.8c-0.2,0.2-0.2,0.6,0,0.8c0.1,0.1,0.3,0.2,0.4,0.2c0.2,0,0.3-0.1,0.4-0.2l1.8-1.8
		c0.2-0.2,0.2-0.6,0-0.8S27.5,22.8,27.3,23L27.3,23z"/>
	<path class="st0" d="M8.2,27l-1.8,1.8c-0.2,0.2-0.2,0.6,0,0.8c0.1,0.1,0.3,0.2,0.4,0.2c0.2,0,0.3-0.1,0.4-0.2L9,27.8
		c0.2-0.2,0.2-0.6,0-0.8c0,0,0,0,0,0C8.8,26.8,8.4,26.8,8.2,27z"/>
	<path class="st0" d="M15.1,27l-1.8,1.8c-0.2,0.2-0.2,0.6,0,0.8c0,0,0,0,0,0c0.2,0.2,0.6,0.2,0.8,0c0,0,0,0,0,0l1.8-1.8
		c0.2-0.2,0.2-0.6,0-0.8C15.8,26.8,15.4,26.8,15.1,27L15.1,27z"/>
	<path class="st0" d="M22.1,27l-1.8,1.8c-0.2,0.2-0.2,0.6,0,0.8c0.1,0.1,0.3,0.2,0.4,0.2c0.2,0,0.3-0.1,0.4-0.2l1.8-1.8
		c0.2-0.2,0.2-0.6,0-0.8c0,0,0,0,0,0C22.7,26.8,22.3,26.8,22.1,27z"/>
	<path class="st1" d="M24.5,7.3c0.3,0,0.6-0.3,0.6-0.6c0-0.2-0.1-0.3-0.2-0.4c-0.1-0.1-0.2-0.2-0.4-0.2c-0.2,0-0.3,0.1-0.4,0.2
		c-0.1,0.1-0.2,0.3-0.2,0.4c0,0.2,0.1,0.3,0.2,0.4C24.2,7.3,24.3,7.3,24.5,7.3z"/>
</g>
<path class="st2" d="M9.7,23.1"/>
<path class="st3" d="M11,13.4c1.5,0,3,0,4.5,0c-0.7,1.2-1.3,2.5-2,3.7c0.6,0,1.3,0,1.9-0.1c-2,2.1-4,4.2-5.9,6.3
	c0.6-1.6,1.1-3.2,1.7-4.9c-0.9,0-1.8,0-2.7,0C9.3,16.8,10.1,15.1,11,13.4z"/>
</svg>
