<svg id="Camada_1" data-name="Camada 1" xmlns="http://www.w3.org/2000/svg" viewBox="0 0 339 225"><defs><style>.cls-1{fill:#fff;stroke:#000;stroke-miterlimit:10;stroke-width:7px;}</style></defs><title>airplane</title><path class="cls-1" d="M156.77,128c-1.25,1.51-2,2.52-2.85,3.43Q140,146.34,126.06,161.24q-22.29,23.82-44.56,47.69c-.87.95-1.2,2.4-1.78,3.61,1.28.46,2.55,1.29,3.84,1.32a32.25,32.25,0,0,0,18-5.25q22.9-14.3,45.71-28.76C168.71,166.24,190,152.46,211.54,139a15.7,15.7,0,0,1,9.05-2.36c11.61,1,23.17,2.59,34.74,4,22.78,2.7,45.6,4.78,68.58,4.15,5-.14,5.6-1,3.95-5.57-3.54-9.78-10.55-16.73-18.64-22.82-12.05-9.06-26.15-12-40.62-14.19Q162.39,86,56.2,69.72c-7.14-1.09-12.18-4.81-15-11.48S35.76,44.81,33,38.13c-2.6-6.21-5.08-12.48-8.08-18.48-.81-1.63-3.33-2.41-5.07-3.58-.81,1.66-2.09,3.25-2.37,5C14.57,39.23,11.85,57.42,9.09,75.6A12.09,12.09,0,0,0,13,86.87a48.8,48.8,0,0,0,7,5.54c17.24,10.88,36.39,17,56.12,21,24.88,5,50,8.91,75,13.31C152.76,127,154.44,127.46,156.77,128ZM115.26,22.35l-.79,1.22a18,18,0,0,0,.85,2.85q12.59,25.85,25.22,51.67a9.24,9.24,0,0,0,7.57,5.31c9,1.31,17.92,2.75,26.89,4.06a31.62,31.62,0,0,0,4.79-.17,42.34,42.34,0,0,0-2.75-4.2c-12.94-15.18-25.7-30.51-39-45.36C133.63,32.8,128,28.93,122.57,25,120.57,23.51,117.72,23.19,115.26,22.35Z"/></svg>