<svg id="Camada_1" data-name="Camada 1" xmlns="http://www.w3.org/2000/svg" viewBox="0 0 1168 522"><defs><style>.cls-1{fill:none;stroke:#000;stroke-linecap:round;stroke-miterlimit:10;stroke-width:7px;stroke-dasharray:30 45;}</style></defs><title>dashed_line</title><path class="cls-1" d="M919.83,500.38c-2-1.67-4-3.4-5.87-5.19-30.48-28.89-2.29-67.95-25.86-104.35-11.74-18.11-60.92-94-167.19-109.65-15.82-2.33-67.14-12.13-91.17,33-30.41,57.12-7.74,80,50.67,97.66,62,18.76,117.41-57.89,125.48-104.74,10.16-59,20.32-112.61-65.58-142.08-69.59-23.88-187.95-4.46-285.41,1.77-55.42,3.53-115.57,4-158.87-22.41C227.5,102.59,229.81,82.9,176.88,57.75,135,37.84,77.13,30.63-2.31,22.38"/></svg>