<svg id="Camada_1" data-name="Camada 1" xmlns="http://www.w3.org/2000/svg" viewBox="0 0 339 225"><title>sad</title><path d="M151.72,83.67c-4,0-7.27,3.93-7.27,8.77s3.26,8.78,7.27,8.78S159,97.28,159,92.44,155.74,83.67,151.72,83.67Zm0,13.93c-2,0-3.65-2.36-3.65-5.16s1.67-5.16,3.65-5.16,3.66,2.37,3.66,5.16S153.71,97.6,151.72,97.6Z"/><path d="M157.39,92.51c-.07,4.38-2.7,8-5.75,7.87s-5.87-4.43-5.71-8.57,3.12-8.08,5.91-8C154.81,84,157.46,88.11,157.39,92.51Z"/><path d="M181.28,132.93c-6.07,1.35-11.56,4-15.06,7.28a2.63,2.63,0,0,0,1.79,4.54,2.58,2.58,0,0,0,1.79-.71c8.06-7.52,25.9-8.82,30.14-3.85a2.63,2.63,0,0,0,3.7.29C207.61,137.09,198.08,129.18,181.28,132.93Z"/><path d="M235,39.23a2.63,2.63,0,0,0-3.25,4.13c46.68,36.78,41.52,109.3-10.05,139.07a84.06,84.06,0,0,1-87.19-1.79,2.62,2.62,0,1,0-2.8,4.44,89.3,89.3,0,0,0,92.62,1.9C279.05,155.36,284.57,78.33,235,39.23Z"/><path d="M224.51,32.13C173.75,2.7,108.44,29.23,93.14,86.35a89.36,89.36,0,0,0,28.36,91.24,2.63,2.63,0,1,0,3.41-4C80.73,135.92,87,65.67,137.45,36.57a84.15,84.15,0,0,1,84.42.11,2.63,2.63,0,0,0,2.64-4.55Z"/><path d="M206.72,82.67c-4,0-7.27,3.93-7.27,8.77s3.26,8.78,7.27,8.78S214,96.28,214,91.44,210.74,82.67,206.72,82.67Zm0,13.93c-2,0-3.65-2.36-3.65-5.16s1.67-5.16,3.65-5.16,3.66,2.37,3.66,5.16S208.71,96.6,206.72,96.6Z"/><path d="M212.39,91.51c-.07,4.38-2.7,8-5.75,7.87s-5.87-4.43-5.71-8.57,3.12-8.08,5.91-8C209.81,83,212.46,87.11,212.39,91.51Z"/></svg>